<svg width="48" height="48" viewBox="0 0 48 48" fill="none" xmlns="http://www.w3.org/2000/svg">
<path d="M43 44.0004C43.8 44.0004 44.5 43.7004 45.1 43.1004C45.7 42.5004 46 41.8004 46 41.0004V15.3504C46 14.5837 45.7 13.8921 45.1 13.2754C44.5 12.6587 43.8 12.3504 43 12.3504H35.65L32 8.00039H18V14.0004H12.05V20.0004H6V41.0004C6 41.8004 6.30833 42.5004 6.925 43.1004C7.54167 43.7004 8.23333 44.0004 9 44.0004H43ZM26 36.7004C23.6 36.7004 21.5833 35.8837 19.95 34.2504C18.3167 32.6171 17.5 30.6004 17.5 28.2004C17.5 25.7671 18.3167 23.7421 19.95 22.1254C21.5833 20.5087 23.6 19.7004 26 19.7004C28.4333 19.7004 30.4583 20.5087 32.075 22.1254C33.6917 23.7421 34.5 25.7671 34.5 28.2004C34.5 30.6004 33.6917 32.6171 32.075 34.2504C30.4583 35.8837 28.4333 36.7004 26 36.7004ZM26 33.7004C27.6 33.7004 28.9167 33.1754 29.95 32.1254C30.9833 31.0754 31.5 29.7671 31.5 28.2004C31.5 26.6004 30.9833 25.2837 29.95 24.2504C28.9167 23.2171 27.6 22.7004 26 22.7004C24.4333 22.7004 23.125 23.2171 22.075 24.2504C21.025 25.2837 20.5 26.6004 20.5 28.2004C20.5 29.7671 21.025 31.0754 22.075 32.1254C23.125 33.1754 24.4333 33.7004 26 33.7004ZM9.05 15.3004V11.0004H13.35V8.00039H9.05V3.65039H6.05V8.00039H1.7V11.0004H6.05V15.3004H9.05Z" fill="#C4C4C4"/>
</svg>
