<svg xmlns="http://www.w3.org/2000/svg" height="20" width="20"><path d="M12.75 9.25q.521 0 .885-.365Q14 8.521 14 8t-.365-.885q-.364-.365-.885-.365t-.885.365Q11.5 7.479 11.5 8t.365.885q.364.365.885.365Zm-5.5 0q.521 0 .885-.365Q8.5 8.521 8.5 8t-.365-.885q-.364-.365-.885-.365t-.885.365Q6 7.479 6 8t.365.885q.364.365.885.365ZM10 14q1.25 0 2.302-.646t1.656-1.75H6.042q.604 1.104 1.656 1.75Q8.75 14 10 14Zm0 4q-1.646 0-3.104-.625-1.458-.625-2.552-1.719t-1.719-2.552Q2 11.646 2 10q0-1.667.625-3.115.625-1.447 1.719-2.541Q5.438 3.25 6.896 2.625T10 2q1.667 0 3.115.625 1.447.625 2.541 1.719 1.094 1.094 1.719 2.541Q18 8.333 18 10q0 1.646-.625 3.104-.625 1.458-1.719 2.552t-2.541 1.719Q11.667 18 10 18Zm0-8Zm0 6.5q2.708 0 4.604-1.896T16.5 10q0-2.708-1.896-4.604T10 3.5q-2.708 0-4.604 1.896T3.5 10q0 2.708 1.896 4.604T10 16.5Z" style="fill:#ffffff"/></svg>