<?xml version="1.0" encoding="UTF-8"?>
<svg version="1.2" width="135.47mm" height="135.47mm" viewBox="0 0 13547 13547" preserveAspectRatio="xMidYMid" fill-rule="evenodd" stroke-width="28.222" stroke-linejoin="round" xmlns="http://www.w3.org/2000/svg" xmlns:ooo="http://xml.openoffice.org/svg/export" xmlns:xlink="http://www.w3.org/1999/xlink" xmlns:presentation="http://sun.com/xmlns/staroffice/presentation" xmlns:smil="http://www.w3.org/2001/SMIL20/" xmlns:anim="urn:oasis:names:tc:opendocument:xmlns:animation:1.0" xml:space="preserve">
 <defs class="ClipPathGroup">
  <clipPath id="presentation_clip_path" clipPathUnits="userSpaceOnUse">
   <rect x="0" y="0" width="13547" height="13547"/>
  </clipPath>
  <clipPath id="presentation_clip_path_shrink" clipPathUnits="userSpaceOnUse">
   <rect x="13" y="13" width="13520" height="13520"/>
  </clipPath>
 </defs>
 <defs class="TextShapeIndex">
  <g ooo:slide="id1" ooo:id-list="id3"/>
 </defs>
 <defs class="EmbeddedBulletChars">
  <g id="bullet-char-template-57356" transform="scale(0.00048828125,-0.00048828125)">
   <path d="M 580,1141 L 1163,571 580,0 -4,571 580,1141 Z"/>
  </g>
  <g id="bullet-char-template-57354" transform="scale(0.00048828125,-0.00048828125)">
   <path d="M 8,1128 L 1137,1128 1137,0 8,0 8,1128 Z"/>
  </g>
  <g id="bullet-char-template-10146" transform="scale(0.00048828125,-0.00048828125)">
   <path d="M 174,0 L 602,739 174,1481 1456,739 174,0 Z M 1358,739 L 309,1346 659,739 1358,739 Z"/>
  </g>
  <g id="bullet-char-template-10132" transform="scale(0.00048828125,-0.00048828125)">
   <path d="M 2015,739 L 1276,0 717,0 1260,543 174,543 174,936 1260,936 717,1481 1274,1481 2015,739 Z"/>
  </g>
  <g id="bullet-char-template-10007" transform="scale(0.00048828125,-0.00048828125)">
   <path d="M 0,-2 C -7,14 -16,27 -25,37 L 356,567 C 262,823 215,952 215,954 215,979 228,992 255,992 264,992 276,990 289,987 310,991 331,999 354,1012 L 381,999 492,748 772,1049 836,1024 860,1049 C 881,1039 901,1025 922,1006 886,937 835,863 770,784 769,783 710,716 594,584 L 774,223 C 774,196 753,168 711,139 L 727,119 C 717,90 699,76 672,76 641,76 570,178 457,381 L 164,-76 C 142,-110 111,-127 72,-127 30,-127 9,-110 8,-76 1,-67 -2,-52 -2,-32 -2,-23 -1,-13 0,-2 Z"/>
  </g>
  <g id="bullet-char-template-10004" transform="scale(0.00048828125,-0.00048828125)">
   <path d="M 285,-33 C 182,-33 111,30 74,156 52,228 41,333 41,471 41,549 55,616 82,672 116,743 169,778 240,778 293,778 328,747 346,684 L 369,508 C 377,444 397,411 428,410 L 1163,1116 C 1174,1127 1196,1133 1229,1133 1271,1133 1292,1118 1292,1087 L 1292,965 C 1292,929 1282,901 1262,881 L 442,47 C 390,-6 338,-33 285,-33 Z"/>
  </g>
  <g id="bullet-char-template-9679" transform="scale(0.00048828125,-0.00048828125)">
   <path d="M 813,0 C 632,0 489,54 383,161 276,268 223,411 223,592 223,773 276,916 383,1023 489,1130 632,1184 813,1184 992,1184 1136,1130 1245,1023 1353,916 1407,772 1407,592 1407,412 1353,268 1245,161 1136,54 992,0 813,0 Z"/>
  </g>
  <g id="bullet-char-template-8226" transform="scale(0.00048828125,-0.00048828125)">
   <path d="M 346,457 C 273,457 209,483 155,535 101,586 74,649 74,723 74,796 101,859 155,911 209,963 273,989 346,989 419,989 480,963 531,910 582,859 608,796 608,723 608,648 583,586 532,535 482,483 420,457 346,457 Z"/>
  </g>
  <g id="bullet-char-template-8211" transform="scale(0.00048828125,-0.00048828125)">
   <path d="M -4,459 L 1135,459 1135,606 -4,606 -4,459 Z"/>
  </g>
  <g id="bullet-char-template-61548" transform="scale(0.00048828125,-0.00048828125)">
   <path d="M 173,740 C 173,903 231,1043 346,1159 462,1274 601,1332 765,1332 928,1332 1067,1274 1183,1159 1299,1043 1357,903 1357,740 1357,577 1299,437 1183,322 1067,206 928,148 765,148 601,148 462,206 346,322 231,437 173,577 173,740 Z"/>
  </g>
 </defs>
 <defs class="TextEmbeddedBitmaps"/>
 <g>
  <g id="id2" class="Master_Slide">
   <g id="bg-id2" class="Background"/>
   <g id="bo-id2" class="BackgroundObjects"/>
  </g>
 </g>
 <g class="SlideGroup">
  <g>
   <g id="container-id1">
    <g id="id1" class="Slide" clip-path="url(#presentation_clip_path)">
     <g class="Page">
      <g class="Graphic">
       <g id="id3">
        <rect class="BoundingBox" stroke="none" fill="none" x="0" y="0" width="13547" height="13547"/>
        <defs>
         <clipPath id="clip_path_1" clipPathUnits="userSpaceOnUse">
          <path d="M 0,0 L 13546,0 13546,13546 0,13546 0,0 Z"/>
         </clipPath>
        </defs>
        <g clip-path="url(#clip_path_1)">
         <path fill="rgb(255,109,122)" stroke="none" d="M 11678,6306 C 11678,7381 11433,8294 10895,9225 10358,10156 9689,10825 8758,11362 7827,11900 6914,12145 5839,12145 4764,12145 3850,11900 2919,11362 1989,10825 1320,10156 782,9225 245,8294 0,7381 0,6306 0,5231 245,4317 782,3387 1320,2456 1989,1787 2919,1249 3850,712 4764,467 5839,467 6914,467 7827,712 8758,1249 9689,1787 10358,2456 10895,3386 11433,4317 11678,5231 11678,6306 L 11678,6306 Z"/>
         <path fill="rgb(255,140,149)" stroke="none" d="M 876,6890 C 876,7394 941,7884 1064,8352 1164,8737 614,8928 458,8562 L 458,8562 C 140,7813 0,7123 0,6309 0,6308 0,6307 0,6306 0,3087 2660,445 5880,467 6277,470 6315,1050 5923,1106 3198,1497 876,3825 876,6890 L 876,6890 Z"/>
         <path fill="rgb(233,233,233)" stroke="none" d="M 10218,6306 C 10218,7112 10034,7797 9631,8495 9228,9194 8727,9695 8028,10098 7330,10501 6645,10685 5839,10685 5033,10685 4347,10501 3649,10098 2951,9695 2449,9194 2046,8495 1643,7797 1460,7112 1460,6306 1460,5500 1643,4815 2046,4116 2449,3418 2951,2917 3649,2513 4347,2110 5033,1927 5839,1927 6645,1927 7330,2110 8028,2513 8727,2917 9228,3418 9631,4116 10034,4815 10218,5500 10218,6306 L 10218,6306 Z"/>
         <path fill="rgb(238,247,255)" stroke="none" d="M 1806,8002 C 576,5113 2756,1904 5871,1927 6271,1930 6320,2508 5927,2582 3577,3028 1897,5325 2433,7805 2518,8197 1963,8372 1806,8002 Z"/>
         <path fill="rgb(190,250,145)" stroke="none" d="M 13546,10364 C 13546,10864 13432,11289 13182,11721 12932,12154 12621,12465 12188,12715 11756,12965 11331,13079 10831,13079 10331,13079 9906,12965 9473,12715 9041,12465 8730,12154 8480,11721 8230,11289 8116,10864 8116,10364 8116,9864 8230,9439 8480,9006 8730,8573 9041,8262 9473,8013 9906,7763 10331,7649 10831,7649 11331,7649 11756,7763 12188,8013 12621,8262 12932,8573 13182,9006 13432,9439 13546,9864 13546,10364 L 13546,10364 Z"/>
         <path fill="rgb(218,255,191)" stroke="none" d="M 8393,11561 C 8208,11183 8107,10756 8117,10304 8148,8852 9336,7667 10797,7649 11133,7645 11200,8122 10875,8211 9506,8591 8640,9951 8929,11374 8996,11703 8541,11862 8393,11561 Z"/>
         <path fill="rgb(156,235,99)" stroke="none" d="M 9757,10701 C 9743,10687 9733,10674 9724,10657 9702,10619 9692,10583 9692,10540 9692,10497 9702,10460 9724,10423 9745,10386 9772,10359 9809,10338 9846,10316 9883,10306 9926,10306 9969,10306 10005,10316 10043,10338 10063,10349 10079,10362 10095,10379 L 10528,10833 11600,9761 C 11615,9746 11629,9735 11647,9725 11685,9703 11721,9693 11764,9693 11807,9693 11844,9703 11881,9725 11918,9746 11945,9773 11966,9810 11988,9847 11998,9884 11998,9927 11998,9970 11988,10006 11966,10044 11956,10062 11945,10076 11930,10091 L 10689,11332 C 10596,11425 10445,11423 10355,11328 L 9757,10701 Z"/>
        </g>
       </g>
      </g>
     </g>
    </g>
   </g>
  </g>
 </g>
</svg>