<svg width="242" height="188" viewBox="0 0 242 188" fill="none" xmlns="http://www.w3.org/2000/svg">
<g id="Group 198">
<g id="forum-2 1">
<g id="Group">
<g id="Group_2">
<g id="container-id1">
<g id="id1">
<g id="Group_3">
<g id="Group_4">
<g id="id3">
<path id="Vector" fill-rule="evenodd" clip-rule="evenodd" d="M138.638 44.2683C138.638 40.1256 138.138 36.6158 136.988 32.6457C136.084 29.5387 135.021 26.9988 133.45 24.1795C129.897 17.801 125.478 13.2227 119.323 9.54028C113.168 5.84966 107.123 4.17285 100.016 4.17285C92.9009 4.17285 86.8645 5.84966 80.7091 9.54028C74.5537 13.2227 70.1275 17.801 66.5739 24.1795C63.0203 30.5579 61.4021 36.8213 61.4021 44.1861C61.4021 51.1975 62.8616 57.1485 66.09 63.305L61.5449 79.8512C61.4497 80.1799 61.41 80.4676 61.41 80.8046C61.41 81.4458 61.5528 81.9883 61.8622 82.5472C62.1715 83.0979 62.5602 83.5007 63.0917 83.8212C63.631 84.1418 64.1546 84.2815 64.7733 84.2815C65.0985 84.2815 65.3761 84.2404 65.6934 84.15L81.6609 79.432C84.0565 80.7882 86.1902 81.717 88.7999 82.5308C92.6232 83.7555 96.0103 84.2815 100.008 84.2815C100.016 84.2815 100.024 84.2815 100.024 84.2815C107.131 84.2733 113.16 82.5965 119.315 78.9141C125.478 75.2317 129.905 70.6451 133.458 64.2585C137.012 57.88 138.63 51.6331 138.638 44.2683Z" fill="#92B1D8"/>
<path id="Vector_2" fill-rule="evenodd" clip-rule="evenodd" d="M157.469 87.6598C160.69 81.5197 162.141 75.5769 162.141 68.5902C162.141 61.2336 160.531 54.9867 156.977 48.6165C153.757 42.8298 149.862 38.5967 144.436 34.9883C145.079 38.2433 145.357 41.0462 145.357 44.3751C145.357 53.0058 143.461 60.3377 139.296 67.8093C135.132 75.281 129.952 80.6484 122.742 84.9637C115.532 89.2791 108.448 91.2436 100.127 91.2436C100.088 91.2436 100.064 91.2436 100.024 91.2436C96.875 91.2353 94.2098 90.9476 91.1162 90.2901C94.6302 95.8877 98.7073 99.9071 104.292 103.244C110.431 106.91 116.444 108.603 123.535 108.636C130.27 108.636 135.989 107.132 141.898 103.795L157.866 108.505C158.183 108.603 158.461 108.636 158.786 108.636C159.405 108.636 159.928 108.497 160.467 108.176C160.999 107.855 161.388 107.453 161.697 106.902C162.006 106.343 162.149 105.801 162.149 105.159C162.149 104.822 162.109 104.535 162.014 104.206L157.469 87.6598Z" fill="#92CDC8"/>
</g>
</g>
</g>
</g>
</g>
</g>
</g>
<g id="add-reaction 2">
<path id="Vector_3" d="M104.217 43.2154C104.734 43.2154 105.173 43.0278 105.535 42.6525C105.897 42.2782 106.078 41.8232 106.078 41.2875C106.078 40.7517 105.897 40.2967 105.535 39.9225C105.173 39.5472 104.734 39.3595 104.217 39.3595C103.7 39.3595 103.261 39.5472 102.9 39.9225C102.538 40.2967 102.357 40.7517 102.357 41.2875C102.357 41.8232 102.538 42.2782 102.9 42.6525C103.261 43.0278 103.7 43.2154 104.217 43.2154ZM96.0309 43.2154C96.5478 43.2154 96.9869 43.0278 97.3481 42.6525C97.7103 42.2782 97.8914 41.8232 97.8914 41.2875C97.8914 40.7517 97.7103 40.2967 97.3481 39.9225C96.9869 39.5472 96.5478 39.3595 96.0309 39.3595C95.5139 39.3595 95.0748 39.5472 94.7136 39.9225C94.3514 40.2967 94.1703 40.7517 94.1703 41.2875C94.1703 41.8232 94.3514 42.2782 94.7136 42.6525C95.0748 43.0278 95.5139 43.2154 96.0309 43.2154ZM100.124 50.5417C101.364 50.5417 102.507 50.2096 103.55 49.5454C104.594 48.8811 105.416 47.9814 106.015 46.8462H94.2328C94.8322 47.9814 95.6538 48.8811 96.6977 49.5454C97.7416 50.2096 98.8837 50.5417 100.124 50.5417ZM100.124 56.7112C98.4908 56.7112 96.9507 56.3899 95.504 55.7473C94.0572 55.1046 92.791 54.2208 91.7055 53.0959C90.6199 51.971 89.767 50.659 89.1468 49.1598C88.5266 47.6606 88.2166 46.0647 88.2166 44.3722C88.2166 42.6581 88.5266 41.0566 89.1468 39.5677C89.767 38.0798 90.6199 36.7734 91.7055 35.6485C92.791 34.5236 94.0572 33.6398 95.504 32.9972C96.9507 32.3545 98.4908 32.0332 100.124 32.0332C101.778 32.0332 103.324 32.3545 104.761 32.9972C106.196 33.6398 107.457 34.5236 108.543 35.6485C109.628 36.7734 110.481 38.0798 111.101 39.5677C111.721 41.0566 112.032 42.6581 112.032 44.3722C112.032 46.0647 111.721 47.6606 111.101 49.1598C110.481 50.659 109.628 51.971 108.543 53.0959C107.457 54.2208 106.196 55.1046 104.761 55.7473C103.324 56.3899 101.778 56.7112 100.124 56.7112ZM100.124 54.3977C102.811 54.3977 105.095 53.4229 106.977 51.4733C108.858 49.5238 109.799 47.1567 109.799 44.3722C109.799 41.5877 108.858 39.2207 106.977 37.2711C105.095 35.3216 102.811 34.3468 100.124 34.3468C97.4369 34.3468 95.1527 35.3216 93.2713 37.2711C91.3899 39.2207 90.4492 41.5877 90.4492 44.3722C90.4492 47.1567 91.3899 49.5238 93.2713 51.4733C95.1527 53.4229 97.4369 54.3977 100.124 54.3977Z" fill="white"/>
</g>
</g>
<path id="Ellipse 59" d="M25.3595 68.3319C25.3595 74.5915 20.4981 79.4207 14.7984 79.4207C9.09868 79.4207 4.2373 74.5915 4.2373 68.3319C4.2373 62.0724 9.09868 57.2432 14.7984 57.2432C20.4981 57.2432 25.3595 62.0724 25.3595 68.3319Z" stroke="#84D48C" stroke-width="8"/>
<path id="Polygon 3" d="M185.194 37.5376L200.972 18.0531L209.367 41.9544L185.194 37.5376Z" stroke="#61DAFB" stroke-width="8"/>
<path id="Polygon 4" d="M30.6259 163.885L34.8886 138.834L53.6934 155.185L30.6259 163.885Z" stroke="#9172B9" stroke-width="8"/>
<g id="spring 1">
<g id="Group_5">
<g id="Group_6">
<g id="container-id1_2">
<g id="id1_2">
<g id="Group_7">
<g id="Group_8">
<g id="id3_2">
<path id="Vector_4" fill-rule="evenodd" clip-rule="evenodd" d="M182.337 163.293C182.236 163.22 179.965 161.429 178.145 158.756C175.601 155.01 175.191 151.372 176.97 148.232C177.507 147.276 178.534 146.22 180.465 145.809C179.993 143.821 180.047 141.872 180.877 140.163C181.481 138.913 182.845 137.447 185.893 137.11C184.953 134.602 184.555 131.765 185.574 128.984C186.511 126.442 188.451 124.79 191.249 124.128C190.336 120.887 190.818 118.065 192.662 115.932C195.224 112.968 199.909 113.021 206.582 116.093C211.287 118.261 215.255 121.146 215.424 121.269C215.924 121.632 216.043 122.347 215.692 122.865C215.342 123.384 214.649 123.51 214.149 123.147L214.145 123.145C214.016 123.051 210.112 120.231 205.653 118.18C201.748 116.387 196.612 114.804 194.313 117.466C192.933 119.064 192.65 121.201 193.471 123.821C193.478 123.82 193.482 123.823 193.484 123.819C197.11 123.633 201.655 124.781 205.961 126.971C210.24 129.154 213.425 131.907 214.686 134.535C215.627 136.489 215.482 138.384 214.285 139.871C213.494 140.855 211.944 141.911 209.068 141.363C206.066 140.787 202.345 138.604 198.853 135.372C195.802 132.554 193.389 129.326 192.043 126.3C189.809 126.748 188.336 127.922 187.644 129.801C186.833 132.016 187.214 134.567 188.302 137.076C194.263 137.501 202.633 141.355 204.827 145.832C205.617 147.44 205.527 149.069 204.577 150.412C203.845 151.451 201.932 152.804 197.378 150.235C194.007 148.337 190.449 144.934 188.094 141.362C187.689 140.743 187.28 140.067 186.898 139.341C185.375 139.389 183.551 139.766 182.859 141.19C182.195 142.565 182.319 144.169 182.728 145.637C182.856 145.643 182.992 145.648 183.124 145.657C188.239 146.016 195.836 149.982 197.596 154.363C198.247 155.988 198.029 157.574 196.977 158.83C195.464 160.642 192.709 160.375 189.417 158.093C186.278 155.921 182.85 152.025 181.19 148.011C180.247 148.161 179.358 148.551 178.886 149.392C175.65 155.107 183.588 161.397 183.67 161.463C184.159 161.842 184.257 162.561 183.89 163.068C183.526 163.563 182.854 163.668 182.369 163.316L182.337 163.293ZM183.649 148.012C183.807 148.339 183.963 148.633 184.11 148.896C185.674 151.681 188.178 154.471 190.645 156.186C192.799 157.68 194.625 158.127 195.302 157.322C195.804 156.72 195.879 156.076 195.546 155.243C194.318 152.183 188.38 148.629 183.649 148.012ZM198.431 148.214C200.517 149.391 202.305 149.735 202.79 149.052C203.075 148.648 203.396 147.978 202.853 146.867C202.032 145.2 199.674 143.296 196.544 141.779C194.25 140.662 191.792 139.876 189.597 139.53C191.839 143.163 195.303 146.455 198.431 148.214ZM209.472 139.102C210.934 139.384 211.984 139.148 212.585 138.401C212.981 137.903 213.43 137.07 212.702 135.557C210.688 131.366 201.498 126.144 194.406 126.095C197.48 132.233 204.84 138.214 209.472 139.102Z" fill="#D8D128"/>
</g>
</g>
</g>
</g>
</g>
</g>
</g>
</g>
</g>
</svg>
