<svg xmlns="http://www.w3.org/2000/svg" height="20" width="20"><path d="M12.083 13.333 9.25 10.5v-4h1.5v3.375l2.396 2.396ZM9.25 5V3.5h1.5V5ZM15 10.75v-1.5h1.5v1.5ZM9.25 16.5V15h1.5v1.5ZM3.5 10.75v-1.5H5v1.5ZM10 18q-1.646 0-3.104-.625-1.458-.625-2.552-1.719t-1.719-2.552Q2 11.646 2 10q0-1.667.625-3.125t1.719-2.542Q5.438 3.25 6.896 2.625T10 2q1.667 0 3.125.625t2.542 1.708q1.083 1.084 1.708 2.542Q18 8.333 18 10q0 1.646-.625 3.104-.625 1.458-1.708 2.552-1.084 1.094-2.542 1.719Q11.667 18 10 18Zm0-1.5q2.729 0 4.615-1.896Q16.5 12.708 16.5 10q0-2.729-1.885-4.615Q12.729 3.5 10 3.5q-2.708 0-4.604 1.885Q3.5 7.271 3.5 10q0 2.708 1.896 4.604T10 16.5Zm0-6.5Z"/></svg>