<svg width="31" height="49" viewBox="0 0 31 49" fill="none" xmlns="http://www.w3.org/2000/svg">
<g id="circle-line 1" clip-path="url(#clip0_1435_6)">
<g id="Group">
<path id="Vector" d="M22.8055 48.9774C22.7041 48.9698 22.355 48.9468 22.0359 48.9238C21.3827 48.8741 20.5231 48.7707 19.8211 48.6521C18.0717 48.3611 15.8944 47.6874 14.1901 46.9141C13.2178 46.47 11.8026 45.6891 10.9504 45.1225C10.5525 44.8584 9.36621 43.9703 8.95327 43.6257C8.14241 42.9558 6.73841 41.5853 6.14904 40.8886C5.37572 39.9775 4.11437 38.2778 3.90415 37.8606C3.82907 37.7074 3.87036 37.7649 4.39217 38.5113C5.32316 39.8397 6.0214 40.6781 7.11006 41.7844C8.56661 43.2659 9.98562 44.3722 11.8626 45.4862C12.3319 45.7656 13.7096 46.47 14.3027 46.7303C16.2435 47.5917 18.2857 48.1314 20.8534 48.4721C21.6155 48.5717 23.5938 48.6099 24.7576 48.5449C28.5454 48.3305 32.5734 46.9371 35.8281 44.7167C37.2997 43.7138 38.0242 43.1089 39.2518 41.861C40.6257 40.4637 41.2226 39.7249 42.2512 38.1477C43.0358 36.9456 43.4938 36.0805 44.1695 34.5339C45.0517 32.5203 45.6786 30.1239 45.9451 27.7543C46.1666 25.7943 46.1478 23.6735 45.8926 21.7442C45.4045 18.0424 44.0869 14.4095 42.1311 11.3699C41.2526 10.011 40.4005 8.93525 39.2105 7.69877C37.9379 6.37424 36.7516 5.3751 35.3814 4.46018C32.2731 2.3815 28.8607 1.13354 25.0579 0.681816C24.4835 0.61291 21.1613 0.61291 20.5907 0.681816C17.5799 1.04166 15.1811 1.78432 12.482 3.19307C11.4046 3.7558 10.8228 4.11947 9.64776 4.96166C8.11988 6.05268 6.59576 7.49588 5.3119 9.06158C2.44009 12.5643 0.765811 16.6719 0.202712 21.591C0.165172 21.9164 0.127632 22.1423 0.120124 22.0887C0.0750762 21.7939 0.405428 19.5621 0.660699 18.4137C0.777073 17.8892 1.02108 16.9743 1.18626 16.4422C1.47532 15.512 2.03841 14.0228 2.29369 13.5137C3.18714 11.7451 3.40862 11.3508 3.93794 10.566C4.34337 9.96119 5.13171 8.89697 5.49209 8.46439C5.91629 7.95525 7.58306 6.25557 8.10862 5.79619C9.07715 4.95018 10.2859 4.06588 11.4985 3.31939C12.1742 2.8983 13.9348 2.00252 14.6218 1.72307C15.6204 1.31346 16.9793 0.869395 18.113 0.578457C18.8 0.402363 20.2303 0.168848 21.2288 0.0693164C21.9008 0.00423828 24.7989 0.00423828 25.377 0.0693164C28.3652 0.41002 31.0192 1.17182 33.4105 2.37768C35.5766 3.46486 37.3109 4.66689 38.9665 6.22111C41.3089 8.41846 42.9607 10.6273 44.2784 13.3223C45.7499 16.3235 46.4932 18.8578 46.8649 22.1461C47.0526 23.7654 47.045 26.2001 46.8498 27.7428C46.7447 28.5735 46.572 29.6071 46.4181 30.3383C45.7161 33.6649 44.0794 37.1983 41.9734 39.9278C40.896 41.3288 39.4357 42.818 38.1218 43.8554C34.3716 46.826 30.4073 48.4415 25.7149 48.9047C25.1405 48.9621 23.2335 49.0119 22.8055 48.9774Z" fill="black"/>
<path id="Vector_2" d="M21.5479 48.1547C20.5606 48.0896 18.9727 47.8484 17.9628 47.6187C15.29 47.0024 12.8424 45.9497 10.605 44.4529C9.28361 43.5686 8.2475 42.7149 7.11755 41.5818C5.44702 39.8974 4.12562 38.1327 3.05948 36.1573C2.6503 35.3994 2.5602 35.2501 2.51891 35.2769C2.50014 35.2845 2.47762 35.2692 2.46635 35.2424C2.45509 35.2118 2.4626 35.1812 2.48888 35.1697C2.51516 35.162 2.4138 34.8941 2.2261 34.4691C2.06092 34.094 1.89199 33.6959 1.85445 33.5848C1.79814 33.4202 1.77562 33.3934 1.73057 33.4317C1.68552 33.47 1.68177 33.4623 1.70054 33.3743C1.73057 33.2556 1.59918 32.8537 1.51659 32.8192C1.44902 32.7924 1.31763 32.4249 1.30637 32.2259C1.29886 32.134 1.27634 32.0459 1.25006 32.023C1.22754 32.0038 1.15621 31.7971 1.08864 31.5636C1.02482 31.3339 0.938478 31.0391 0.900938 30.9128C0.863398 30.7865 0.822105 30.5989 0.803335 30.4917C0.788319 30.3884 0.754533 30.2467 0.728255 30.1816C0.578095 29.8141 0.135124 27.0694 0.116354 26.3956C0.105092 25.9898 0.0450279 25.117 0.0225039 25.0826C0.00748794 25.0558 0.0225039 25.0252 0.0525359 25.0137C0.0975838 24.9945 0.1126 24.9295 0.1126 24.7266C0.1126 24.4471 0.0525359 24.3629 0.0262579 24.6079L0.0112419 24.7495L0.00748794 24.5849C0.00373395 24.4969 0.0262579 24.3591 0.0600439 24.2787C0.0975838 24.1868 0.116354 24.0337 0.1126 23.8499C0.108846 23.693 0.116354 23.4518 0.127616 23.314C0.138878 23.1762 0.16891 22.8163 0.191434 22.5101C0.349101 20.2859 0.885922 17.8206 1.67051 15.7343C2.39878 13.7934 3.31476 12.0708 4.40717 10.5855C5.19926 9.50976 5.54838 9.0925 6.43433 8.16226C8.14239 6.3707 10.2521 4.80117 12.4557 3.67953C14.9296 2.42007 17.1032 1.73867 19.8211 1.37117C20.6807 1.25249 20.737 1.24867 22.0359 1.25632C24.705 1.27163 25.7711 1.39031 27.742 1.89562C31.0868 2.75695 34.1688 4.34945 36.7516 6.55828C40.2878 9.57867 42.7617 13.3915 44.1582 17.9929C44.6312 19.5395 44.9991 21.6105 45.123 23.3905C45.183 24.2634 45.1718 26.4913 45.1042 27.1842C44.7025 31.2535 43.4149 34.9668 41.2789 38.1862C39.7585 40.4755 37.8928 42.401 35.4489 44.1887C34.349 44.9965 32.3707 46.0645 30.8766 46.6541C29.405 47.2359 27.5693 47.7336 26.0152 47.9633C24.6412 48.17 22.8806 48.2427 21.5479 48.1547ZM24.2883 47.6953C25.4896 47.592 26.4581 47.4197 27.742 47.0828C29.5402 46.612 30.7302 46.1564 32.2843 45.3525C35.2725 43.8021 37.7126 41.7196 39.7585 38.971C41.4478 36.7009 42.6453 34.2701 43.4149 31.5368C43.8391 30.0362 44.0268 28.9873 44.2295 26.989C44.2896 26.4033 44.2858 24.0413 44.2258 23.3255C44.0118 20.8755 43.4637 18.4637 42.6228 16.297C42.3826 15.6807 41.7256 14.2796 41.3465 13.5791C39.7398 10.6199 37.4348 7.99382 34.6869 6.00703C32.0028 4.06234 28.8382 2.70335 25.7336 2.15976C24.187 1.89179 23.9617 1.87265 22.0359 1.86499C20.1589 1.85734 20.0426 1.86499 18.5447 2.10999C15.9995 2.52726 13.428 3.48429 11.0367 4.9007C10.0307 5.49789 8.60413 6.53914 7.68816 7.34687C6.52817 8.36898 5.2368 9.81984 4.26452 11.1865C3.41987 12.3809 2.45885 14.1609 1.87698 15.6194C1.21252 17.2809 0.649421 19.4859 0.409165 21.3502C0.251498 22.5905 0.176418 24.9218 0.259006 26.1736C0.416673 28.6236 1.14119 31.7244 2.09095 33.9906C2.28616 34.4538 2.84175 35.5984 3.1233 36.1152C4.26076 38.1901 5.66476 40.0123 7.45166 41.7311C10.0081 44.1926 13.4168 46.1258 16.7616 47.0101C18.3533 47.435 19.96 47.6877 21.3227 47.7336C22.3025 47.768 23.6539 47.7489 24.2883 47.6953ZM1.46028 32.4977C1.41148 32.3675 1.37019 32.2756 1.36268 32.2986C1.34391 32.3484 1.50158 32.7809 1.52786 32.758C1.53536 32.7465 1.50533 32.6316 1.46028 32.4977ZM0.138878 25.6032C0.127616 25.5726 0.116354 25.5841 0.116354 25.6262C0.1126 25.6683 0.123862 25.6912 0.135124 25.6759C0.146386 25.6645 0.15014 25.63 0.138878 25.6032Z" fill="black"/>
<path id="Vector_3" d="M20.5531 47.3121C20.4292 47.2968 20.0163 47.247 19.6333 47.201C18.8938 47.1168 17.9703 46.9637 17.6625 46.8795C17.5611 46.8489 17.3321 46.7953 17.1557 46.7608C15.9432 46.5235 13.8897 45.7693 12.4595 45.0382C7.68063 42.592 3.91913 38.3925 1.91449 33.2667C1.3101 31.7201 0.870882 30.0855 0.585579 28.2901C0.424157 27.291 0.390371 26.9579 0.334061 25.821C0.213933 23.4246 0.416649 21.1851 0.942208 19.0452C1.41897 17.1082 1.83566 15.9329 2.61649 14.3366C3.19836 13.1499 3.66761 12.3728 4.39213 11.3698C5.98382 9.18393 7.78949 7.44596 9.98558 5.98745C12.8161 4.11166 16.1647 2.89049 19.4832 2.53065C20.6319 2.40432 21.454 2.39284 23.0682 2.49237C26.2028 2.67994 29.6678 3.79393 32.5095 5.52424C33.2791 5.9951 34.4616 6.84112 35.1561 7.42299C37.66 9.52081 39.5708 11.9555 41.0086 14.884C43.2497 19.4433 43.9442 24.7989 42.9456 29.7716C42.833 30.3152 42.5665 31.3603 42.3638 32.0225C41.6468 34.3768 40.5168 36.6239 39.0302 38.649C37.3372 40.965 34.9609 43.1203 32.6522 44.4371C31.984 44.82 30.6588 45.4937 30.1671 45.6966C28.3426 46.4584 26.5144 46.9522 24.5886 47.1972C23.6276 47.3197 21.1237 47.3925 20.5531 47.3121ZM23.8941 46.8374C29.3975 46.1904 34.4466 43.3614 37.8477 39.028C39.2029 37.2977 40.194 35.5635 41.0274 33.4696C41.7894 31.5478 42.2737 29.4768 42.4726 27.2757C42.6491 25.3386 42.5402 23.0724 42.1723 21.1124C41.5229 17.6517 40.0288 14.2524 37.9566 11.5229C36.8341 10.0414 35.3175 8.51401 33.8385 7.38088C33.3167 6.97893 32.213 6.23245 31.6461 5.89557C29.1572 4.42174 26.2028 3.45323 23.1621 3.11252C22.2949 3.01682 20.02 3.01682 19.2016 3.11252C16.8892 3.38815 14.9409 3.92791 12.8611 4.86963C10.3047 6.0219 8.05227 7.64502 6.13023 9.71604C4.62863 11.3392 3.68262 12.7096 2.68406 14.7194C1.55786 16.978 0.814572 19.6156 0.548039 22.2991C0.131345 26.4258 0.773278 30.4492 2.45131 34.2505C3.17583 35.8889 4.01673 37.2824 5.25179 38.8825C5.83366 39.6328 7.69189 41.5507 8.4089 42.1364C9.93678 43.3844 11.4872 44.3453 13.2328 45.1262C14.1337 45.532 14.4829 45.666 15.1286 45.8727C16.5776 46.3359 17.6663 46.5809 19.2767 46.7991C19.8586 46.8795 20.0726 46.8871 21.6605 46.891C22.9932 46.8948 23.5225 46.8795 23.8941 46.8374ZM39.1166 12.3115C39.1166 12.3 39.1016 12.2809 39.079 12.2694C39.0603 12.2579 39.0415 12.2656 39.0415 12.2847C39.0415 12.3077 39.0603 12.3268 39.079 12.3268C39.1016 12.3268 39.1166 12.3192 39.1166 12.3115Z" fill="black"/>
<path id="Vector_4" d="M19.8587 46.4699C18.7475 46.378 17.5124 46.1828 16.604 45.957C13.3342 45.1339 10.6314 43.7405 8.01482 41.5316C7.53431 41.1259 5.86754 39.4223 5.58224 39.0472C5.46211 38.8902 5.28192 38.6567 5.1768 38.5304C4.95907 38.2663 4.33591 37.3781 3.94549 36.7809C2.48519 34.5415 1.33647 31.4752 0.848449 28.516C0.600686 27.0307 0.593178 26.9005 0.574408 25.0171C0.559392 23.3098 0.559392 23.2294 0.656996 22.3757C0.844695 20.676 1.11498 19.3898 1.603 17.8585C2.56027 14.8496 3.94925 12.4609 6.09278 10.1295C8.76938 7.22398 12.4858 5.06109 16.3675 4.15383C17.7752 3.82461 18.8901 3.67148 20.129 3.64852C22.982 3.58727 25.1068 3.92797 27.7195 4.86969C29.9907 5.68508 32.1718 6.97133 34.0863 8.61359C34.7282 9.16484 36.1735 10.6348 36.6691 11.2397C38.287 13.2188 39.4583 15.286 40.3367 17.7054C40.9937 19.5161 41.279 20.7258 41.5605 22.8734C41.6769 23.7538 41.7107 26.5407 41.6168 27.3944C41.3841 29.4845 41.0012 31.1995 40.393 32.8648C39.387 35.6095 37.8441 38.117 35.907 40.1535C34.6907 41.4321 33.5195 42.4159 32.2469 43.2313C30.6514 44.2534 29.4201 44.8621 27.8134 45.421C26.1466 45.9991 24.5211 46.3436 22.8393 46.4738C22.235 46.5197 20.4405 46.5159 19.8587 46.4699ZM22.6742 46.0144C24.6375 45.8345 26.1504 45.4784 28.0424 44.7511C30.6852 43.7328 33.069 42.1365 35.0999 40.0195C37.0069 38.0327 38.4072 35.843 39.4207 33.2744C40.393 30.8014 40.881 28.1868 40.881 25.442C40.881 23.5548 40.7008 22.0809 40.2391 20.1937C39.4846 17.0929 38.0167 14.1452 35.9933 11.6684C35.5053 11.0674 34.1314 9.66633 33.5232 9.14188C30.4712 6.51961 26.8636 4.88883 22.9369 4.36055C21.8746 4.21508 19.3819 4.19594 18.3946 4.32609C15.4853 4.70508 13.1503 5.4975 10.6238 6.9675C9.70787 7.49961 8.65676 8.25375 7.69573 9.06914C7.18144 9.50172 5.96139 10.7344 5.51091 11.2741C3.17217 14.0725 1.65931 17.3723 1.03615 21.0359C0.788385 22.5097 0.713305 23.3787 0.713305 24.8602C0.713305 26.3493 0.777123 27.1877 0.976085 28.3935C1.39278 30.8933 2.00468 32.815 3.01826 34.8171C4.06187 36.8766 5.1768 38.4232 6.83232 40.1191C8.81067 42.1441 10.8716 43.5299 13.582 44.6516C15.4215 45.4134 17.7452 45.9378 19.8774 46.068C20.2791 46.0948 22.2312 46.0565 22.6742 46.0144Z" fill="black"/>
<path id="Vector_5" d="M19.2392 45.5938C18.6911 45.5593 18.2444 45.5019 17.5311 45.3794C15.5452 45.0348 14.0324 44.5448 12.2004 43.6644C11.2206 43.1897 10.864 42.983 9.78662 42.2556C6.53941 40.0659 3.85906 36.701 2.41002 32.9954C1.69676 31.177 1.25004 29.3663 0.99101 27.2762C0.912176 26.6292 0.87839 24.5199 0.9347 23.4863C1.10363 20.2477 2.08718 17.0168 3.76521 14.2031C4.56106 12.8671 5.63845 11.5005 6.73087 10.4286C10.3722 6.86844 15.2299 4.82805 20.0651 4.82422C23.2522 4.82422 25.9776 5.48648 28.9057 6.9718C31.2144 8.1432 33.1515 9.65531 34.8933 11.6383C37.4611 14.5706 39.1691 18.2418 39.7885 22.1656C40.0325 23.693 40.0964 24.9678 40.0213 26.6063C39.8599 30.1281 38.7111 33.7572 36.8454 36.6359C35.5953 38.5653 33.8572 40.4679 32.2092 41.712C30.6138 42.9141 28.8531 43.8864 27.2352 44.4568C25.5459 45.054 24.5924 45.2952 23.2184 45.4827C22.2912 45.6091 20.3729 45.6627 19.2392 45.5938ZM22.8167 45.0425C24.3183 44.8358 25.3357 44.5755 26.6946 44.0625C28.6992 43.3007 30.336 42.3934 31.7963 41.2335C32.9412 40.3263 34.2664 38.9902 35.1561 37.8495C36.2936 36.3909 37.3597 34.4654 38.0091 32.693C38.8313 30.4459 39.2104 28.4438 39.2555 26.1086C39.293 24.0452 39.1316 22.5063 38.6811 20.6382C38.2907 19.0227 37.5549 17.1048 36.7741 15.677C36.4587 15.0951 35.7117 13.9313 35.3063 13.3801C34.2927 12.0058 32.8887 10.5473 31.5898 9.51367C30.4298 8.58727 28.6242 7.51156 27.3103 6.96031C26.2291 6.50477 24.8927 6.06453 23.9129 5.8425C21.8369 5.37547 19.4119 5.28359 17.3246 5.59367C13.9498 6.09516 10.6838 7.55367 8.08981 9.72039C6.50938 11.0373 5.30059 12.4001 4.21944 14.0691C2.70659 16.412 1.69301 19.1835 1.28007 22.1082C1.13366 23.1418 1.11114 23.5705 1.10738 25.0559C1.10738 26.901 1.18622 27.7815 1.48654 29.2094C2.27488 32.9609 3.77647 36.012 6.1565 38.7184C9.2085 42.1867 13.1389 44.3228 17.7038 45.0004C18.6686 45.1459 19.104 45.1688 20.6845 45.1535C21.9571 45.1459 22.1635 45.1344 22.8167 45.0425Z" fill="black"/>
<path id="Vector_6" d="M18.4697 44.6897C15.3388 44.3873 12.3807 43.323 9.77917 41.5621C8.21 40.4979 6.52445 38.9016 5.34195 37.355C4.7338 36.5626 3.98675 35.372 3.49874 34.4227C3.21343 33.8599 3.11958 33.6494 2.73292 32.6923C2.16607 31.2836 1.69682 29.5341 1.48659 28.022C1.32142 26.8545 1.29514 26.4563 1.30265 25.0744C1.30265 24.3279 1.32517 23.5508 1.3477 23.3517C1.50161 21.9277 1.53915 21.6712 1.71183 20.8634C1.82445 20.3237 2.03092 19.5198 2.18484 19.0068C2.49642 17.9694 3.37485 15.9749 3.90792 15.083C3.99051 14.9452 4.14818 14.6887 4.25704 14.5049C4.85017 13.5173 6.16032 11.9439 7.26024 10.9065C7.79706 10.3935 8.45025 9.87289 9.29115 9.2757C11.7838 7.51094 14.7419 6.40461 17.9629 6.04094C18.5673 5.97203 20.7821 5.97203 21.3415 6.04094C24.5962 6.43906 27.3403 7.44969 29.8743 9.17617C30.8353 9.83078 30.9705 9.93414 31.74 10.6079C35.434 13.8273 37.8253 18.4479 38.3808 23.4283C38.6173 25.5452 38.5235 27.4784 38.0655 29.783C37.7689 31.2759 37.2021 32.9412 36.5226 34.3002C35.8507 35.6515 35.2575 36.597 34.4016 37.688C32.1755 40.5323 29.1798 42.6799 25.9026 43.7901C24.5549 44.2456 23.0157 44.5748 21.7732 44.6744C21.349 44.7088 18.7888 44.7165 18.4697 44.6897ZM20.9098 44.2533C22.1223 44.2035 22.8055 44.1002 24.0631 43.7748C25.4596 43.4188 26.2705 43.1202 27.4229 42.5536C29.3863 41.5813 30.9329 40.4634 32.4533 38.913C33.5269 37.8182 34.2852 36.8305 35.1562 35.3912C35.937 34.1049 36.7892 32.0224 37.1608 30.4912C37.6338 28.5465 37.7539 27.3866 37.7164 25.1127C37.6939 23.7192 37.6413 23.1948 37.386 21.943C37.0144 20.1016 36.6015 18.8537 35.8319 17.2382C34.8521 15.1863 33.7672 13.6474 32.0591 11.9018C30.4449 10.2519 28.4478 8.90438 26.2029 7.95117C25.0579 7.465 23.53 7.01328 22.3175 6.79508C21.2776 6.61133 19.4194 6.50797 18.3946 6.5807C16.2435 6.73 14.3253 7.19703 12.3769 8.04305C7.32781 10.2404 3.53628 14.7193 2.15856 20.1131C1.88452 21.185 1.71183 22.1229 1.58795 23.1795C1.49035 24.014 1.4941 26.3415 1.58795 27.1798C2.02342 30.962 3.26599 34.2083 5.31567 36.9263C6.81351 38.913 8.55161 40.5094 10.5675 41.7459C12.91 43.1814 16.0221 44.1461 18.6386 44.2495C19.701 44.2916 19.9825 44.2916 20.9098 44.2533Z" fill="black"/>
<path id="Vector_7" d="M17.8126 43.7713C16.8816 43.6679 15.7141 43.4421 14.862 43.2009C11.9226 42.3587 9.45996 40.9117 7.24886 38.722C6.38169 37.8645 5.53704 36.8539 5.00022 36.0346C3.35597 33.531 2.43249 31.1117 1.93321 28.0032C1.72674 26.7017 1.70797 23.9799 1.89567 22.6439C2.19599 20.5307 2.68776 18.8923 3.58496 17.0089C4.51971 15.045 5.67969 13.4525 7.32019 11.883C10.3647 8.96979 14.5091 7.228 18.6197 7.13229C19.7534 7.10932 20.6619 7.15909 21.6417 7.30839C22.5239 7.44237 22.7341 7.48831 23.6125 7.73331C24.9602 8.11612 25.7485 8.41471 26.7659 8.93534C28.793 9.97276 30.3209 11.1097 31.8338 12.6946C34.7093 15.7111 36.4437 19.5163 36.9242 23.8689C37.0068 24.6039 37.033 26.1964 36.9805 26.9505C36.7215 30.5681 35.5352 33.8717 33.493 36.6739C32.99 37.363 32.6934 37.7114 31.9839 38.4464C31.2068 39.2579 30.6362 39.7862 30.0356 40.2456C27.3215 42.351 24.1531 43.5722 20.8421 43.7942C20.0425 43.8478 18.402 43.8364 17.8126 43.7713ZM21.1424 43.2928C21.8857 43.2085 22.9593 43.0133 23.5562 42.8564C24.0855 42.7147 25.2005 42.3319 25.7298 42.106C26.7358 41.6735 27.6593 41.1605 28.7292 40.4332C30.3472 39.3421 31.5635 38.1554 32.8436 36.4442C33.5268 35.5293 33.891 34.9245 34.4841 33.7186C34.9421 32.7846 35.0735 32.4707 35.3437 31.64C35.8167 30.1967 36.0645 29.0024 36.2334 27.4099C36.3048 26.7017 36.2935 24.7187 36.2147 23.9646C35.8956 21.0131 35.0397 18.5018 33.508 16.0021C31.5372 12.7903 28.3013 10.0991 24.8251 8.7937C22.6853 7.98596 21.0148 7.69503 18.5484 7.69503C17.4259 7.69503 15.9994 7.89409 14.7944 8.21565C10.0005 9.50573 6.04383 12.752 3.87027 17.1811C3.27338 18.4023 2.89047 19.4589 2.53009 20.9021C2.22977 22.1003 2.09463 23.0841 2.02706 24.5082C1.95573 26.0394 2.09087 27.7774 2.38744 29.1517C2.99934 31.973 4.05046 34.312 5.72849 36.5821C6.26907 37.3132 7.59047 38.7067 8.36004 39.3613C10.8227 41.4514 13.6719 42.7453 16.8741 43.22C17.9815 43.3885 20.035 43.4229 21.1424 43.2928Z" fill="black"/>
<path id="Vector_8" d="M17.456 42.8373C16.2622 42.7569 14.13 42.2325 12.9362 41.7234C11.795 41.2334 10.9353 40.7701 9.98556 40.127C9.15217 39.5681 8.76926 39.2619 8.02597 38.5843C7.04243 37.6847 6.16024 36.697 5.61966 35.8893C4.84259 34.7294 4.55728 34.247 4.18564 33.4776C3.48364 32.0191 3.21711 31.2879 2.84171 29.7643C2.45505 28.1986 2.39123 27.766 2.32366 26.3152C2.26359 24.937 2.33867 23.4709 2.53388 22.3377C3.09698 19.0379 4.55353 16.0098 6.74586 13.5828C8.05976 12.1281 9.79035 10.8304 11.6148 9.93078C13.1652 9.16515 14.8958 8.63687 16.6602 8.38421C17.2383 8.30382 18.5672 8.22726 19.0327 8.25023C20.767 8.33445 21.8369 8.50671 23.2409 8.92398C24.491 9.29148 26.0114 9.95375 26.9874 10.5586C29.0859 11.8487 30.7526 13.3684 32.1416 15.2557C34.1988 18.0579 35.4226 21.53 35.5503 24.96C35.6629 27.9038 35.2537 30.216 34.1688 32.7694C33.6995 33.8719 33.4142 34.4155 32.8023 35.3457C32.059 36.4827 31.5297 37.1373 30.5086 38.1709C29.878 38.8102 29.48 39.1547 28.7518 39.6983C26.5144 41.3559 24.2207 42.3244 21.5479 42.7455C20.9284 42.845 20.8083 42.8488 19.4081 42.8603C18.5935 42.8641 17.715 42.8526 17.456 42.8373ZM20.8346 42.3626C22.355 42.1674 23.4249 41.888 24.8213 41.3137C26.2216 40.7357 27.1563 40.1998 28.4064 39.2466C31.0905 37.2023 33.0651 34.4193 34.105 31.219C35.0284 28.367 35.2011 25.3926 34.608 22.4526C34.1463 20.171 33.3617 18.2684 32.0478 16.251C31.4471 15.3284 30.9666 14.7351 30.0356 13.7666C28.1999 11.8602 26.0001 10.4705 23.4061 9.57476C22.6478 9.31445 21.3564 9.01968 20.4404 8.90101C19.8435 8.82445 18.0454 8.7632 17.6812 8.80531C17.5273 8.82445 17.182 8.8589 16.9117 8.8857C14.145 9.13453 11.138 10.3748 8.79554 12.2391C7.38404 13.3608 5.95752 14.9762 5.02278 16.519C3.85529 18.4445 2.98811 20.9558 2.72158 23.1991C2.56767 24.4777 2.55265 26.2309 2.68404 27.3334C3.0219 30.2045 3.92661 32.7885 5.37941 35.0088C6.02885 36.0003 6.62198 36.7315 7.50417 37.6349C8.8556 39.0092 10.0907 39.9241 11.7537 40.774C13.5481 41.6889 15.4852 42.2401 17.6062 42.4316C18.0304 42.4698 20.3879 42.4201 20.8346 42.3626Z" fill="black"/>
<path id="Vector_9" d="M17.4747 41.9524C15.2524 41.784 12.8573 41.026 10.9878 39.9005C9.53129 39.0239 8.49143 38.1779 7.32769 36.9299C6.08512 35.5939 5.4507 34.6636 4.63984 32.9793C3.61875 30.87 3.12322 29.0286 2.9618 26.7624C2.90549 25.9661 2.93928 24.0061 3.01811 23.3936C3.36723 20.7408 4.15557 18.5549 5.54079 16.4035C6.98608 14.1564 9.01699 12.3036 11.3745 11.0862C12.2604 10.6268 12.741 10.4201 13.5143 10.156C15.4288 9.50903 17.3771 9.24489 19.3142 9.37505C20.8684 9.47841 21.8294 9.67364 23.376 10.2058C25.193 10.8259 26.8034 11.76 28.4589 13.1496C29.1985 13.7736 30.2571 14.9105 30.9403 15.8101C31.2219 16.1815 31.8901 17.215 32.1416 17.6668C33.2227 19.6076 33.9172 21.7705 34.18 24.0215C34.3076 25.0972 34.2889 27.0189 34.1387 28.1176C33.7558 30.9274 32.5958 33.7602 30.9553 35.8886C30.0318 37.083 28.4852 38.5607 27.3853 39.2995C26.3079 40.0192 24.7124 40.8422 23.7439 41.1715C22.7979 41.4968 21.6304 41.7686 20.7407 41.8758C19.7572 41.9945 18.4433 42.0251 17.4747 41.9524ZM20.5981 41.3858C21.6492 41.2404 22.2986 41.0796 23.4436 40.6853C25.0916 40.1226 26.4693 39.3378 27.9296 38.1434C29.5739 36.7959 30.8314 35.2608 31.7925 33.4233C32.3818 32.2979 32.7009 31.4825 33.0951 30.1082C33.6957 28.0027 33.8046 25.1584 33.3691 22.9228C32.8098 20.0364 31.5935 17.4907 29.7653 15.3737C27.5317 12.7897 24.8138 11.0786 21.743 10.3321C20.5718 10.045 19.7159 9.93013 18.4883 9.89185C17.5048 9.86505 16.7727 9.9263 15.6728 10.1292C14.7043 10.3091 14.5691 10.3436 13.8334 10.5886C11.9151 11.2317 10.4473 12.0318 8.95317 13.2491C6.01755 15.6417 4.06172 19.0947 3.45733 22.9687C3.31468 23.8913 3.28464 24.3392 3.28464 25.5718C3.28464 26.793 3.30717 27.1261 3.46108 28.1176C4.21939 33.1018 7.27514 37.4735 11.6185 39.7972C13.1764 40.6279 15.1773 41.2404 16.9116 41.4165C17.1406 41.4394 17.3846 41.4662 17.456 41.4739C17.5273 41.4815 18.1354 41.4854 18.8074 41.4777C19.791 41.47 20.1401 41.4509 20.5981 41.3858ZM28.3426 13.5515C28.3426 13.5324 28.3163 13.5133 28.2825 13.5133C28.2525 13.5133 28.2374 13.5324 28.2487 13.5515C28.26 13.5745 28.2862 13.5898 28.3088 13.5898C28.3275 13.5898 28.3426 13.5745 28.3426 13.5515Z" fill="black"/>
<path id="Vector_10" d="M17.5311 41.0153C17.137 40.9885 16.3449 40.8889 15.8794 40.8047C13.8409 40.4334 11.9339 39.6448 10.2296 38.4619C8.34885 37.1642 6.71587 35.3458 5.58216 33.3016C4.97401 32.2029 4.38839 30.6985 4.05053 29.3624C3.52873 27.2876 3.47242 24.65 3.90412 22.4335C4.47849 19.4821 5.94254 16.7258 8.03727 14.6395C9.43376 13.2499 10.6951 12.4038 12.5946 11.5693C13.3379 11.2439 13.7921 11.087 14.5429 10.8917C15.3275 10.6888 15.8568 10.5893 16.4612 10.5281C16.709 10.5051 17.0694 10.4668 17.2646 10.4477C17.7751 10.3903 19.4945 10.4706 20.234 10.5893C20.8909 10.6965 21.9308 10.9492 22.5802 11.1674C23.8003 11.5693 25.3169 12.3503 26.4356 13.1465C28.0048 14.2643 29.6302 15.9831 30.58 17.5335C31.7475 19.4285 32.4307 21.2583 32.7874 23.4288C32.93 24.294 32.9638 24.807 32.9638 26.0588C32.9638 27.2914 32.9112 27.8427 32.6935 28.9605C31.9953 32.5321 30.1821 35.5717 27.3891 37.8456C25.2869 39.5606 22.8505 40.598 20.1139 40.9425C19.6822 40.9961 18.0079 41.0421 17.5311 41.0153ZM19.8211 40.4793C23.2747 40.0697 26.2479 38.5423 28.5491 35.9966C30.3998 33.9562 31.4847 31.8622 32.0741 29.1902C32.4683 27.391 32.5171 25.3314 32.2055 23.4327C31.8714 21.3999 31.0493 19.306 29.8818 17.5335C28.9808 16.1631 27.5167 14.6242 26.2028 13.6671C25.0053 12.7905 23.5375 12.0555 22.0659 11.5846C18.8488 10.5625 15.2862 10.8075 12.2568 12.2622C10.9504 12.89 10.0644 13.4642 9.02833 14.3524C6.89606 16.1899 5.33815 18.659 4.54606 21.4574C4.3058 22.311 4.16315 23.046 4.05053 24.0222C3.98671 24.5773 3.98671 26.522 4.04678 27.1038C4.41842 30.4841 5.66475 33.3513 7.85708 35.8664C9.36619 37.5929 11.7087 39.1318 13.9611 39.8745C15.7705 40.4678 17.9778 40.6975 19.8211 40.4793Z" fill="black"/>
<path id="Vector_11" d="M17.5461 40.039C12.8762 39.817 8.66042 37.1526 6.27288 32.911C5.86745 32.1913 5.43198 31.2266 5.20299 30.5261C4.79005 29.2705 4.53103 28.0799 4.42967 26.9698C4.38087 26.4262 4.38087 24.8413 4.42967 24.2518C4.51601 23.2259 4.84261 21.7214 5.18797 20.7491C6.12272 18.1268 7.71066 15.9218 9.8617 14.2489C12.2192 12.4191 15.3463 11.397 18.2819 11.5003C20.4968 11.573 22.5652 12.1664 24.5511 13.2957C26.2178 14.2451 27.7908 15.6691 28.992 17.3229C30.3923 19.2523 31.3195 21.507 31.6499 23.7924C31.8 24.8337 31.815 27.0195 31.6799 28.0034C31.5748 28.7996 31.3008 29.9366 31.0305 30.7137C30.0845 33.4508 28.3163 35.8434 25.9851 37.5507C24.9377 38.3163 23.819 38.8944 22.4864 39.3614C21.5066 39.7059 20.1176 39.9777 19.1003 40.0237C18.845 40.0352 18.5297 40.0505 18.3945 40.0581C18.2594 40.062 17.8765 40.0543 17.5461 40.039ZM20.1889 39.415C21.7806 39.1164 22.6628 38.8293 23.8941 38.2053C25.5609 37.3631 26.9762 36.2338 28.1136 34.8442C29.7091 32.888 30.5875 30.9625 31.1093 28.2713L31.2144 27.7354V26.0127V24.2901L31.0905 23.6393C30.8015 22.1234 30.4899 21.1587 29.8442 19.8073C29.1122 18.2646 28.1286 16.9286 26.7922 15.6615C24.8551 13.8202 22.5464 12.6488 19.9637 12.1932C19.2204 12.063 17.5912 11.9865 16.8554 12.0516C15.2524 12.1932 13.5519 12.6909 12.0353 13.4641C10.2709 14.3599 8.42392 15.9869 7.29772 17.633C6.08518 19.4054 5.32312 21.3233 4.96649 23.5091C4.86513 24.1216 4.86138 24.1752 4.86138 25.6682C4.86138 27.1573 4.86513 27.2186 4.96649 27.8311C5.37943 30.3615 6.34045 32.6048 7.83454 34.5112C8.21745 35.005 9.1597 35.9773 9.72655 36.4673C10.9053 37.4933 12.4294 38.3584 14.0099 38.8982C14.9071 39.2045 15.5265 39.3461 16.7615 39.5222C16.8254 39.5298 17.5011 39.5337 18.2631 39.526C19.5883 39.5184 19.6784 39.5145 20.1889 39.415Z" fill="black"/>
<path id="Vector_12" d="M16.8178 39.0241C15.3875 38.8442 13.9647 38.4346 12.756 37.8604C11.3707 37.2019 10.2408 36.398 9.15587 35.2955C7.62049 33.7336 6.5506 31.9344 5.86362 29.7447C5.37935 28.2135 5.27424 27.3675 5.30427 25.285C5.31929 24.1748 5.33055 24.0064 5.42065 23.5049C5.69093 21.966 6.10763 20.7104 6.76833 19.4279C7.42153 18.1608 8.15731 17.1655 9.2272 16.1089C9.978 15.3701 10.5111 14.9529 11.3895 14.4131C12.9925 13.4331 14.19 12.9929 16.1045 12.6866C16.6188 12.6062 16.8065 12.5947 17.7375 12.5947C18.3907 12.5947 18.9801 12.6177 19.2992 12.6521C21.5065 12.8895 23.6613 13.8159 25.6397 15.3739C26.1577 15.7797 27.3815 17.0162 27.8095 17.5636C28.9319 18.9992 29.7465 20.6606 30.2871 22.6053C30.5874 23.6772 30.7301 25.0361 30.6963 26.4143C30.6663 27.6048 30.5236 28.5542 30.2195 29.6337C29.5288 32.0799 28.2111 34.2045 26.3304 35.9233C24.6073 37.4967 22.1935 38.6183 19.8022 38.9552C19.4043 39.0126 17.1331 39.0624 16.8178 39.0241ZM19.164 38.5111C21.6229 38.2738 23.7889 37.378 25.6772 35.8161C26.3567 35.2534 27.4904 34.0131 27.9296 33.3432C29.1046 31.5669 29.8141 29.7026 30.0956 27.6775C30.1444 27.3024 30.1595 26.9387 30.1595 25.974C30.1595 24.6036 30.1294 24.2858 29.9004 23.2331C29.206 20.0749 27.389 17.265 24.8138 15.3893C23.2934 14.2791 21.5778 13.5518 19.652 13.2034C19.0026 13.0847 16.998 13.0503 16.3185 13.1498C14.9708 13.3374 13.6719 13.747 12.5194 14.3442C11.2468 14.9988 10.3909 15.6266 9.39988 16.6334C7.35771 18.7082 6.20148 21.1085 5.79605 24.1174C5.71346 24.7299 5.7022 26.5368 5.77352 27.1607C5.97624 28.8413 6.36665 30.1505 7.1137 31.6588C7.77065 32.9795 8.42009 33.8906 9.45994 34.9548C10.0005 35.5099 10.4585 35.908 10.9653 36.2755C12.5082 37.3933 14.5278 38.2049 16.4086 38.4729C17.1218 38.5724 18.3456 38.5877 19.164 38.5111Z" fill="black"/>
<path id="Vector_13" d="M16.8741 38.0103C15.7516 37.8993 14.4565 37.5585 13.3453 37.0762C10.9165 36.0235 8.79172 33.9754 7.52287 31.4565C6.83965 30.0975 6.43422 28.7385 6.24276 27.1537C6.15642 26.434 6.15642 24.8683 6.24652 24.1754C6.57687 21.5761 7.74436 19.0457 9.44116 17.2695C10.5223 16.1364 11.3632 15.4932 12.5682 14.8769C13.9197 14.1878 15.1547 13.805 16.5738 13.6443C17.4146 13.5485 18.8487 13.583 19.5957 13.717C20.8345 13.939 21.7843 14.2644 22.933 14.8501C23.8603 15.3248 24.4684 15.7191 25.1892 16.3239C25.6096 16.6723 26.6532 17.748 26.9235 18.1078C27.7306 19.1835 28.0797 19.7578 28.5415 20.7875C29.0896 22.001 29.3674 23.0002 29.5888 24.52C29.6226 24.7496 29.6377 25.2473 29.6339 26.0129C29.6339 27.326 29.5813 27.7892 29.3148 28.8917C28.3463 32.915 25.5608 36.0962 21.8669 37.3939C21.0072 37.6964 19.9974 37.9184 19.0739 38.0141C18.6234 38.06 17.3621 38.0562 16.8741 38.0103ZM18.8449 37.5164C21.544 37.3212 23.9203 36.2149 25.8499 34.2472C26.4092 33.673 26.7959 33.2021 27.2614 32.5169C27.4228 32.2834 27.5767 32.0728 27.6067 32.0422C27.6405 32.0154 27.6668 31.9695 27.6668 31.9427C27.6668 31.9121 27.7757 31.6632 27.9108 31.3914C28.4739 30.2468 28.8756 29.0142 29.0558 27.8925C29.1459 27.3298 29.221 25.9632 29.1872 25.4387C29.1309 24.52 28.9807 23.5897 28.7555 22.7169C28.6916 22.4834 28.6428 22.246 28.6428 22.1886C28.6428 22.1312 28.6128 22.0432 28.579 21.9896C28.5452 21.936 28.3988 21.6106 28.2524 21.2699C27.603 19.7693 26.7246 18.4753 25.5984 17.3614C24.6599 16.435 23.7627 15.7957 22.6177 15.2329C21.5328 14.7008 20.4591 14.3601 19.2954 14.1802C18.7623 14.096 17.073 14.0807 16.5174 14.1572C14.5729 14.4252 12.8535 15.1296 11.2393 16.3278C10.6312 16.7795 9.55378 17.859 9.09955 18.4715C6.93725 21.3809 6.19396 24.8721 6.9823 28.44C7.75187 31.935 10.0944 34.9478 13.2252 36.4637C14.922 37.2868 16.8928 37.6543 18.8449 37.5164Z" fill="black"/>
<path id="Vector_14" d="M17.3623 37.0141C15.5791 36.8916 14.1451 36.4284 12.4783 35.4407C11.5361 34.8818 10.6013 34.032 9.63281 32.8567C8.79567 31.8346 8.06364 30.3952 7.63944 28.9291C7.32786 27.8381 7.23776 27.1184 7.23025 25.6675C7.2265 24.6684 7.23401 24.5038 7.31284 24.0252C7.80086 21.0891 9.09974 18.7692 11.2808 16.9547C12.4258 16.0015 13.9049 15.2588 15.3501 14.9105C16.2173 14.7038 16.5852 14.654 17.366 14.6349C19.4833 14.5813 20.8497 14.8837 22.6554 15.7986C24.5399 16.7595 26.2517 18.4477 27.3141 20.4038C28.0086 21.6863 28.4891 23.1869 28.6468 24.5765C28.7069 25.0971 28.7069 26.8198 28.6468 27.3174C28.3014 30.2842 26.7435 33.0902 24.4911 34.8129C22.7342 36.1527 20.8648 36.8686 18.725 37.0179C18.1319 37.06 17.9704 37.06 17.3623 37.0141ZM18.8827 36.482C20.8873 36.3212 22.8281 35.5479 24.401 34.277C24.8365 33.9209 25.6774 33.0558 26.0152 32.6156C27.1602 31.1073 27.8847 29.4114 28.1625 27.5931C28.2751 26.8466 28.2864 25.0703 28.1813 24.3851C27.9223 22.716 27.3029 21.1197 26.3456 19.6612C25.9552 19.0716 24.8102 17.8313 24.1946 17.3375C23.1247 16.4762 21.6944 15.7527 20.3617 15.4043C19.5171 15.1861 18.9052 15.1095 17.9817 15.1057C16.4989 15.1057 15.5303 15.2895 14.1714 15.8369C13.5595 16.0857 13.3305 16.1967 12.82 16.5106C11.0931 17.5634 9.73041 19.0716 8.84072 20.9206C8.28888 22.0652 8.00733 22.9802 7.80086 24.3277C7.73704 24.7449 7.73704 26.6667 7.80086 27.1222C8.07115 29.0516 8.7769 30.824 9.86931 32.3055C11.0218 33.875 12.4783 35.012 14.299 35.7738C15.0461 36.0877 15.932 36.3174 16.8743 36.4437C17.4749 36.5241 18.1882 36.5356 18.8827 36.482Z" fill="black"/>
<path id="Vector_15" d="M17.3434 35.9582C17.0055 35.9314 15.9995 35.7476 15.5903 35.6366C14.4453 35.338 13.2215 34.7332 12.313 34.0173C10.4961 32.5856 9.3624 30.9051 8.66791 28.6158C8.39012 27.6971 8.28125 26.8817 8.28125 25.7256C8.28125 24.1484 8.49147 23.0612 9.06583 21.6486C9.58013 20.3892 10.2333 19.4169 11.2694 18.3679C12.6584 16.963 14.3965 16.0558 16.3486 15.7151C17.959 15.4356 19.6483 15.5926 21.1912 16.1629C21.7769 16.3773 22.7266 16.8635 23.2559 17.2157C23.5037 17.3841 23.9091 17.6904 24.1569 17.9047C24.5811 18.2646 25.3394 19.0302 25.3394 19.0953C25.3394 19.1144 25.4295 19.2216 25.5421 19.3365C25.9888 19.8073 26.7547 21.1472 27.115 22.0889C27.4416 22.9387 27.6819 23.9455 27.7795 24.8719C27.8471 25.5074 27.8095 26.9927 27.7082 27.5861C27.2577 30.2619 25.7936 32.6813 23.7252 34.1743C22.4451 35.0969 20.7933 35.74 19.2354 35.9276C18.7962 35.9811 17.8014 35.9965 17.3434 35.9582ZM19.1303 35.4069C20.5043 35.2729 21.9158 34.7906 23.0607 34.0671C24.1231 33.3933 25.208 32.3023 25.9175 31.1922C27.3253 28.9872 27.7983 26.0586 27.1563 23.5053C26.5632 21.1472 25.2681 19.2063 23.3686 17.8205C21.4803 16.4462 19.0289 15.8146 16.8554 16.1361C15.8305 16.2893 15.0685 16.5343 14.0586 17.0358C11.3332 18.3794 9.44874 21.04 8.94571 24.2441C8.85186 24.8413 8.85186 26.6673 8.94571 27.253C9.32111 29.6073 10.6237 31.9233 12.3618 33.3359C13.8522 34.5494 15.5077 35.2385 17.3809 35.4222C17.6963 35.4567 18.7549 35.4452 19.1303 35.4069Z" fill="black"/>
<path id="Vector_16" d="M17.7902 34.9094C16.0446 34.806 14.3928 34.1859 12.9888 33.1025C12.5196 32.7388 11.6524 31.8507 11.2958 31.3722C10.4999 30.2888 9.92558 29.0141 9.63277 27.678C9.50513 27.0885 9.46384 26.698 9.43756 25.7448C9.41504 25.0328 9.42254 24.8759 9.49387 24.3859C9.58021 23.8116 9.73037 23.1609 9.81296 23.0269C9.83924 22.9848 9.86176 22.8929 9.86552 22.8202C9.87678 22.6402 10.0682 22.1617 10.3798 21.5339C10.7214 20.8448 11.0142 20.3663 11.3746 19.9108C11.7463 19.4399 12.3432 18.7968 12.407 18.7968C12.437 18.7968 12.4745 18.7738 12.4896 18.7432C12.5759 18.5863 13.5632 17.8627 14.0775 17.5795C14.8508 17.1545 15.8231 16.8215 16.8066 16.653C17.3247 16.5612 18.6686 16.542 19.2392 16.6148C19.8474 16.6913 20.8872 16.9823 21.4916 17.2464C22.7117 17.7747 23.928 18.6858 24.7951 19.7232C26.3568 21.5837 27.0963 23.7427 27.0175 26.2042C26.9725 27.5747 26.6947 28.727 26.109 29.9558C25.6924 30.8286 25.2269 31.4985 24.5324 32.2259C23.7703 33.0298 23.1321 33.5121 22.2162 33.9753C21.3865 34.3964 20.6282 34.6529 19.8174 34.7945C19.4344 34.8634 19.2092 34.8864 18.5072 34.9285C18.3946 34.9362 18.0717 34.9285 17.7902 34.9094ZM19.7836 34.2854C21.7469 33.9141 23.4024 32.9494 24.6975 31.4143C25.407 30.5759 26.064 29.3203 26.3681 28.2255C26.7322 26.9239 26.7885 25.3965 26.522 24.0528C26.3531 23.203 26.0039 22.2345 25.5985 21.5033C24.401 19.3366 22.4414 17.8206 20.0651 17.2234C19.532 17.0895 18.4847 17.0129 17.7151 17.0512C16.4575 17.1163 14.9972 17.6177 13.871 18.3757C13.3342 18.7394 13.184 18.8619 12.5609 19.482C11.8213 20.2247 11.4459 20.7453 10.9955 21.6717C10.3761 22.9388 10.1208 23.938 10.072 25.2663C10.0157 26.9048 10.2709 28.1336 10.9805 29.6572C11.307 30.3577 11.7838 31.043 12.482 31.8009C13.7471 33.1867 15.7668 34.1897 17.6062 34.3428C18.1506 34.3849 19.4157 34.3543 19.7836 34.2854Z" fill="black"/>
<path id="Vector_17" d="M17.9253 33.8186C17.8652 33.8109 17.6625 33.7841 17.4748 33.7611C17.0468 33.7075 16.2623 33.5046 15.823 33.3324C12.94 32.2069 10.9804 29.5119 10.6951 26.281C10.4586 23.6013 11.6448 20.8029 13.7208 19.153C14.7381 18.3414 15.9507 17.817 17.3697 17.572C17.7939 17.4954 17.9403 17.4878 18.601 17.5069C19.5245 17.5337 19.9449 17.6064 20.7483 17.8744C22.4826 18.4563 23.988 19.6353 25.0128 21.2011C25.6059 22.1121 26.0789 23.3984 26.2629 24.6157C26.3455 25.1593 26.3567 26.4341 26.2817 26.8896C26.0264 28.4515 25.4633 29.7952 24.6036 30.8747C23.3761 32.4251 21.7881 33.3821 19.8586 33.7305C19.4456 33.8071 18.2293 33.8607 17.9253 33.8186ZM19.7985 33.2061C20.9472 33.0338 22.0584 32.5706 22.9819 31.8892C23.5262 31.4872 24.4535 30.4804 24.8514 29.8603C25.0729 29.5081 25.4595 28.6812 25.6022 28.2525C25.9063 27.3107 25.9776 26.8322 25.9776 25.6723C25.9776 24.8225 25.94 24.4664 25.7899 23.8731C25.0466 20.9293 22.8993 18.7893 20.0275 18.1194C19.6033 18.0237 19.5245 18.0161 18.6385 18.0122C17.655 18.0122 17.5086 18.0275 16.8254 18.2113C14.9709 18.7013 13.3754 19.9339 12.3881 21.6375C11.6974 22.8318 11.3821 23.9764 11.3483 25.4388C11.322 26.4647 11.4271 27.1959 11.7349 28.1338C11.8813 28.5778 12.3506 29.5349 12.6434 29.9789C13.7358 31.6327 15.4927 32.8118 17.3997 33.1754C18.0454 33.2941 19.1266 33.3094 19.7985 33.2061ZM12.5383 30.7446C12.5383 30.7216 12.5233 30.6948 12.5008 30.6833C12.482 30.6718 12.4632 30.6871 12.4632 30.7178C12.4632 30.7522 12.482 30.779 12.5008 30.779C12.5233 30.779 12.5383 30.7637 12.5383 30.7446Z" fill="black"/>
<path id="Vector_18" d="M17.9816 32.6732C16.9342 32.5201 15.9432 32.1334 15.0685 31.5401C14.5354 31.1802 13.6007 30.2347 13.2666 29.7256C12.7072 28.8757 12.2755 27.8536 12.0991 26.9655C12.0428 26.686 12.0315 26.4334 12.0315 25.5338C12.0315 24.3892 12.039 24.3241 12.2267 23.6388C12.4332 22.8924 12.8574 21.9583 13.244 21.3994C14.1525 20.0825 15.4364 19.1446 16.9117 18.7159C17.8014 18.4517 18.5409 18.3905 19.5432 18.4938C20.8496 18.6278 22.2123 19.2633 23.2935 20.2433C24.3972 21.2424 25.0991 22.4215 25.4708 23.903C25.6397 24.5729 25.6923 25.1548 25.666 26.0123C25.6435 26.8085 25.5722 27.2373 25.3432 27.9417C24.5548 30.3763 22.5464 32.1794 20.1026 32.6388C19.6408 32.723 18.4546 32.7421 17.9816 32.6732ZM20.3879 32.0645C21.3151 31.8502 22.4714 31.2683 23.1546 30.6711C23.4549 30.4031 24.0856 29.6873 24.2845 29.381C25.3131 27.8153 25.6622 25.8209 25.223 24.037C24.6524 21.7286 23.042 19.9409 20.8721 19.202C20.1702 18.9647 19.9374 18.9302 19.0139 18.9302C18.3082 18.9341 18.128 18.9456 17.7864 19.0183C15.2712 19.5504 13.4092 21.4415 12.8161 24.0638C12.6284 24.9059 12.6471 26.2879 12.8611 27.1263C13.4843 29.5801 15.2487 31.3946 17.5987 32.0071C17.7714 32.0492 18.0266 32.1028 18.1618 32.1181C18.5522 32.1679 20.0951 32.1296 20.3879 32.0645Z" fill="black"/>
<path id="Vector_19" d="M18.5634 31.5631C17.1406 31.3257 16.1195 30.7975 15.1285 29.783C14.5917 29.2394 14.2613 28.7647 13.9685 28.1293C13.5556 27.245 13.4354 26.7014 13.4092 25.6716C13.3829 24.416 13.503 23.8073 13.991 22.7431C14.3627 21.9315 14.8207 21.3267 15.4964 20.7448C16.1083 20.2204 16.5137 19.983 17.287 19.6959C18.0303 19.4203 18.2143 19.3896 19.1453 19.3896C19.8923 19.3896 20.035 19.4011 20.3803 19.4777C21.7092 19.7839 22.8016 20.4807 23.7927 21.6674C24.1906 22.1459 24.6036 22.9345 24.8438 23.6771C25.0878 24.4313 25.0953 24.4925 25.0916 25.5912C25.0878 26.575 25.0878 26.5904 24.9752 27.0268C24.6636 28.2288 24.1606 29.1169 23.3422 29.917C22.4563 30.786 21.6266 31.2339 20.4404 31.4865C19.8585 31.6129 19.0514 31.6435 18.5634 31.5631ZM20.7707 30.8779C21.5215 30.6979 22.2461 30.3457 22.8054 29.894C23.3535 29.45 24.0442 28.5886 24.322 28.0029C24.7387 27.1225 24.9377 26.0238 24.8513 25.0668C24.7237 23.6465 24.2282 22.5211 23.2859 21.5104C22.5802 20.7563 21.6679 20.2242 20.6131 19.9524C20.2527 19.8605 20.1476 19.8529 19.5019 19.849C18.9613 19.849 18.7098 19.8682 18.4508 19.9179C17.9552 20.0213 17.4785 20.1859 17.0655 20.4003C15.1435 21.3994 13.961 23.6159 14.1524 25.8745C14.2613 27.2182 14.7643 28.3589 15.6691 29.316C16.1646 29.8404 16.5813 30.1543 17.1744 30.4529C18.0679 30.9008 18.5822 31.0118 19.6333 30.9927C20.2527 30.9774 20.4291 30.9621 20.7707 30.8779Z" fill="black"/>
<path id="Vector_20" d="M19.1679 30.4297C18.0643 30.2766 16.9756 29.7024 16.2211 28.8793C15.718 28.3319 15.2713 27.5472 15.0348 26.7968C14.9109 26.414 14.8696 25.7403 14.9072 24.7871C14.9259 24.2741 14.9409 24.1746 15.0498 23.8492C15.3727 22.896 15.917 22.027 16.5477 21.4757C17.1445 20.9513 18.023 20.4996 18.7512 20.3465C19.0591 20.2814 19.9638 20.2584 20.3655 20.3082C21.563 20.446 22.8281 21.2231 23.6352 22.3141C23.958 22.7505 24.3297 23.5238 24.4761 24.0597C24.7351 25.0091 24.6713 26.3949 24.3259 27.2983C23.7253 28.8602 22.3814 30.024 20.7596 30.38C20.4255 30.4527 19.5321 30.4833 19.1679 30.4297ZM20.7709 29.8402C21.6756 29.6794 22.4151 29.3043 23.0608 28.6765C24.3259 27.4515 24.7614 25.6216 24.2096 23.8875C23.9956 23.2214 23.7441 22.7773 23.2711 22.2414C22.7004 21.5982 22.1073 21.1925 21.3678 20.936C20.9135 20.779 20.4893 20.7101 19.9713 20.7101C18.9239 20.7101 17.9704 21.0776 17.1708 21.7897C16.4538 22.429 15.9357 23.3286 15.7068 24.343C15.6129 24.7411 15.6279 25.7556 15.7293 26.2571C15.917 27.2026 16.3224 27.9453 17.0207 28.6267C17.6851 29.2775 18.5711 29.7292 19.427 29.8555C19.7911 29.9091 20.4255 29.9015 20.7709 29.8402Z" fill="black"/>
<path id="Vector_21" d="M19.7647 29.2702C18.2556 29.0138 17.0768 27.9687 16.5963 26.4642C16.4424 25.9857 16.3899 25.557 16.4161 24.9942C16.4875 23.3022 17.5311 21.8743 19.0815 21.346C19.4869 21.2082 19.7609 21.1699 20.309 21.1699C20.7107 21.1699 20.8421 21.1891 21.21 21.2848C22.4 21.6025 23.2634 22.326 23.8265 23.4859C24.1381 24.1252 24.2169 24.4851 24.2169 25.3234C24.2132 25.8517 24.2019 25.9934 24.1193 26.3188C23.7852 27.6892 22.629 28.8836 21.3189 29.209C20.9097 29.3123 20.1739 29.3391 19.7647 29.2702ZM21.4465 28.6501C22.201 28.474 22.9256 27.9878 23.3948 27.3409C23.9955 26.514 24.2132 25.3349 23.9504 24.2898C23.8528 23.9032 23.59 23.3366 23.346 23.0036C23.1546 22.7395 22.4526 22.0504 22.3775 22.0504C22.355 22.0504 22.171 21.9777 21.9683 21.8896C21.5141 21.6905 21.2701 21.637 20.722 21.6063C19.3743 21.5298 18.1655 22.2801 17.5536 23.5855C17.2908 24.1405 17.2195 24.4545 17.2157 25.1129C17.2157 25.5761 17.2308 25.7254 17.3021 26.0125C17.5273 26.9121 18.0304 27.6433 18.7436 28.1141C19.592 28.6769 20.5268 28.8606 21.4465 28.6501Z" fill="black"/>
<path id="Vector_22" d="M20.4404 28.0796C19.7872 27.9571 19.3856 27.7389 18.9201 27.2566C18.6385 26.9695 18.5259 26.8202 18.387 26.5484C18.1092 26.0048 18.0379 25.6986 18.0416 25.0363C18.0416 24.4582 18.0604 24.3357 18.2331 23.8878C18.6723 22.7586 19.8999 21.947 21.0599 22.0236C21.8031 22.0733 22.3775 22.3336 22.9331 22.8696C23.3573 23.283 23.6126 23.7118 23.7853 24.2975C23.8716 24.5846 23.8866 24.7032 23.8866 25.1128C23.8829 26.1005 23.5638 26.7934 22.7867 27.5016C22.2123 28.0261 21.3189 28.2481 20.4404 28.0796ZM21.9608 27.4786C22.4301 27.3638 22.9181 27.0422 23.2184 26.6518C23.545 26.2268 23.7102 25.7598 23.7477 25.1511C23.7777 24.6764 23.7064 24.3396 23.4737 23.8572C23.1696 23.2218 22.644 22.77 21.9233 22.525C21.6605 22.437 21.0674 22.4332 20.722 22.525C19.9111 22.7356 19.2805 23.3289 18.9952 24.1558C18.875 24.4965 18.8488 25.1473 18.9388 25.5531C19.1641 26.5905 19.9637 27.3523 21.0035 27.5284C21.225 27.5628 21.7168 27.5399 21.9608 27.4786Z" fill="black"/>
<path id="Vector_23" d="M21.5292 26.9464C21.0675 26.9005 20.6508 26.6976 20.3054 26.3416C19.6822 25.7023 19.5321 24.7835 19.9187 23.9682C20.0652 23.6619 20.5231 23.2064 20.8347 23.0571C21.5968 22.6896 22.4339 22.8389 23.0308 23.4475C23.6577 24.0868 23.8229 25.063 23.44 25.8669C23.0909 26.6019 22.3363 27.0307 21.5292 26.9464ZM22.5578 26.2765C22.6517 26.2459 22.8318 26.154 22.9595 26.066C23.1697 25.9282 23.2072 25.8784 23.3574 25.5836C23.5188 25.2582 23.5188 25.2544 23.5188 24.8486C23.5188 24.4658 23.5113 24.4275 23.3949 24.1825C23.241 23.8686 22.9294 23.5317 22.6854 23.4207C22.5465 23.3557 22.4114 23.3327 22.1036 23.3212C21.7357 23.3059 21.6869 23.3135 21.4954 23.4016C21.2514 23.5164 20.9511 23.7921 20.8197 24.0179C20.5494 24.4926 20.5457 25.1204 20.8197 25.5951C20.9361 25.798 21.2627 26.1081 21.4616 26.2038C21.7882 26.3684 22.2012 26.3952 22.5578 26.2765Z" fill="black"/>
<path id="Vector_24" d="M22.2687 25.7182C22.0998 25.6876 22.0397 25.6493 21.8708 25.4732C21.6043 25.2014 21.533 25.0406 21.533 24.7306C21.5367 24.4167 21.6418 24.1717 21.8746 23.9649C22.0848 23.7774 22.2462 23.7238 22.5428 23.7429C22.738 23.7544 22.8168 23.7812 22.982 23.896C23.5376 24.2712 23.6239 24.9641 23.1772 25.4349C22.9257 25.6991 22.6366 25.7871 22.2687 25.7182ZM23.1134 25.0751C23.4475 24.8684 23.4663 24.4243 23.1434 24.2099C23.0383 24.1372 22.7568 24.1295 22.6366 24.1946C22.539 24.2482 22.4114 24.5047 22.4114 24.6463C22.4114 24.7956 22.554 25.0024 22.7117 25.0828C22.8806 25.1708 22.9632 25.167 23.1134 25.0751Z" fill="black"/>
<path id="Vector_25" d="M3.73136 37.5849C3.58871 37.3399 3.58871 37.3361 3.69382 37.4509C3.74637 37.5084 3.79142 37.5734 3.79142 37.5964C3.79142 37.6462 3.76514 37.6385 3.73136 37.5849Z" fill="black"/>
<path id="Vector_26" d="M3.51367 37.2292C3.47989 37.1297 3.48739 37.1067 3.53244 37.1833C3.55497 37.2215 3.56623 37.2637 3.55497 37.2713C3.54746 37.2828 3.52869 37.2637 3.51367 37.2292Z" fill="black"/>
<path id="Vector_27" d="M3.36734 36.9917C3.35233 36.9802 3.34106 36.942 3.34106 36.9075C3.34482 36.8577 3.35233 36.8577 3.38236 36.9152C3.42365 36.9879 3.41239 37.0415 3.36734 36.9917Z" fill="black"/>
<path id="Vector_28" d="M3.2133 36.727C3.17576 36.6313 3.21706 36.616 3.26586 36.7078C3.28838 36.7538 3.29213 36.7882 3.26961 36.7882C3.25084 36.7882 3.22456 36.7614 3.2133 36.727Z" fill="black"/>
<path id="Vector_29" d="M2.84168 36.0004C2.74408 35.7975 2.67651 35.6444 2.69528 35.6559C2.73657 35.6827 3.05566 36.3296 3.03313 36.3488C3.02563 36.3564 2.93929 36.1995 2.84168 36.0004Z" fill="black"/>
<path id="Vector_30" d="M2.27497 34.8519C2.25995 34.8174 2.25995 34.7791 2.27121 34.7676C2.27872 34.7562 2.29749 34.7791 2.31251 34.8136C2.32752 34.848 2.32752 34.8863 2.31626 34.8978C2.30875 34.9093 2.28998 34.8863 2.27497 34.8519Z" fill="black"/>
<path id="Vector_31" d="M1.99719 34.2426C1.97092 34.1852 1.9559 34.1278 1.96716 34.1201C1.99344 34.0933 2.07227 34.2579 2.05726 34.3077C2.04975 34.3307 2.02347 34.3 1.99719 34.2426Z" fill="black"/>
<path id="Vector_32" d="M1.82446 33.7839C1.79068 33.6844 1.79819 33.6614 1.84323 33.738C1.86576 33.7762 1.87702 33.8183 1.86576 33.826C1.85825 33.8375 1.83948 33.8183 1.82446 33.7839Z" fill="black"/>
<path id="Vector_33" d="M0.00756836 24.0794C0.00756836 24.0259 0.0150763 24.0067 0.0263383 24.0335C0.0338463 24.0565 0.0338463 24.1024 0.0263383 24.1292C0.0150763 24.1522 0.00756836 24.133 0.00756836 24.0794Z" fill="black"/>
<path id="Vector_34" d="M0.0412637 23.0227C0.0412637 22.9806 0.0525257 22.9691 0.0637877 22.9997C0.0750496 23.0265 0.0712956 23.061 0.0600337 23.0725C0.0487717 23.0878 0.0375097 23.0648 0.0412637 23.0227Z" fill="black"/>
</g>
</g>
<defs>
<clipPath id="clip0_1435_6">
<rect width="47" height="49" fill="white" transform="matrix(1 0 0 -1 0 49)"/>
</clipPath>
</defs>
</svg>
