<?xml version="1.0" encoding="UTF-8"?>
<svg version="1.2" width="135.73mm" height="135.73mm" viewBox="0 0 13573 13573" preserveAspectRatio="xMidYMid" fill-rule="evenodd" stroke-width="28.222" stroke-linejoin="round" xmlns="http://www.w3.org/2000/svg" xmlns:ooo="http://xml.openoffice.org/svg/export" xmlns:xlink="http://www.w3.org/1999/xlink" xmlns:presentation="http://sun.com/xmlns/staroffice/presentation" xmlns:smil="http://www.w3.org/2001/SMIL20/" xmlns:anim="urn:oasis:names:tc:opendocument:xmlns:animation:1.0" xml:space="preserve">
 <defs class="ClipPathGroup">
  <clipPath id="presentation_clip_path" clipPathUnits="userSpaceOnUse">
   <rect x="0" y="0" width="13573" height="13573"/>
  </clipPath>
  <clipPath id="presentation_clip_path_shrink" clipPathUnits="userSpaceOnUse">
   <rect x="13" y="13" width="13546" height="13546"/>
  </clipPath>
 </defs>
 <defs class="TextShapeIndex">
  <g ooo:slide="id1" ooo:id-list="id3"/>
 </defs>
 <defs class="EmbeddedBulletChars">
  <g id="bullet-char-template-57356" transform="scale(0.00048828125,-0.00048828125)">
   <path d="M 580,1141 L 1163,571 580,0 -4,571 580,1141 Z"/>
  </g>
  <g id="bullet-char-template-57354" transform="scale(0.00048828125,-0.00048828125)">
   <path d="M 8,1128 L 1137,1128 1137,0 8,0 8,1128 Z"/>
  </g>
  <g id="bullet-char-template-10146" transform="scale(0.00048828125,-0.00048828125)">
   <path d="M 174,0 L 602,739 174,1481 1456,739 174,0 Z M 1358,739 L 309,1346 659,739 1358,739 Z"/>
  </g>
  <g id="bullet-char-template-10132" transform="scale(0.00048828125,-0.00048828125)">
   <path d="M 2015,739 L 1276,0 717,0 1260,543 174,543 174,936 1260,936 717,1481 1274,1481 2015,739 Z"/>
  </g>
  <g id="bullet-char-template-10007" transform="scale(0.00048828125,-0.00048828125)">
   <path d="M 0,-2 C -7,14 -16,27 -25,37 L 356,567 C 262,823 215,952 215,954 215,979 228,992 255,992 264,992 276,990 289,987 310,991 331,999 354,1012 L 381,999 492,748 772,1049 836,1024 860,1049 C 881,1039 901,1025 922,1006 886,937 835,863 770,784 769,783 710,716 594,584 L 774,223 C 774,196 753,168 711,139 L 727,119 C 717,90 699,76 672,76 641,76 570,178 457,381 L 164,-76 C 142,-110 111,-127 72,-127 30,-127 9,-110 8,-76 1,-67 -2,-52 -2,-32 -2,-23 -1,-13 0,-2 Z"/>
  </g>
  <g id="bullet-char-template-10004" transform="scale(0.00048828125,-0.00048828125)">
   <path d="M 285,-33 C 182,-33 111,30 74,156 52,228 41,333 41,471 41,549 55,616 82,672 116,743 169,778 240,778 293,778 328,747 346,684 L 369,508 C 377,444 397,411 428,410 L 1163,1116 C 1174,1127 1196,1133 1229,1133 1271,1133 1292,1118 1292,1087 L 1292,965 C 1292,929 1282,901 1262,881 L 442,47 C 390,-6 338,-33 285,-33 Z"/>
  </g>
  <g id="bullet-char-template-9679" transform="scale(0.00048828125,-0.00048828125)">
   <path d="M 813,0 C 632,0 489,54 383,161 276,268 223,411 223,592 223,773 276,916 383,1023 489,1130 632,1184 813,1184 992,1184 1136,1130 1245,1023 1353,916 1407,772 1407,592 1407,412 1353,268 1245,161 1136,54 992,0 813,0 Z"/>
  </g>
  <g id="bullet-char-template-8226" transform="scale(0.00048828125,-0.00048828125)">
   <path d="M 346,457 C 273,457 209,483 155,535 101,586 74,649 74,723 74,796 101,859 155,911 209,963 273,989 346,989 419,989 480,963 531,910 582,859 608,796 608,723 608,648 583,586 532,535 482,483 420,457 346,457 Z"/>
  </g>
  <g id="bullet-char-template-8211" transform="scale(0.00048828125,-0.00048828125)">
   <path d="M -4,459 L 1135,459 1135,606 -4,606 -4,459 Z"/>
  </g>
  <g id="bullet-char-template-61548" transform="scale(0.00048828125,-0.00048828125)">
   <path d="M 173,740 C 173,903 231,1043 346,1159 462,1274 601,1332 765,1332 928,1332 1067,1274 1183,1159 1299,1043 1357,903 1357,740 1357,577 1299,437 1183,322 1067,206 928,148 765,148 601,148 462,206 346,322 231,437 173,577 173,740 Z"/>
  </g>
 </defs>
 <defs class="TextEmbeddedBitmaps"/>
 <g>
  <g id="id2" class="Master_Slide">
   <g id="bg-id2" class="Background"/>
   <g id="bo-id2" class="BackgroundObjects"/>
  </g>
 </g>
 <g class="SlideGroup">
  <g>
   <g id="container-id1">
    <g id="id1" class="Slide" clip-path="url(#presentation_clip_path)">
     <g class="Page">
      <g class="Graphic">
       <g id="id3">
        <rect class="BoundingBox" stroke="none" fill="none" x="0" y="0" width="13573" height="13573"/>
        <path fill="rgb(183,195,211)" stroke="none" d="M 13347,3410 L 12746,3310 C 11389,3082 10274,2681 9082,1993 8197,1482 7506,950 6786,225 L 6786,225 C 6066,950 5375,1482 4490,1993 3298,2681 2183,3082 826,3310 L 225,3410 C 657,7182 2638,10298 5685,12538 L 6786,13347 8160,12284 C 11044,10053 12913,7052 13347,3419 L 13347,3410 Z"/>
        <path fill="rgb(146,177,216)" stroke="none" d="M 225,3410 C 657,7182 2638,10298 5685,12538 L 6786,13347 6786,225 6786,225 C 6066,950 5375,1482 4490,1993 3298,2681 2183,3082 826,3310 L 225,3410 Z"/>
        <path fill="rgb(90,214,255)" stroke="none" d="M 12697,10823 C 12697,11173 12617,11472 12442,11775 12266,12079 12048,12297 11744,12472 11441,12648 11143,12728 10792,12728 10441,12728 10143,12648 9839,12472 9536,12297 9318,12079 9142,11775 8967,11472 8887,11173 8887,10823 8887,10472 8967,10174 9142,9870 9318,9567 9536,9348 9839,9173 10143,8998 10441,8918 10792,8918 11143,8918 11441,8998 11744,9173 12048,9348 12266,9567 12442,9870 12617,10174 12697,10472 12697,10823 L 12697,10823 Z"/>
        <path fill="rgb(230,230,230)" stroke="none" d="M 10353,11634 C 10201,11546 10092,11437 10004,11285 9916,11132 9876,10983 9876,10807 9876,10632 9916,10482 10004,10330 10092,10178 10201,10069 10353,9981 10486,9904 10614,9865 10767,9855 10924,9856 11058,9892 11194,9971 11292,10028 11366,10091 11437,10179 L 11109,10448 C 11073,10401 11034,10367 10982,10337 10914,10297 10846,10279 10767,10278 10692,10287 10631,10308 10566,10346 10481,10395 10420,10456 10371,10541 10321,10626 10299,10709 10299,10807 10299,10905 10321,10989 10371,11074 10420,11159 10481,11220 10566,11269 10631,11307 10692,11327 10767,11336 10846,11336 10914,11317 10982,11278 11034,11248 11073,11214 11109,11167 L 11437,11436 C 11366,11524 11292,11587 11194,11644 11058,11722 10924,11759 10767,11760 10614,11750 10486,11711 10353,11634 Z"/>
        <path fill="rgb(255,219,102)" stroke="none" d="M 6574,3188 L 6998,3188 6998,3781 6574,3781 6574,3188 Z M 3823,5939 L 4416,5939 4416,6363 3823,6363 3823,5939 Z M 9156,5939 L 9749,5939 9749,6363 9156,6363 9156,5939 Z M 4540,4206 L 4839,3907 5259,4326 4959,4625 4540,4206 Z M 8311,7978 L 8610,7679 9029,8098 8730,8397 8311,7978 Z M 4540,8096 L 4959,7677 5258,7977 4839,8396 4540,8096 Z M 8311,4326 L 8730,3907 9029,4206 8610,4625 8311,4326 Z"/>
        <path fill="rgb(255,208,77)" stroke="none" d="M 8436,5145 C 8260,4841 8042,4623 7738,4448 7435,4272 7137,4193 6786,4193 6765,4193 6748,4193 6727,4194 6401,4207 6127,4287 5844,4450 5537,4627 5316,4848 5139,5155 4964,5458 4884,5754 4881,6104 4883,6452 4962,6747 5136,7048 5311,7352 5529,7570 5833,7745 5870,7766 5901,7783 5939,7802 L 5939,8860 C 5939,9016 5975,9148 6053,9283 6131,9418 6228,9515 6363,9593 6498,9671 6630,9707 6786,9707 6942,9707 7074,9671 7209,9593 7344,9515 7441,9418 7519,9283 7597,9148 7633,9016 7633,8860 L 7633,7802 C 7671,7783 7702,7766 7739,7745 8043,7570 8261,7352 8436,7048 8611,6745 8691,6447 8691,6097 8691,5747 8611,5449 8436,5145 Z"/>
        <path fill="rgb(115,140,166)" stroke="none" d="M 7633,8225 L 7633,8860 C 7632,8951 7620,9028 7590,9114 7579,9157 7566,9191 7546,9231 7536,9250 7528,9267 7517,9286 7479,9352 7439,9403 7385,9457 7329,9513 7276,9554 7208,9594 7073,9671 6941,9707 6786,9707 6630,9707 6498,9671 6364,9594 6229,9516 6133,9419 6055,9285 6044,9266 6036,9250 6026,9231 6006,9191 5993,9157 5982,9114 5952,9028 5940,8951 5939,8860 L 5939,8225 7633,8225 Z"/>
        <path fill="rgb(124,151,179)" stroke="none" d="M 7633,8691 L 7633,8860 7633,8860 C 7632,8951 7620,9028 7590,9114 L 5982,9114 5982,9114 C 5952,9028 5940,8951 5939,8860 L 5939,8691 7633,8691 Z"/>
       </g>
      </g>
     </g>
    </g>
   </g>
  </g>
 </g>
</svg>