<svg version="1.2" width="135.47mm" height="135.47mm" viewBox="0 0 13547 13547" preserveAspectRatio="xMidYMid" fill-rule="evenodd" stroke-width="28.222" stroke-linejoin="round" xmlns="http://www.w3.org/2000/svg" xmlns:ooo="http://xml.openoffice.org/svg/export" xmlns:xlink="http://www.w3.org/1999/xlink" xmlns:presentation="http://sun.com/xmlns/staroffice/presentation" xmlns:smil="http://www.w3.org/2001/SMIL20/" xmlns:anim="urn:oasis:names:tc:opendocument:xmlns:animation:1.0" xml:space="preserve">
 <defs class="ClipPathGroup">
  <clipPath id="presentation_clip_path" clipPathUnits="userSpaceOnUse">
   <rect x="0" y="0" width="13547" height="13547"/>
  </clipPath>
  <clipPath id="presentation_clip_path_shrink" clipPathUnits="userSpaceOnUse">
   <rect x="13" y="13" width="13520" height="13520"/>
  </clipPath>
 </defs>
 <defs class="TextShapeIndex">
  <g ooo:slide="id1" ooo:id-list="id3"/>
 </defs>
 <defs class="EmbeddedBulletChars">
  <g id="bullet-char-template-57356" transform="scale(0.00048828125,-0.00048828125)">
   <path d="M 580,1141 L 1163,571 580,0 -4,571 580,1141 Z"/>
  </g>
  <g id="bullet-char-template-57354" transform="scale(0.00048828125,-0.00048828125)">
   <path d="M 8,1128 L 1137,1128 1137,0 8,0 8,1128 Z"/>
  </g>
  <g id="bullet-char-template-10146" transform="scale(0.00048828125,-0.00048828125)">
   <path d="M 174,0 L 602,739 174,1481 1456,739 174,0 Z M 1358,739 L 309,1346 659,739 1358,739 Z"/>
  </g>
  <g id="bullet-char-template-10132" transform="scale(0.00048828125,-0.00048828125)">
   <path d="M 2015,739 L 1276,0 717,0 1260,543 174,543 174,936 1260,936 717,1481 1274,1481 2015,739 Z"/>
  </g>
  <g id="bullet-char-template-10007" transform="scale(0.00048828125,-0.00048828125)">
   <path d="M 0,-2 C -7,14 -16,27 -25,37 L 356,567 C 262,823 215,952 215,954 215,979 228,992 255,992 264,992 276,990 289,987 310,991 331,999 354,1012 L 381,999 492,748 772,1049 836,1024 860,1049 C 881,1039 901,1025 922,1006 886,937 835,863 770,784 769,783 710,716 594,584 L 774,223 C 774,196 753,168 711,139 L 727,119 C 717,90 699,76 672,76 641,76 570,178 457,381 L 164,-76 C 142,-110 111,-127 72,-127 30,-127 9,-110 8,-76 1,-67 -2,-52 -2,-32 -2,-23 -1,-13 0,-2 Z"/>
  </g>
  <g id="bullet-char-template-10004" transform="scale(0.00048828125,-0.00048828125)">
   <path d="M 285,-33 C 182,-33 111,30 74,156 52,228 41,333 41,471 41,549 55,616 82,672 116,743 169,778 240,778 293,778 328,747 346,684 L 369,508 C 377,444 397,411 428,410 L 1163,1116 C 1174,1127 1196,1133 1229,1133 1271,1133 1292,1118 1292,1087 L 1292,965 C 1292,929 1282,901 1262,881 L 442,47 C 390,-6 338,-33 285,-33 Z"/>
  </g>
  <g id="bullet-char-template-9679" transform="scale(0.00048828125,-0.00048828125)">
   <path d="M 813,0 C 632,0 489,54 383,161 276,268 223,411 223,592 223,773 276,916 383,1023 489,1130 632,1184 813,1184 992,1184 1136,1130 1245,1023 1353,916 1407,772 1407,592 1407,412 1353,268 1245,161 1136,54 992,0 813,0 Z"/>
  </g>
  <g id="bullet-char-template-8226" transform="scale(0.00048828125,-0.00048828125)">
   <path d="M 346,457 C 273,457 209,483 155,535 101,586 74,649 74,723 74,796 101,859 155,911 209,963 273,989 346,989 419,989 480,963 531,910 582,859 608,796 608,723 608,648 583,586 532,535 482,483 420,457 346,457 Z"/>
  </g>
  <g id="bullet-char-template-8211" transform="scale(0.00048828125,-0.00048828125)">
   <path d="M -4,459 L 1135,459 1135,606 -4,606 -4,459 Z"/>
  </g>
  <g id="bullet-char-template-61548" transform="scale(0.00048828125,-0.00048828125)">
   <path d="M 173,740 C 173,903 231,1043 346,1159 462,1274 601,1332 765,1332 928,1332 1067,1274 1183,1159 1299,1043 1357,903 1357,740 1357,577 1299,437 1183,322 1067,206 928,148 765,148 601,148 462,206 346,322 231,437 173,577 173,740 Z"/>
  </g>
 </defs>
 <defs class="TextEmbeddedBitmaps"/>
 <g>
  <g id="id2" class="Master_Slide">
   <g id="bg-id2" class="Background"/>
   <g id="bo-id2" class="BackgroundObjects"/>
  </g>
 </g>
 <g class="SlideGroup">
  <g>
   <g id="container-id1">
    <g id="id1" class="Slide" clip-path="url(#presentation_clip_path)">
     <g class="Page">
      <g class="Graphic">
       <g id="id3">
        <rect class="BoundingBox" stroke="none" fill="none" x="0" y="0" width="13547" height="13547"/>
        <defs>
         <clipPath id="clip_path_1" clipPathUnits="userSpaceOnUse">
          <path d="M 0,0 L 13546,0 13546,13546 0,13546 0,0 Z"/>
         </clipPath>
        </defs>
        <g clip-path="url(#clip_path_1)">
         <path fill="rgb(244,251,255)" stroke="none" d="M 596,0 L 5379,0 C 5708,0 5975,267 5975,595 L 5974,4526 C 5974,4854 5707,5121 5379,5121 L 4485,5121 C 4334,5121 4212,5243 4212,5393 L 4212,5778 C 4212,5869 4108,5920 4036,5864 L 3158,5178 C 3147,5170 3138,5164 3126,5157 3083,5132 3040,5121 2990,5121 2990,5121 2990,5121 2990,5121 L 595,5121 C 267,5121 0,4854 0,4526 L 1,595 C 1,267 267,0 596,0 Z"/>
         <path fill="rgb(223,234,239)" stroke="none" d="M 5425,1845 C 5425,1845 5425,1846 5425,1847 5425,2109 5463,2331 5550,2578 5590,2692 5551,2818 5454,2890 5185,3091 5011,3412 5011,3772 L 5011,4653 C 5011,4654 5011,4654 5011,4654 5011,4824 5043,4968 5115,5121 L 5379,5121 C 5707,5121 5974,4854 5974,4526 L 5975,595 C 5975,282 5732,26 5425,2 L 5425,1845 Z"/>
         <path fill="rgb(244,251,255)" stroke="none" d="M 9829,7984 L 12115,8594 C 12959,8819 13546,9583 13546,10456 L 13546,13273 C 13546,13424 13424,13546 13273,13546 L 4185,13546 4185,10456 C 4185,9583 4772,8819 5616,8594 L 7902,7984 9829,7984 Z"/>
         <path fill="rgb(226,128,134)" stroke="none" d="M 9334,10985 L 9691,13546 8039,13546 8397,10985 9334,10985 Z"/>
         <path fill="rgb(223,234,239)" stroke="none" d="M 8865,9260 L 9069,9260 9747,10022 10570,8182 9829,7984 9066,8813 8865,8813 8865,9260 Z M 8865,9260 L 8662,9260 7984,10022 7161,8182 7902,7984 8665,8813 8865,8813 8865,9260 Z M 12234,8630 C 12522,8970 12692,9408 12692,9878 L 12692,13546 13273,13546 C 13424,13546 13546,13424 13546,13273 L 13546,10456 C 13546,9625 13013,8892 12234,8630 L 12234,8630 Z"/>
         <path fill="rgb(245,183,86)" stroke="none" d="M 7902,7984 L 7902,6801 9829,6801 9829,7984 8986,8900 C 8974,8913 8962,8922 8947,8931 8921,8946 8896,8953 8865,8953 8835,8953 8810,8946 8784,8931 8769,8922 8757,8913 8745,8900 L 7902,7984 Z"/>
         <path fill="rgb(255,174,47)" stroke="none" d="M 7902,7427 C 8225,7548 8518,7601 8863,7601 8864,7601 8865,7601 8865,7601 9204,7601 9529,7540 9829,7427 L 9829,6801 7902,6801 7902,7427 Z"/>
         <path fill="rgb(245,183,86)" stroke="none" d="M 6663,2561 L 6663,4848 C 6663,6065 7649,7051 8865,7051 10082,7051 11068,6065 11068,4848 L 11068,2561 6663,2561 Z"/>
         <path fill="rgb(255,174,47)" stroke="none" d="M 11068,4848 L 11068,2561 10545,2561 10545,5424 C 10545,5854 10421,6254 10208,6593 10731,6191 11068,5559 11068,4848 L 11068,4848 Z"/>
         <path fill="rgb(12,12,12)" stroke="none" d="M 11784,4212 L 11784,1927 C 11784,1319 11291,826 10683,826 L 10442,826 C 10420,826 10402,821 10383,810 10365,799 10351,786 10340,767 10330,749 10325,730 10325,709 10325,317 10007,0 9616,0 L 6247,0 C 6097,0 5975,122 5975,273 L 5975,1845 C 5975,2757 6714,3497 7627,3497 L 9153,3497 C 9355,3497 9528,3450 9703,3349 9791,3298 9860,3246 9931,3174 L 10167,2939 C 10245,2861 10377,2881 10428,2979 L 11068,4212 11784,4212 Z"/>
         <path fill="rgb(63,63,63)" stroke="none" d="M 11068,1348 C 11068,1348 11068,1349 11068,1349 L 11068,4212 11784,4212 11784,1927 C 11784,1412 11431,980 10953,860 11033,1019 11068,1170 11068,1348 Z"/>
         <path fill="rgb(177,228,249)" stroke="none" d="M 6112,5204 L 6554,5204 C 6574,5204 6591,5199 6608,5189 6626,5179 6638,5167 6648,5149 6658,5132 6663,5115 6663,5095 L 6663,3330 C 6663,3310 6658,3293 6648,3276 6638,3258 6626,3246 6608,3236 6591,3226 6574,3221 6554,3221 L 6112,3221 C 5808,3221 5562,3468 5562,3772 L 5562,4653 C 5562,4957 5808,5204 6112,5204 Z"/>
         <path fill="rgb(226,128,134)" stroke="none" d="M 9334,10985 L 9747,10022 9069,9260 C 8961,9138 8770,9138 8662,9260 L 7984,10022 8397,10985 9334,10985 Z"/>
         <path fill="rgb(221,99,110)" stroke="none" d="M 8303,10765 L 8397,10985 9334,10985 9428,10765 8303,10765 Z"/>
         <path fill="rgb(146,177,216)" stroke="none" d="M 6332,12445 L 0,12445 0,8865 C 0,8561 247,8315 551,8315 L 5782,8315 C 6086,8315 6332,8561 6332,8865 L 6332,12445 Z"/>
         <path fill="rgb(244,251,255)" stroke="none" d="M 3717,10380 C 3717,10481 3694,10567 3643,10655 3592,10743 3529,10806 3442,10857 3354,10907 3268,10930 3166,10930 3065,10930 2979,10907 2891,10857 2803,10806 2740,10743 2689,10655 2639,10567 2616,10481 2616,10380 2616,10278 2639,10192 2689,10104 2740,10017 2803,9954 2891,9903 2979,9852 3065,9829 3166,9829 3268,9829 3354,9852 3442,9903 3529,9954 3592,10017 3643,10104 3694,10192 3717,10278 3717,10380 L 3717,10380 Z"/>
         <path fill="rgb(113,137,167)" stroke="none" d="M 0,12445 L 6611,12445 C 6761,12445 6883,12567 6883,12717 L 6883,12995 C 6883,13299 6637,13546 6332,13546 L 551,13546 C 247,13546 0,13299 0,12995 L 0,12445 Z"/>
         <path fill="rgb(94,107,117)" stroke="none" d="M 6332,12445 L 6332,12995 C 6332,13299 6086,13546 5782,13546 L 6332,13546 C 6637,13546 6883,13299 6883,12995 L 6883,12717 C 6883,12567 6761,12445 6611,12445 L 6332,12445 Z"/>
         <path fill="rgb(246,226,102)" stroke="none" d="M 4639,2560 C 4639,2864 4570,3123 4418,3386 4266,3650 4076,3839 3813,3991 3550,4143 3291,4212 2987,4212 2683,4212 2424,4143 2161,3991 1898,3839 1708,3650 1556,3386 1404,3123 1335,2864 1335,2560 1335,2256 1404,1998 1556,1734 1708,1471 1898,1282 2161,1130 2424,978 2683,908 2987,908 3291,908 3550,978 3813,1130 4076,1282 4266,1471 4418,1734 4570,1998 4639,2256 4639,2560 L 4639,2560 Z"/>
         <path fill="rgb(236,190,107)" stroke="none" d="M 2181,3257 C 2167,3244 2158,3231 2148,3215 2129,3182 2121,3151 2121,3113 2121,3075 2129,3043 2148,3011 2158,2994 2168,2982 2181,2968 2194,2955 2207,2945 2223,2936 2256,2917 2288,2908 2325,2908 2363,2908 2395,2917 2428,2936 2444,2945 2457,2955 2470,2968 2608,3107 2792,3183 2987,3183 3182,3183 3366,3107 3504,2968 3517,2956 3529,2946 3545,2937 3577,2919 3609,2910 3647,2910 3685,2910 3717,2919 3749,2937 3782,2956 3805,2980 3824,3012 3843,3045 3851,3077 3851,3114 3851,3152 3843,3184 3824,3217 3815,3232 3806,3244 3793,3257 3578,3473 3292,3592 2987,3592 2682,3592 2396,3473 2181,3257 Z"/>
         <path fill="rgb(236,190,107)" stroke="none" d="M 2629,2147 C 2629,2198 2617,2241 2592,2285 2567,2329 2535,2360 2491,2386 2447,2411 2404,2423 2353,2423 2303,2423 2260,2411 2216,2386 2172,2360 2140,2329 2115,2285 2090,2241 2078,2198 2078,2147 2078,2097 2090,2054 2115,2010 2140,1966 2172,1934 2216,1909 2260,1884 2303,1872 2353,1872 2404,1872 2447,1884 2491,1909 2535,1934 2567,1966 2592,2010 2617,2054 2629,2097 2629,2147 L 2629,2147 Z"/>
         <path fill="rgb(236,190,107)" stroke="none" d="M 3896,2147 C 3896,2198 3884,2241 3859,2285 3834,2329 3802,2360 3758,2386 3714,2411 3671,2423 3620,2423 3570,2423 3527,2411 3483,2386 3439,2360 3407,2329 3382,2285 3357,2241 3345,2198 3345,2147 3345,2097 3357,2054 3382,2010 3407,1966 3439,1934 3483,1909 3527,1884 3570,1872 3620,1872 3671,1872 3714,1884 3758,1909 3802,1934 3834,1966 3859,2010 3884,2054 3896,2097 3896,2147 L 3896,2147 Z"/>
         <path fill="rgb(63,63,63)" stroke="none" d="M 9916,3189 C 9921,3184 9926,3179 9931,3174 L 10167,2939 C 10210,2895 10271,2882 10325,2896 L 10325,702 C 10322,420 10155,178 9916,66 L 9916,3189 Z"/>
         <path fill="rgb(244,251,255)" stroke="none" d="M 10997,6232 L 9143,6232 9143,5823 10997,5823 C 11010,5823 11021,5820 11033,5813 11044,5807 11052,5799 11059,5787 11065,5776 11068,5765 11068,5752 L 11068,5061 11477,5061 11477,5752 C 11477,6016 11262,6232 10997,6232 Z"/>
         <path fill="rgb(177,228,249)" stroke="none" d="M 11619,5204 L 11177,5204 C 11157,5204 11140,5199 11123,5189 11105,5179 11093,5167 11083,5149 11073,5132 11068,5115 11068,5095 L 11068,3330 C 11068,3310 11073,3293 11083,3276 11093,3258 11105,3246 11123,3236 11140,3226 11157,3221 11177,3221 L 11619,3221 C 11923,3221 12169,3468 12169,3772 L 12169,4653 C 12169,4957 11923,5204 11619,5204 Z"/>
         <path fill="rgb(94,107,117)" stroke="none" d="M 9274,6027 C 9274,6103 9257,6167 9220,6232 9182,6297 9135,6344 9070,6381 9005,6419 8941,6436 8865,6436 8790,6436 8726,6419 8661,6381 8596,6344 8549,6297 8511,6232 8474,6167 8457,6103 8457,6027 8457,5952 8474,5888 8511,5823 8549,5758 8596,5711 8661,5673 8726,5636 8790,5618 8865,5618 8941,5618 9005,5636 9070,5673 9135,5711 9182,5758 9220,5823 9257,5888 9274,5952 9274,6027 L 9274,6027 Z"/>
        </g>
       </g>
      </g>
     </g>
    </g>
   </g>
  </g>
 </g>
</svg>