<svg width="151" height="157" viewBox="0 0 151 157" fill="none" xmlns="http://www.w3.org/2000/svg">
<g id="forum-2 1" clip-path="url(#clip0_1513_712)">
<g id="Group">
<g id="Group_2">
<g id="container-id1">
<g id="id1">
<g id="Group_3">
<g id="Group_4">
<g id="id3">
<path id="Vector" fill-rule="evenodd" clip-rule="evenodd" d="M113.164 61.352C113.164 55.5221 112.463 50.583 110.85 44.9961C109.581 40.6237 108.091 37.0495 105.888 33.082C100.904 24.106 94.7073 17.6631 86.0743 12.481C77.4413 7.28742 68.964 4.92773 58.996 4.92773C49.0168 4.92773 40.5507 7.28742 31.9177 12.481C23.2846 17.6631 17.0769 24.106 12.0929 33.082C7.10886 42.0581 4.83936 50.8722 4.83936 61.2363C4.83936 71.103 6.88636 79.4776 11.4142 88.1413L5.03961 111.426C4.90611 111.889 4.85048 112.293 4.85048 112.768C4.85048 113.67 5.05073 114.433 5.48461 115.22C5.91848 115.995 6.46361 116.562 7.20899 117.013C7.96549 117.464 8.69974 117.66 9.56749 117.66C10.0236 117.66 10.413 117.603 10.858 117.475L33.2527 110.836C36.6124 112.744 39.6051 114.052 43.2652 115.197C48.6275 116.92 53.3778 117.66 58.9849 117.66C58.996 117.66 59.0071 117.66 59.0071 117.66C68.9751 117.649 77.4302 115.289 86.0632 110.107C94.7073 104.925 100.915 98.4707 105.899 89.4831C110.883 80.507 113.153 71.7161 113.164 61.352Z" fill="#92B1D8"/>
<path id="Vector_2" fill-rule="evenodd" clip-rule="evenodd" d="M139.575 122.415C144.091 113.774 146.127 105.411 146.127 95.5792C146.127 85.2267 143.869 76.4357 138.885 67.4712C134.368 59.328 128.906 53.3709 121.296 48.293C122.197 52.8735 122.587 56.8179 122.587 61.5026C122.587 73.648 119.928 83.9658 114.087 94.4803C108.246 104.995 100.982 112.548 90.8692 118.621C80.7565 124.694 70.8219 127.458 59.1517 127.458C59.0961 127.458 59.0627 127.458 59.0071 127.458C54.5904 127.447 50.8524 127.042 46.5137 126.116C51.4421 133.993 57.1603 139.65 64.9923 144.346C73.6031 149.505 82.0359 151.888 91.9817 151.934C101.427 151.934 109.448 149.817 117.736 145.121L140.131 151.749C140.576 151.888 140.965 151.934 141.421 151.934C142.289 151.934 143.023 151.737 143.78 151.286C144.525 150.835 145.07 150.268 145.504 149.493C145.938 148.707 146.138 147.943 146.138 147.041C146.138 146.567 146.083 146.162 145.949 145.699L139.575 122.415Z" fill="#92CDC8"/>
</g>
</g>
</g>
</g>
</g>
</g>
</g>
<g id="add-reaction 2">
<path id="Vector_3" d="M64.8883 59.8709C65.6133 59.8709 66.2292 59.6069 66.7358 59.0787C67.2437 58.552 67.4977 57.9117 67.4977 57.1578C67.4977 56.4039 67.2437 55.7636 66.7358 55.2369C66.2292 54.7088 65.6133 54.4447 64.8883 54.4447C64.1632 54.4447 63.5474 54.7088 63.0408 55.2369C62.5328 55.7636 62.2788 56.4039 62.2788 57.1578C62.2788 57.9117 62.5328 58.552 63.0408 59.0787C63.5474 59.6069 64.1632 59.8709 64.8883 59.8709ZM53.4067 59.8709C54.1318 59.8709 54.7476 59.6069 55.2542 59.0787C55.7622 58.552 56.0161 57.9117 56.0161 57.1578C56.0161 56.4039 55.7622 55.7636 55.2542 55.2369C54.7476 54.7088 54.1318 54.4447 53.4067 54.4447C52.6816 54.4447 52.0658 54.7088 51.5592 55.2369C51.0512 55.7636 50.7973 56.4039 50.7973 57.1578C50.7973 57.9117 51.0512 58.552 51.5592 59.0787C52.0658 59.6069 52.6816 59.8709 53.4067 59.8709ZM59.1475 70.1808C60.8871 70.1808 62.489 69.7135 63.953 68.7787C65.4171 67.8439 66.5694 66.5778 67.41 64.9803H50.8849C51.7255 66.5778 52.8779 67.8439 54.3419 68.7787C55.806 69.7135 57.4079 70.1808 59.1475 70.1808ZM59.1475 78.8629C56.8567 78.8629 54.6968 78.4107 52.6677 77.5063C50.6386 76.6019 48.8628 75.3582 47.3403 73.7752C45.8177 72.1922 44.6216 70.3458 43.7517 68.2361C42.8819 66.1263 42.447 63.8806 42.447 61.4988C42.447 59.0867 42.8819 56.833 43.7517 54.7377C44.6216 52.6439 45.8177 50.8055 47.3403 49.2224C48.8628 47.6394 50.6386 46.3957 52.6677 45.4913C54.6968 44.587 56.8567 44.1348 59.1475 44.1348C61.4675 44.1348 63.635 44.587 65.6502 45.4913C67.664 46.3957 69.4322 47.6394 70.9547 49.2224C72.4772 50.8055 73.6734 52.6439 74.5432 54.7377C75.413 56.833 75.8479 59.0867 75.8479 61.4988C75.8479 63.8806 75.413 66.1263 74.5432 68.2361C73.6734 70.3458 72.4772 72.1922 70.9547 73.7752C69.4322 75.3582 67.664 76.6019 65.6502 77.5063C63.635 78.4107 61.4675 78.8629 59.1475 78.8629ZM59.1475 75.6071C62.9162 75.6071 66.1199 74.2354 68.7586 71.4918C71.3973 68.7483 72.7166 65.4173 72.7166 61.4988C72.7166 57.5803 71.3973 54.2493 68.7586 51.5058C66.1199 48.7623 62.9162 47.3905 59.1475 47.3905C55.3787 47.3905 52.175 48.7623 49.5364 51.5058C46.8977 54.2493 45.5784 57.5803 45.5784 61.4988C45.5784 65.4173 46.8977 68.7483 49.5364 71.4918C52.175 74.2354 55.3787 75.6071 59.1475 75.6071Z" fill="white"/>
</g>
</g>
<defs>
<clipPath id="clip0_1513_712">
<rect width="151" height="157" fill="white"/>
</clipPath>
</defs>
</svg>
