<?xml version="1.0" encoding="UTF-8"?>
<svg version="1.2" width="135.73mm" height="135.73mm" viewBox="0 0 13573 13573"
    preserveAspectRatio="xMidYMid" fill-rule="evenodd" stroke-width="28.222" stroke-linejoin="round"
    xmlns="http://www.w3.org/2000/svg" xmlns:ooo="http://xml.openoffice.org/svg/export"
    xmlns:xlink="http://www.w3.org/1999/xlink"
    xmlns:presentation="http://sun.com/xmlns/staroffice/presentation"
    xmlns:smil="http://www.w3.org/2001/SMIL20/"
    xmlns:anim="urn:oasis:names:tc:opendocument:xmlns:animation:1.0" xml:space="preserve">
 <defs class="ClipPathGroup">
  <clipPath id="presentation_clip_path" clipPathUnits="userSpaceOnUse">
   <rect x="0" y="0" width="13573" height="13573"/>
  </clipPath>
  <clipPath id="presentation_clip_path_shrink" clipPathUnits="userSpaceOnUse">
   <rect x="13" y="13" width="13546" height="13546"/>
  </clipPath>
 </defs>
 <defs class="TextShapeIndex">
  <g ooo:slide="id1" ooo:id-list="id3"/>
 </defs>
 <defs class="EmbeddedBulletChars">
  <g id="bullet-char-template-57356" transform="scale(0.00048828125,-0.00048828125)">
   <path d="M 580,1141 L 1163,571 580,0 -4,571 580,1141 Z"/>
  </g>
  <g id="bullet-char-template-57354" transform="scale(0.00048828125,-0.00048828125)">
   <path d="M 8,1128 L 1137,1128 1137,0 8,0 8,1128 Z"/>
  </g>
  <g id="bullet-char-template-10146" transform="scale(0.00048828125,-0.00048828125)">
   <path d="M 174,0 L 602,739 174,1481 1456,739 174,0 Z M 1358,739 L 309,1346 659,739 1358,739 Z"/>
  </g>
  <g id="bullet-char-template-10132" transform="scale(0.00048828125,-0.00048828125)">
   <path d="M 2015,739 L 1276,0 717,0 1260,543 174,543 174,936 1260,936 717,1481 1274,1481 2015,739 Z"/>
  </g>
  <g id="bullet-char-template-10007" transform="scale(0.00048828125,-0.00048828125)">
   <path d="M 0,-2 C -7,14 -16,27 -25,37 L 356,567 C 262,823 215,952 215,954 215,979 228,992 255,992 264,992 276,990 289,987 310,991 331,999 354,1012 L 381,999 492,748 772,1049 836,1024 860,1049 C 881,1039 901,1025 922,1006 886,937 835,863 770,784 769,783 710,716 594,584 L 774,223 C 774,196 753,168 711,139 L 727,119 C 717,90 699,76 672,76 641,76 570,178 457,381 L 164,-76 C 142,-110 111,-127 72,-127 30,-127 9,-110 8,-76 1,-67 -2,-52 -2,-32 -2,-23 -1,-13 0,-2 Z"/>
  </g>
  <g id="bullet-char-template-10004" transform="scale(0.00048828125,-0.00048828125)">
   <path d="M 285,-33 C 182,-33 111,30 74,156 52,228 41,333 41,471 41,549 55,616 82,672 116,743 169,778 240,778 293,778 328,747 346,684 L 369,508 C 377,444 397,411 428,410 L 1163,1116 C 1174,1127 1196,1133 1229,1133 1271,1133 1292,1118 1292,1087 L 1292,965 C 1292,929 1282,901 1262,881 L 442,47 C 390,-6 338,-33 285,-33 Z"/>
  </g>
  <g id="bullet-char-template-9679" transform="scale(0.00048828125,-0.00048828125)">
   <path d="M 813,0 C 632,0 489,54 383,161 276,268 223,411 223,592 223,773 276,916 383,1023 489,1130 632,1184 813,1184 992,1184 1136,1130 1245,1023 1353,916 1407,772 1407,592 1407,412 1353,268 1245,161 1136,54 992,0 813,0 Z"/>
  </g>
  <g id="bullet-char-template-8226" transform="scale(0.00048828125,-0.00048828125)">
   <path d="M 346,457 C 273,457 209,483 155,535 101,586 74,649 74,723 74,796 101,859 155,911 209,963 273,989 346,989 419,989 480,963 531,910 582,859 608,796 608,723 608,648 583,586 532,535 482,483 420,457 346,457 Z"/>
  </g>
  <g id="bullet-char-template-8211" transform="scale(0.00048828125,-0.00048828125)">
   <path d="M -4,459 L 1135,459 1135,606 -4,606 -4,459 Z"/>
  </g>
  <g id="bullet-char-template-61548" transform="scale(0.00048828125,-0.00048828125)">
   <path d="M 173,740 C 173,903 231,1043 346,1159 462,1274 601,1332 765,1332 928,1332 1067,1274 1183,1159 1299,1043 1357,903 1357,740 1357,577 1299,437 1183,322 1067,206 928,148 765,148 601,148 462,206 346,322 231,437 173,577 173,740 Z"/>
  </g>
 </defs>
 <defs class="TextEmbeddedBitmaps"/>
 <g>
  <g id="id2" class="Master_Slide">
   <g id="bg-id2" class="Background"/>
   <g id="bo-id2" class="BackgroundObjects"/>
  </g>
 </g>
 <g class="SlideGroup">
  <g>
   <g id="container-id1">
    <g id="id1" class="Slide" clip-path="url(#presentation_clip_path)">
     <g class="Page">
      <g class="Graphic">
       <g id="id3">
        <rect class="BoundingBox" stroke="none" fill="none" x="0" y="0" width="13573" height="13573"/>
        <defs>
         <clipPath id="clip_path_1" clipPathUnits="userSpaceOnUse">
          <path d="M 304,13 L 13268,13 13268,13559 304,13559 304,13 Z"/>
         </clipPath>
        </defs>
        <g clip-path="url(#clip_path_1)">
         <path fill="rgb(146,177,216)" stroke="none" d="M 304,7077 C 304,9309 1433,11278 3150,12444 L 4547,12444 5583,13447 C 6001,13525 6360,13559 6785,13559 6786,13559 6786,13559 6786,13559 7197,13559 7599,13520 7989,13447 L 9025,12444 10422,12444 C 12139,11278 13268,9309 13268,7077 13268,3497 10366,595 6786,595 3206,595 304,3497 304,7077 Z"/>
         <path fill="rgb(90,214,255)" stroke="none" d="M 6786,10649 C 4156,10649 2024,8517 2024,5887 2024,3256 4156,1124 6786,1124 9416,1124 11548,3256 11548,5887 11548,8517 9416,10649 6786,10649 Z"/>
         <path fill="rgb(255,113,134)" stroke="none" d="M 6786,439 C 6786,439 6195,-222 5464,103 4733,428 4733,1506 5383,2225 5783,2668 6223,2957 6501,3113 6592,3165 6681,3188 6786,3188 6891,3188 6979,3165 7071,3113 7349,2957 7789,2668 8189,2225 8838,1506 8838,428 8108,103 7377,-222 6786,439 6786,439 Z"/>
         <path fill="rgb(255,65,85)" stroke="none" d="M 7071,3113 C 6644,2563 6294,1001 6786,439 6786,439 6195,-222 5464,103 4733,428 4733,1506 5383,2225 5783,2668 6223,2957 6501,3113 L 6501,3113 C 6592,3165 6681,3188 6786,3188 6891,3188 6979,3165 7071,3113 Z"/>
         <path fill="rgb(255,113,134)" stroke="none" d="M 4328,3540 C 4328,3540 3678,3227 3231,3698 2783,4169 3118,4979 3830,5317 4268,5525 4688,5605 4946,5636 4965,5639 4982,5640 5002,5640 5089,5640 5163,5620 5238,5576 5293,5545 5334,5509 5373,5459 5534,5255 5774,4901 5937,4444 6201,3702 5865,2893 5216,2876 4566,2859 4328,3540 4328,3540 Z"/>
         <path fill="rgb(255,65,85)" stroke="none" d="M 4328,3540 C 4328,3540 3678,3227 3231,3698 2783,4169 3118,4979 3830,5317 4268,5525 4688,5605 4946,5636 4966,5639 4982,5640 5002,5640 5089,5640 5163,5620 5238,5576 5293,5545 5334,5509 5373,5459 4882,5178 4133,4115 4328,3540 Z"/>
         <path fill="rgb(255,113,134)" stroke="none" d="M 9244,3540 C 9244,3540 9006,2859 8356,2876 7706,2893 7371,3702 7635,4444 7798,4901 8038,5255 8199,5459 8238,5509 8279,5545 8334,5576 8409,5620 8483,5640 8570,5640 8590,5640 8606,5639 8626,5636 8884,5605 9304,5525 9742,5317 10454,4979 10789,4169 10341,3698 9894,3227 9244,3540 9244,3540 Z"/>
         <path fill="rgb(255,65,85)" stroke="none" d="M 8626,5636 C 8477,5090 8700,3809 9244,3540 9244,3540 9006,2859 8356,2876 7706,2893 7371,3702 7635,4444 7798,4901 8038,5255 8199,5459 8238,5509 8279,5545 8334,5576 8409,5620 8483,5640 8570,5640 8590,5640 8606,5639 8626,5636 L 8626,5636 Z"/>
         <path fill="rgb(255,204,125)" stroke="none" d="M 4937,8102 C 4937,8102 4318,7316 3882,6721 3445,6126 3140,4886 3119,4369 3105,4004 3072,2867 3054,2228 3046,1976 2846,1772 2594,1761 2324,1750 2098,1962 2092,2231 2071,3215 2042,5406 2177,6289 2355,7450 2618,8588 3757,9942 L 4937,8102 Z"/>
         <path fill="rgb(245,183,86)" stroke="none" d="M 5584,13447 C 4695,13281 3871,12933 3150,12444 L 3373,11613 C 3557,10927 3398,10192 2941,9648 2939,9645 2937,9642 2934,9639 1795,8286 1532,7147 1354,5987 1278,5490 1254,4579 1251,3702 1249,3020 1260,2359 1269,1929 1275,1659 1503,1446 1773,1459 2026,1471 2224,1684 2231,1938 L 2246,2451 C 2264,3063 2286,3789 2297,4066 2318,4584 2641,5736 3059,6418 3263,6750 3546,7116 3767,7389 3825,7460 3938,7391 3902,7307 L 2980,5176 C 2883,4952 2969,4690 3181,4568 3257,4524 3340,4503 3422,4503 3588,4503 3750,4590 3839,4744 L 4587,6040 C 4819,6440 5103,6806 5428,7136 6748,8474 6378,10482 6378,10482 L 5584,13447 Z"/>
         <path fill="rgb(255,204,125)" stroke="none" d="M 3373,11613 C 3557,10927 3398,10192 2941,9648 2939,9645 2937,9642 2934,9639 1795,8286 1532,7147 1354,5987 1278,5490 1254,4579 1251,3702 1249,3020 1260,2359 1269,1929 1275,1659 1502,1447 1771,1459 1771,1459 1785,2109 1816,2917 1852,3860 1911,5018 2003,5612 2181,6773 2443,7911 3582,9265 L 3589,9274 C 4046,9818 4205,10553 4021,11239 L 3987,11365 C 3827,11962 3944,12569 4259,13048 4002,12939 3792,12834 3551,12695 3407,12612 3288,12537 3150,12444 L 3373,11613 Z"/>
         <path fill="rgb(255,204,125)" stroke="none" d="M 8635,8102 C 8635,8102 9254,7316 9691,6721 10127,6126 10432,4886 10453,4369 10468,4004 10500,2867 10519,2228 10526,1976 10726,1772 10978,1761 11248,1750 11475,1962 11480,2231 11502,3215 11531,5406 11395,6289 11217,7450 10954,8588 9816,9942 L 8635,8102 Z"/>
         <path fill="rgb(245,183,86)" stroke="none" d="M 12218,5987 C 12040,7147 11777,8286 10638,9639 10635,9642 10633,9645 10631,9648 10174,10192 10016,10927 10199,11613 L 10422,12444 C 9701,12933 8877,13281 7989,13447 L 7194,10482 C 7194,10482 6824,8474 8144,7136 8469,6806 8754,6440 8985,6040 L 9733,4744 C 9822,4590 9984,4503 10151,4503 10232,4503 10315,4524 10391,4568 10603,4690 10689,4952 10592,5176 L 9671,7307 C 9634,7391 9747,7460 9805,7389 10027,7116 10309,6750 10513,6418 10931,5736 11255,4584 11275,4066 11287,3789 11308,3063 11326,2451 L 11341,1938 C 11348,1684 11546,1471 11800,1459 12070,1446 12297,1659 12303,1929 12312,2359 12323,3020 12320,3702 12318,4579 12294,5490 12218,5987 Z"/>
         <path fill="rgb(255,204,125)" stroke="none" d="M 12320,3702 C 12318,4579 12294,5490 12218,5987 12040,7147 11777,8286 10638,9639 10635,9642 10633,9645 10631,9648 10174,10192 10016,10927 10199,11613 L 10422,12444 C 10285,12537 10166,12611 10022,12694 9781,12834 9570,12939 9313,13047 9629,12569 9745,11962 9585,11365 L 9552,11239 C 9368,10553 9526,9818 9983,9274 L 9990,9265 C 11129,7911 11392,6773 11570,5612 11661,5018 11721,3860 11757,2917 11788,2109 11801,1459 11801,1459 12070,1447 12297,1659 12303,1929 12312,2359 12323,3020 12320,3702 12321,3702 12320,3702 12320,3702 Z"/>
        </g>
       </g>
      </g>
     </g>
    </g>
   </g>
  </g>
 </g>
</svg>