<svg width="116" height="110" viewBox="0 0 116 110" fill="none" xmlns="http://www.w3.org/2000/svg">
<g id="Group 182">
<path id="Vector" fill-rule="evenodd" clip-rule="evenodd" d="M31.9362 -11.6456C49.7256 -11.7905 68.4288 -22.4902 83.2657 -12.6235C99.7391 -1.66858 109.65 30.4144 106.377 49.9945C103.284 68.4971 67.1224 63.3934 62.2156 78.5788C62.2156 110.721 49.2069 110.509 31.9362 109.828C14.663 109.147 8.77999 86.6395 -1.86331 72.9474C-10.3846 61.9851 -20.452 52.619 -23.1421 38.9724C-26.5576 21.6457 -31.5367 0.12513 -18.5677 -11.7936C-5.65154 -23.6638 14.436 -11.503 31.9362 -11.6456Z" fill="#F7B4DA"/>
<path id="Vector_2" fill-rule="evenodd" clip-rule="evenodd" d="M31.0605 -37.0057C51.0003 -37.168 71.9643 -49.1462 88.5947 -38.1005C107.059 -25.8365 118.169 10.0802 114.5 32C111.033 52.7136 75.3501 43.4242 60 57.6957C45.7857 70.9112 50.4189 99.7461 31.0605 98.9834C11.6993 98.2206 5.10511 73.0239 -6.82477 57.6957C-16.3762 45.4234 -27.6605 34.9381 -30.6757 19.6609C-34.5041 0.26371 -40.0851 -23.8285 -25.5484 -37.1715C-11.0709 -50.4601 11.4448 -36.8461 31.0605 -37.0057Z" stroke="black"/>
</g>
</svg>
