<svg width="289" height="397" viewBox="0 0 289 397" fill="none" xmlns="http://www.w3.org/2000/svg">
<g id="Group 183">
<path id="Vector" fill-rule="evenodd" clip-rule="evenodd" d="M83.9997 224.796C52.5654 173.947 101.027 71.0974 42.6043 58.4284C-16.9536 45.5133 -68.1715 101.545 -109.973 145.891C-150.246 188.616 -179.259 239.919 -183.661 298.468C-188.441 362.048 -178.573 429.512 -134.783 475.855C-90.056 523.188 -21.4982 549.402 42.6043 537.921C78.5 508.296 70.5782 512.694 101.5 462.796C124.496 425.689 184.5 279.296 145.604 246.296C109.5 224.796 104.094 257.301 83.9997 224.796Z" fill="#92B1D8"/>
<path id="Vector_2" fill-rule="evenodd" clip-rule="evenodd" d="M52.8959 163.347C21.4616 112.498 60.423 52.7781 1.99998 40.1091C-57.5579 27.194 -108.776 83.2255 -150.577 127.572C-190.851 170.297 -219.863 221.6 -224.265 280.149C-229.046 343.729 -219.177 411.193 -175.387 457.536C-130.66 504.869 -62.1025 531.083 1.99998 519.602C59.7824 509.253 74.0784 455.397 105 405.5C127.996 368.392 130.448 326.874 125.498 283.5C121.165 245.531 72.9903 195.852 52.8959 163.347Z" stroke="black"/>
</g>
</svg>
