<svg xmlns="http://www.w3.org/2000/svg" height="24" viewBox="0 96 960 960" width="24" style="fill:#ff0000"><path d="M479.882 702Q414 702 368 655.917 322 609.833 322 544V311q0-65.833 46.118-111.917Q414.235 153 480.118 153 546 153 592 199.083 638 245.167 638 311v233q0 65.833-46.118 111.917Q545.765 702 479.882 702ZM480 427Zm-55 570V870q-121-16-199-109.118T148 544h111q0 92 64.701 156.5 64.702 64.5 156.5 64.5Q572 765 636.5 700.357 701 635.715 701 544h111q0 124-78 217T535 870v127H425Zm55-421q13.6 0 22.8-9.2 9.2-9.2 9.2-22.8V311q0-13.6-9.2-22.8-9.2-9.2-22.8-9.2-13.6 0-22.8 9.2-9.2 9.2-9.2 22.8v233q0 13.6 9.2 22.8 9.2 9.2 22.8 9.2Z"/></svg>