<svg width="10" height="42" viewBox="0 0 10 42" fill="none" xmlns="http://www.w3.org/2000/svg">
<path fill-rule="evenodd" clip-rule="evenodd" d="M0 20.6758C0 23.4317 2.24409 25.6758 4.99997 25.6758C7.75591 25.6758 10 23.4317 10 20.6758C10 17.9199 7.75591 15.6758 4.99997 15.6758C2.24409 15.6758 0 17.9199 0 20.6758Z" fill="black"/>
<path fill-rule="evenodd" clip-rule="evenodd" d="M0 36.0596C0 38.8155 2.24409 41.0596 4.99997 41.0596C7.75591 41.0596 10 38.8155 10 36.0596C10 33.3037 7.75591 31.0596 4.99997 31.0596C2.24409 31.0596 0 33.3037 0 36.0596Z" fill="black"/>
<path fill-rule="evenodd" clip-rule="evenodd" d="M0 5.29101C0 8.04694 2.24409 10.291 4.99997 10.291C7.75591 10.291 10 8.04694 10 5.29101C10 2.53509 7.75591 0.291016 4.99997 0.291016C2.24409 0.291016 0 2.53509 0 5.29101Z" fill="black"/>
</svg>
