<svg width="130" height="98" viewBox="0 0 130 98" fill="none" xmlns="http://www.w3.org/2000/svg">
<mask id="mask0_1609_130" style="mask-type:luminance" maskUnits="userSpaceOnUse" x="0" y="0" width="130" height="98">
<path d="M130 0H0V98H130V0Z" fill="white"/>
</mask>
<g mask="url(#mask0_1609_130)">
<path fill-rule="evenodd" clip-rule="evenodd" d="M6.28467 12.6953H62.9597V81.5313H6.28467V12.6953Z" fill="#F7B4DA"/>
<path fill-rule="evenodd" clip-rule="evenodd" d="M46.7668 37.0008C46.7668 39.2208 46.2608 41.1307 45.1508 43.0731C44.0245 44.9993 42.637 46.3868 40.6945 47.5131C38.7683 48.6231 36.8585 49.1455 34.6222 49.1455C32.3859 49.1455 30.4924 48.6231 28.5499 47.5131C26.6237 46.3868 25.2199 44.9993 24.1099 43.0731C22.9999 41.1307 22.4775 39.2208 22.4775 37.0008C22.4775 34.7645 22.9999 32.8547 24.1099 30.9122C25.2199 28.986 26.6237 27.5985 28.5499 26.4722C30.4924 25.3622 32.3859 24.8398 34.6222 24.8398C36.8585 24.8398 38.7683 25.3622 40.6945 26.4722C42.637 27.5985 44.0245 28.986 45.1508 30.9122C46.2608 32.8547 46.7668 34.7645 46.7668 36.9845V37.0008Z" fill="#92B1D8"/>
<path fill-rule="evenodd" clip-rule="evenodd" d="M21.6125 49.1445C20.6657 49.1445 19.8658 49.3731 19.0333 49.8464C18.2009 50.3198 17.5969 50.9238 17.1072 51.7726C16.6338 52.6051 16.4053 53.4376 16.4053 54.4007C16.4053 54.4333 16.4053 54.4497 16.4053 54.4823V77.482H52.8392V54.4823C52.8392 54.4497 52.8392 54.4333 52.8392 54.4007C52.8392 53.4376 52.627 52.6051 52.1373 51.7726C51.6639 50.9238 51.06 50.3198 50.2111 49.8464C49.395 49.3731 48.5951 49.1445 47.6484 49.1445H21.6125Z" fill="#92B1D8"/>
<path fill-rule="evenodd" clip-rule="evenodd" d="M89.2891 45.0973C89.2891 49.9291 88.1791 54.0589 85.7633 58.254C83.3311 62.4491 80.3276 65.4527 76.1324 67.8849C71.9373 70.3007 67.8075 71.4107 62.9594 71.4107C58.1277 71.4107 53.9978 70.3007 49.8027 67.8849C45.6076 65.4527 42.6041 62.4491 40.1719 58.254C37.756 54.0589 36.646 49.9291 36.646 45.0973C36.646 40.2492 37.756 36.1194 40.1719 31.9243C42.6041 27.7292 45.6076 24.7256 49.8027 22.2934C53.9978 19.8776 58.1277 18.7676 62.9594 18.7676C67.8075 18.7676 71.9373 19.8776 76.1324 22.2934C80.3276 24.7256 83.3311 27.7292 85.7633 31.9243C88.1791 36.1194 89.2891 40.2492 89.2891 45.0973Z" fill="#E6EEF3"/>
<path fill-rule="evenodd" clip-rule="evenodd" d="M96.4553 63.3125C96.3574 63.2308 96.2758 63.1819 96.1778 63.1166C95.8513 62.937 95.5412 62.8391 95.1658 62.8391C94.7903 62.8391 94.4802 62.937 94.1537 63.1166C93.9252 63.2472 93.7619 63.3941 93.5987 63.59L93.2233 64.0307L87.4611 59.2642C87.4937 59.1989 87.5101 59.1663 87.5427 59.1173C90.1218 54.6447 91.2971 50.2537 91.3134 45.0955C91.3134 45.0792 91.3134 45.0628 91.3134 45.0465C91.3134 39.823 90.1218 35.3993 87.5101 30.8777C84.8983 26.3561 81.6499 23.1078 77.1447 20.496C72.6231 17.9006 68.1831 16.709 62.9596 16.709C57.7524 16.709 53.3124 17.9006 48.7908 20.496C44.2856 23.1078 41.0372 26.3561 38.4254 30.8777C35.8137 35.3993 34.6221 39.823 34.6221 45.0465C34.6221 50.2537 35.8137 54.6937 38.4254 59.2153C41.0372 63.7369 44.2856 66.9852 48.7908 69.5807C53.3124 72.1924 57.7524 73.384 62.9596 73.384C68.1831 73.384 72.6231 72.1924 77.1447 69.5807C79.1525 68.4217 80.7521 67.2301 82.4335 65.6304L88.0651 70.2662L87.9018 70.4458C87.8365 70.5437 87.7712 70.6254 87.7223 70.7233C87.5264 71.0498 87.4448 71.3599 87.4448 71.7354C87.4448 72.1108 87.5264 72.4209 87.7223 72.7474C87.8528 72.9759 87.9834 73.1392 88.1956 73.3024L114.705 95.2248C114.819 95.3228 114.901 95.388 115.031 95.4533C115.342 95.6492 115.668 95.7308 116.043 95.7308C116.419 95.7308 116.729 95.6492 117.056 95.4533C117.284 95.3228 117.464 95.1758 117.627 94.9636L123.291 88.0751C123.356 88.0098 123.405 87.9282 123.454 87.8466C123.634 87.5201 123.732 87.1937 123.732 86.8346C123.732 86.4591 123.634 86.1326 123.454 85.8225C123.324 85.594 123.177 85.4144 122.965 85.2512L96.4553 63.3125ZM62.9596 69.3848C58.5033 69.3848 54.6999 68.3564 50.8149 66.1201C46.9463 63.8838 44.1713 61.1088 41.935 57.2401C39.6987 53.3551 38.6703 49.5518 38.6703 45.0955C38.6703 40.6228 39.6987 36.8195 41.935 32.9345C44.1713 29.0658 46.9463 26.2909 50.8149 24.0545C54.6999 21.8182 58.5033 20.7898 62.9596 20.7898C67.4322 20.7898 71.2356 21.8182 75.1206 24.0545C78.9892 26.2909 81.7642 29.0658 84.0005 32.9345C86.2368 36.8195 87.2652 40.6228 87.2652 45.0955C87.2652 49.5518 86.2368 53.3551 84.0005 57.2401C81.7642 61.1088 78.9892 63.8838 75.1206 66.1201C71.2356 68.3564 67.4322 69.3848 62.9596 69.3848Z" fill="black"/>
<path fill-rule="evenodd" clip-rule="evenodd" d="M64.9998 55.2163H60.9353V51.315C60.9679 49.6337 61.376 48.2135 62.2085 46.7608C63.09 45.2427 64.1673 44.149 65.6854 43.2839C65.8323 43.2022 65.9466 43.137 66.0772 43.0717C66.2078 43.0064 66.3057 42.9574 66.4037 42.8921C67.2362 42.4024 67.8401 41.8148 68.3298 40.9823C68.8032 40.1498 69.0154 39.3336 69.0154 38.3705C69.0154 37.9624 68.9828 37.6196 68.9011 37.2279C68.7542 36.7218 68.591 36.3137 68.3298 35.8404C67.7912 34.9263 67.1382 34.2733 66.2241 33.751C65.6038 33.3918 65.0325 33.1796 64.3306 33.0654C63.8735 32.9674 63.4654 32.9348 63.0084 32.9348C61.7841 32.9348 60.7394 33.2123 59.6784 33.8163C59.3682 33.9958 59.1234 34.1591 58.8622 34.3876C58.2909 34.812 57.8828 35.2854 57.5237 35.9057C57.0666 36.7055 56.8544 37.489 56.8381 38.4358H52.8389C52.8552 36.7545 53.247 35.3343 54.0794 33.8816C54.6834 32.8369 55.3527 32.0533 56.2831 31.3024C56.7402 30.927 57.1646 30.6495 57.6706 30.3557C59.3682 29.3763 61.0332 28.9355 62.9921 28.9355C63.7429 28.9355 64.3632 28.9845 65.0978 29.1314C66.2567 29.3436 67.2198 29.7027 68.2482 30.2904C69.8153 31.2045 70.9416 32.3308 71.8557 33.8979C72.3291 34.7304 72.6392 35.4649 72.8677 36.379C73.0147 37.0646 73.08 37.6686 73.08 38.3705C73.08 40.0845 72.6882 41.5373 71.823 43.0227C70.9742 44.5244 69.8969 45.5855 68.4114 46.4506C68.2645 46.5322 68.1503 46.5975 68.0034 46.6628C67.8891 46.7281 67.8075 46.7771 67.6932 46.8424C66.8281 47.3321 66.2078 47.9524 65.7181 48.8175C65.2447 49.6174 65.0325 50.4009 64.9998 51.315V55.2163ZM60.9353 59.2645H64.9998V63.3127H60.9353V59.2645Z" fill="#E97272"/>
</g>
</svg>
