<?xml version="1.0" encoding="UTF-8"?>
<svg version="1.2" width="135.73mm" height="135.73mm" viewBox="0 0 13573 13573"
    preserveAspectRatio="xMidYMid" fill-rule="evenodd" stroke-width="28.222" stroke-linejoin="round"
    xmlns="http://www.w3.org/2000/svg" xmlns:ooo="http://xml.openoffice.org/svg/export"
    xmlns:xlink="http://www.w3.org/1999/xlink"
    xmlns:presentation="http://sun.com/xmlns/staroffice/presentation"
    xmlns:smil="http://www.w3.org/2001/SMIL20/"
    xmlns:anim="urn:oasis:names:tc:opendocument:xmlns:animation:1.0" xml:space="preserve">
 <defs class="ClipPathGroup">
  <clipPath id="presentation_clip_path" clipPathUnits="userSpaceOnUse">
   <rect x="0" y="0" width="13573" height="13573"/>
  </clipPath>
  <clipPath id="presentation_clip_path_shrink" clipPathUnits="userSpaceOnUse">
   <rect x="13" y="13" width="13546" height="13546"/>
  </clipPath>
 </defs>
 <defs class="TextShapeIndex">
  <g ooo:slide="id1" ooo:id-list="id3"/>
 </defs>
 <defs class="EmbeddedBulletChars">
  <g id="bullet-char-template-57356" transform="scale(0.00048828125,-0.00048828125)">
   <path d="M 580,1141 L 1163,571 580,0 -4,571 580,1141 Z"/>
  </g>
  <g id="bullet-char-template-57354" transform="scale(0.00048828125,-0.00048828125)">
   <path d="M 8,1128 L 1137,1128 1137,0 8,0 8,1128 Z"/>
  </g>
  <g id="bullet-char-template-10146" transform="scale(0.00048828125,-0.00048828125)">
   <path d="M 174,0 L 602,739 174,1481 1456,739 174,0 Z M 1358,739 L 309,1346 659,739 1358,739 Z"/>
  </g>
  <g id="bullet-char-template-10132" transform="scale(0.00048828125,-0.00048828125)">
   <path d="M 2015,739 L 1276,0 717,0 1260,543 174,543 174,936 1260,936 717,1481 1274,1481 2015,739 Z"/>
  </g>
  <g id="bullet-char-template-10007" transform="scale(0.00048828125,-0.00048828125)">
   <path d="M 0,-2 C -7,14 -16,27 -25,37 L 356,567 C 262,823 215,952 215,954 215,979 228,992 255,992 264,992 276,990 289,987 310,991 331,999 354,1012 L 381,999 492,748 772,1049 836,1024 860,1049 C 881,1039 901,1025 922,1006 886,937 835,863 770,784 769,783 710,716 594,584 L 774,223 C 774,196 753,168 711,139 L 727,119 C 717,90 699,76 672,76 641,76 570,178 457,381 L 164,-76 C 142,-110 111,-127 72,-127 30,-127 9,-110 8,-76 1,-67 -2,-52 -2,-32 -2,-23 -1,-13 0,-2 Z"/>
  </g>
  <g id="bullet-char-template-10004" transform="scale(0.00048828125,-0.00048828125)">
   <path d="M 285,-33 C 182,-33 111,30 74,156 52,228 41,333 41,471 41,549 55,616 82,672 116,743 169,778 240,778 293,778 328,747 346,684 L 369,508 C 377,444 397,411 428,410 L 1163,1116 C 1174,1127 1196,1133 1229,1133 1271,1133 1292,1118 1292,1087 L 1292,965 C 1292,929 1282,901 1262,881 L 442,47 C 390,-6 338,-33 285,-33 Z"/>
  </g>
  <g id="bullet-char-template-9679" transform="scale(0.00048828125,-0.00048828125)">
   <path d="M 813,0 C 632,0 489,54 383,161 276,268 223,411 223,592 223,773 276,916 383,1023 489,1130 632,1184 813,1184 992,1184 1136,1130 1245,1023 1353,916 1407,772 1407,592 1407,412 1353,268 1245,161 1136,54 992,0 813,0 Z"/>
  </g>
  <g id="bullet-char-template-8226" transform="scale(0.00048828125,-0.00048828125)">
   <path d="M 346,457 C 273,457 209,483 155,535 101,586 74,649 74,723 74,796 101,859 155,911 209,963 273,989 346,989 419,989 480,963 531,910 582,859 608,796 608,723 608,648 583,586 532,535 482,483 420,457 346,457 Z"/>
  </g>
  <g id="bullet-char-template-8211" transform="scale(0.00048828125,-0.00048828125)">
   <path d="M -4,459 L 1135,459 1135,606 -4,606 -4,459 Z"/>
  </g>
  <g id="bullet-char-template-61548" transform="scale(0.00048828125,-0.00048828125)">
   <path d="M 173,740 C 173,903 231,1043 346,1159 462,1274 601,1332 765,1332 928,1332 1067,1274 1183,1159 1299,1043 1357,903 1357,740 1357,577 1299,437 1183,322 1067,206 928,148 765,148 601,148 462,206 346,322 231,437 173,577 173,740 Z"/>
  </g>
 </defs>
 <defs class="TextEmbeddedBitmaps"/>
 <g>
  <g id="id2" class="Master_Slide">
   <g id="bg-id2" class="Background"/>
   <g id="bo-id2" class="BackgroundObjects"/>
  </g>
 </g>
 <g class="SlideGroup">
  <g>
   <g id="container-id1">
    <g id="id1" class="Slide" clip-path="url(#presentation_clip_path)">
     <g class="Page">
      <g class="Graphic">
       <g id="id3">
        <rect class="BoundingBox" stroke="none" fill="none" x="0" y="0" width="13573" height="13573"/>
        <path fill="rgb(196,196,196)" stroke="none" d="M 9310,10133 L 8018,10133 C 7799,10133 7622,10311 7622,10530 L 7622,12409 9707,12409 9707,10530 C 9707,10311 9530,10133 9310,10133 L 9310,10133 Z"/>
        <path fill="rgb(146,177,216)" stroke="none" d="M 10104,12806 L 8018,12806 C 7799,12806 7622,12628 7622,12409 7622,12190 7799,12012 8018,12012 L 10104,12012 C 10323,12012 10501,12190 10501,12409 10501,12628 10323,12806 10104,12806 L 10104,12806 Z"/>
        <path fill="rgb(240,211,209)" stroke="none" d="M 13162,2964 L 6278,2964 C 6059,2964 5881,3142 5881,3361 L 5881,5832 C 5881,6545 5608,7224 5113,7745 5090,7769 5073,7791 5057,7820 5020,7883 5003,7945 5003,8018 5003,8091 5020,8153 5057,8217 5093,8280 5139,8325 5202,8362 5228,8377 5252,8388 5282,8397 L 6874,8895 C 6974,8932 7078,9027 7147,9144 7183,9206 7228,9250 7290,9286 7354,9323 7416,9340 7489,9340 7489,9340 7489,9340 7489,9340 L 13162,9340 C 13381,9340 13559,9162 13559,8943 L 13559,3361 C 13559,3142 13381,2964 13162,2964 Z"/>
        <path fill="rgb(146,177,216)" stroke="none" d="M 7147,9144 C 7197,9229 7225,9318 7225,9394 L 7225,10530 C 7225,10749 7402,10927 7622,10927 L 13162,10927 C 13381,10927 13559,10749 13559,10530 L 13559,8943 7092,8943 C 7092,9012 7110,9082 7147,9144 L 7147,9144 Z"/>
        <path fill="rgb(231,188,138)" stroke="none" d="M 11857,4155 L 11118,4155 C 10658,4155 10258,4418 10060,4801 9862,4418 9462,4155 9002,4155 L 8263,4155 C 8043,4155 7866,4332 7866,4552 L 7866,6958 C 7866,7177 8043,7355 8263,7355 L 11857,7355 C 12076,7355 12254,7177 12254,6958 L 12254,4552 C 12254,4332 12076,4155 11857,4155 L 11857,4155 Z"/>
        <path fill="rgb(235,173,100)" stroke="none" d="M 11857,4155 L 11118,4155 C 10658,4155 10258,4418 10060,4801 L 10060,7355 11857,7355 C 12076,7355 12254,7177 12254,6958 L 12254,4552 C 12254,4332 12076,4155 11857,4155 L 11857,4155 Z"/>
        <path fill="rgb(245,183,86)" stroke="none" d="M 8018,12806 L 8018,9394 C 8018,8867 7628,8318 7131,8144 7127,8143 7123,8141 7118,8140 L 5296,7570 C 5255,7557 5220,7552 5177,7552 5177,7552 5177,7552 5177,7552 L 2853,7552 C 2813,7552 2773,7558 2735,7570 L 913,8140 C 909,8141 905,8143 901,8144 403,8318 13,8867 13,9394 L 13,12409 C 13,12628 191,12806 410,12806 L 8018,12806 Z"/>
        <path fill="rgb(216,141,182)" stroke="none" d="M 6617,10303 L 6034,7801 5296,7570 C 5255,7557 5220,7552 5177,7552 5177,7552 5177,7552 5177,7552 L 4080,7552 4080,12806 6034,12806 C 6034,12806 6621,10304 6617,10303 Z"/>
        <path fill="rgb(233,114,114)" stroke="none" d="M 7118,8140 L 6034,7801 6034,12806 8018,12806 8018,9394 C 8018,8867 7628,8318 7131,8144 7127,8143 7123,8141 7118,8140 Z"/>
        <path fill="rgb(216,141,182)" stroke="none" d="M 1998,7801 L 913,8140 C 909,8141 905,8143 901,8144 403,8318 13,8867 13,9394 L 13,12409 C 13,12628 191,12806 410,12806 L 1998,12806 1998,7801 Z"/>
        <path fill="rgb(90,214,255)" stroke="none" d="M 1486,3361 L 1486,9007 C 1486,9226 1664,9404 1883,9404 L 3103,9404 C 5073,9404 6675,7801 6675,5832 L 6675,3361 C 6675,1930 5511,766 4080,766 2650,766 1486,1930 1486,3361 Z"/>
        <path fill="rgb(146,177,216)" stroke="none" d="M 4080,9268 C 5576,8842 6675,7463 6675,5832 L 6675,3361 C 6675,1930 5511,766 4080,766 L 4080,9268 Z"/>
        <path fill="rgb(241,193,220)" stroke="none" d="M 7866,6958 L 7866,7355 C 7866,7573 8044,7752 8263,7752 L 11857,7752 C 12075,7752 12254,7573 12254,7355 L 12254,6958 7866,6958 Z"/>
        <path fill="rgb(247,180,218)" stroke="none" d="M 10060,6958 L 10060,7752 11857,7752 C 12075,7752 12254,7573 12254,7355 L 12254,6958 10060,6958 Z"/>
       </g>
      </g>
     </g>
    </g>
   </g>
  </g>
 </g>
</svg>