<?xml version="1.0" encoding="UTF-8"?>
<svg version="1.2" width="135.73mm" height="135.73mm" viewBox="0 0 13573 13573"
    preserveAspectRatio="xMidYMid" fill-rule="evenodd" stroke-width="28.222" stroke-linejoin="round"
    xmlns="http://www.w3.org/2000/svg" xmlns:ooo="http://xml.openoffice.org/svg/export"
    xmlns:xlink="http://www.w3.org/1999/xlink"
    xmlns:presentation="http://sun.com/xmlns/staroffice/presentation"
    xmlns:smil="http://www.w3.org/2001/SMIL20/"
    xmlns:anim="urn:oasis:names:tc:opendocument:xmlns:animation:1.0" xml:space="preserve">
 <defs class="ClipPathGroup">
  <clipPath id="presentation_clip_path" clipPathUnits="userSpaceOnUse">
   <rect x="0" y="0" width="13573" height="13573"/>
  </clipPath>
  <clipPath id="presentation_clip_path_shrink" clipPathUnits="userSpaceOnUse">
   <rect x="13" y="13" width="13546" height="13546"/>
  </clipPath>
 </defs>
 <defs class="TextShapeIndex">
  <g ooo:slide="id1" ooo:id-list="id3"/>
 </defs>
 <defs class="EmbeddedBulletChars">
  <g id="bullet-char-template-57356" transform="scale(0.00048828125,-0.00048828125)">
   <path d="M 580,1141 L 1163,571 580,0 -4,571 580,1141 Z"/>
  </g>
  <g id="bullet-char-template-57354" transform="scale(0.00048828125,-0.00048828125)">
   <path d="M 8,1128 L 1137,1128 1137,0 8,0 8,1128 Z"/>
  </g>
  <g id="bullet-char-template-10146" transform="scale(0.00048828125,-0.00048828125)">
   <path d="M 174,0 L 602,739 174,1481 1456,739 174,0 Z M 1358,739 L 309,1346 659,739 1358,739 Z"/>
  </g>
  <g id="bullet-char-template-10132" transform="scale(0.00048828125,-0.00048828125)">
   <path d="M 2015,739 L 1276,0 717,0 1260,543 174,543 174,936 1260,936 717,1481 1274,1481 2015,739 Z"/>
  </g>
  <g id="bullet-char-template-10007" transform="scale(0.00048828125,-0.00048828125)">
   <path d="M 0,-2 C -7,14 -16,27 -25,37 L 356,567 C 262,823 215,952 215,954 215,979 228,992 255,992 264,992 276,990 289,987 310,991 331,999 354,1012 L 381,999 492,748 772,1049 836,1024 860,1049 C 881,1039 901,1025 922,1006 886,937 835,863 770,784 769,783 710,716 594,584 L 774,223 C 774,196 753,168 711,139 L 727,119 C 717,90 699,76 672,76 641,76 570,178 457,381 L 164,-76 C 142,-110 111,-127 72,-127 30,-127 9,-110 8,-76 1,-67 -2,-52 -2,-32 -2,-23 -1,-13 0,-2 Z"/>
  </g>
  <g id="bullet-char-template-10004" transform="scale(0.00048828125,-0.00048828125)">
   <path d="M 285,-33 C 182,-33 111,30 74,156 52,228 41,333 41,471 41,549 55,616 82,672 116,743 169,778 240,778 293,778 328,747 346,684 L 369,508 C 377,444 397,411 428,410 L 1163,1116 C 1174,1127 1196,1133 1229,1133 1271,1133 1292,1118 1292,1087 L 1292,965 C 1292,929 1282,901 1262,881 L 442,47 C 390,-6 338,-33 285,-33 Z"/>
  </g>
  <g id="bullet-char-template-9679" transform="scale(0.00048828125,-0.00048828125)">
   <path d="M 813,0 C 632,0 489,54 383,161 276,268 223,411 223,592 223,773 276,916 383,1023 489,1130 632,1184 813,1184 992,1184 1136,1130 1245,1023 1353,916 1407,772 1407,592 1407,412 1353,268 1245,161 1136,54 992,0 813,0 Z"/>
  </g>
  <g id="bullet-char-template-8226" transform="scale(0.00048828125,-0.00048828125)">
   <path d="M 346,457 C 273,457 209,483 155,535 101,586 74,649 74,723 74,796 101,859 155,911 209,963 273,989 346,989 419,989 480,963 531,910 582,859 608,796 608,723 608,648 583,586 532,535 482,483 420,457 346,457 Z"/>
  </g>
  <g id="bullet-char-template-8211" transform="scale(0.00048828125,-0.00048828125)">
   <path d="M -4,459 L 1135,459 1135,606 -4,606 -4,459 Z"/>
  </g>
  <g id="bullet-char-template-61548" transform="scale(0.00048828125,-0.00048828125)">
   <path d="M 173,740 C 173,903 231,1043 346,1159 462,1274 601,1332 765,1332 928,1332 1067,1274 1183,1159 1299,1043 1357,903 1357,740 1357,577 1299,437 1183,322 1067,206 928,148 765,148 601,148 462,206 346,322 231,437 173,577 173,740 Z"/>
  </g>
 </defs>
 <defs class="TextEmbeddedBitmaps"/>
 <g>
  <g id="id2" class="Master_Slide">
   <g id="bg-id2" class="Background"/>
   <g id="bo-id2" class="BackgroundObjects"/>
  </g>
 </g>
 <g class="SlideGroup">
  <g>
   <g id="container-id1">
    <g id="id1" class="Slide" clip-path="url(#presentation_clip_path)">
     <g class="Page">
      <g class="Graphic">
       <g id="id3">
        <rect class="BoundingBox" stroke="none" fill="none" x="0" y="0" width="13573" height="13573"/>
        <path fill="rgb(240,211,209)" stroke="none" d="M 8056,13135 L 2553,13135 C 2397,13135 2265,13100 2130,13022 1995,12944 1898,12847 1820,12712 1742,12577 1706,12445 1706,12289 L 1706,1283 C 1706,1127 1742,995 1820,860 1898,725 1995,628 2130,550 2265,472 2397,437 2553,437 L 8056,437 C 8212,437 8344,472 8479,550 8614,628 8711,725 8789,860 8867,995 8902,1127 8902,1283 L 8902,12289 C 8902,12445 8867,12577 8789,12712 8711,12847 8614,12944 8479,13022 8344,13100 8212,13135 8056,13135 Z"/>
        <path fill="rgb(245,183,86)" stroke="none" d="M 8902,10384 L 13135,10384 13135,5304 10172,5304 10172,2976 10172,2976 C 9939,2976 9740,3030 9537,3146 9335,3263 9190,3409 9073,3611 8956,3814 8902,4012 8902,4246 L 8902,10384 Z M 1706,5939 L 1706,5939 C 1706,6056 1680,6156 1621,6257 1563,6358 1490,6431 1389,6489 1288,6548 1188,6574 1071,6574 955,6574 855,6548 754,6489 653,6431 580,6358 522,6257 463,6156 437,6056 437,5939 L 437,5939 C 437,5823 463,5723 522,5622 580,5521 653,5448 754,5390 855,5331 955,5304 1071,5304 1188,5304 1288,5331 1389,5390 1490,5448 1563,5521 1621,5622 1680,5723 1706,5823 1706,5939 L 1706,5939 1706,5939 Z"/>
        <path fill="rgb(245,183,86)" stroke="none" d="M 1706,7209 L 1706,7209 C 1706,7326 1680,7426 1621,7527 1563,7628 1490,7701 1389,7759 1288,7818 1188,7844 1071,7844 955,7844 855,7818 754,7759 653,7701 580,7628 522,7527 463,7426 437,7326 437,7209 L 437,7209 C 437,7092 463,6993 522,6892 580,6791 653,6718 754,6659 855,6601 955,6574 1071,6574 1188,6574 1288,6601 1389,6659 1490,6718 1563,6791 1621,6892 1680,6993 1706,7092 1706,7209 L 1706,7209 1706,7209 Z"/>
        <path fill="rgb(245,183,86)" stroke="none" d="M 1706,8479 L 1706,8479 C 1706,8596 1680,8695 1621,8797 1563,8898 1490,8971 1389,9029 1288,9088 1188,9114 1071,9114 955,9114 855,9088 754,9029 653,8971 580,8898 522,8797 463,8695 437,8596 437,8479 L 437,8479 C 437,8362 463,8263 522,8162 580,8060 653,7988 754,7929 855,7871 955,7844 1071,7844 1188,7844 1288,7871 1389,7929 1490,7988 1563,8060 1621,8162 1680,8263 1706,8362 1706,8479 L 1706,8479 1706,8479 Z"/>
        <path fill="rgb(245,183,86)" stroke="none" d="M 1706,9749 L 1706,9749 C 1706,9866 1680,9965 1621,10067 1563,10168 1490,10241 1389,10299 1288,10357 1188,10384 1071,10384 955,10384 855,10357 754,10299 653,10241 580,10168 522,10067 463,9965 437,9866 437,9749 L 437,9749 C 437,9632 463,9533 522,9432 580,9330 653,9258 754,9199 855,9141 955,9114 1071,9114 1188,9114 1288,9141 1389,9199 1490,9258 1563,9330 1621,9432 1680,9533 1706,9632 1706,9749 L 1706,9749 1706,9749 Z"/>
        <path fill="rgb(146,177,216)" stroke="none" d="M 8902,1706 L 1706,1706 1706,1283 C 1706,1127 1742,995 1820,860 1898,725 1995,628 2130,550 2265,472 2397,437 2553,437 L 8056,437 C 8212,437 8344,472 8479,550 8614,628 8711,725 8789,860 8867,995 8902,1127 8902,1283 L 8902,1706 Z M 1706,11866 L 8902,11866 8902,12289 C 8902,12445 8867,12577 8789,12712 8711,12847 8614,12944 8479,13022 8344,13100 8212,13135 8056,13135 L 2553,13135 C 2397,13135 2265,13100 2130,13022 1995,12944 1898,12847 1820,12712 1742,12577 1706,12445 1706,12289 L 1706,11866 Z"/>
        <path fill="rgb(235,173,100)" stroke="none" d="M 2553,3188 L 4670,3188 4670,4881 2553,4881 2553,3188 Z M 5939,5939 L 8056,5939 8056,7633 5939,7633 5939,5939 Z"/>
        <path fill="rgb(58,66,73)" stroke="none" d="M 5304,2976 L 8268,2976 8268,3399 5304,3399 5304,2976 Z M 5304,3823 L 8268,3823 8268,4246 5304,4246 5304,3823 Z M 5304,4669 L 7421,4669 7421,5093 5304,5093 5304,4669 Z"/>
        <path fill="rgb(235,173,100)" stroke="none" d="M 2553,8691 L 4670,8691 4670,10384 2553,10384 2553,8691 Z"/>
        <path fill="rgb(58,66,73)" stroke="none" d="M 5304,8479 L 8268,8479 8268,8902 5304,8902 5304,8479 Z M 5304,9326 L 8268,9326 8268,9749 5304,9749 5304,9326 Z M 5304,10172 L 5728,10172 5728,10595 5304,10595 5304,10172 Z M 2341,5728 L 5304,5728 5304,6151 2341,6151 2341,5728 Z M 2341,6574 L 5304,6574 5304,6997 2341,6997 2341,6574 Z M 2341,7421 L 5304,7421 5304,7844 2341,7844 2341,7421 Z M 7844,4669 L 8268,4669 8268,5093 7844,5093 7844,4669 Z M 6151,10172 L 6574,10172 6574,10595 6151,10595 6151,10172 Z M 6998,10172 L 7421,10172 7421,10595 6998,10595 6998,10172 Z M 7844,10172 L 8268,10172 8268,10595 7844,10595 7844,10172 Z"/>
       </g>
      </g>
     </g>
    </g>
   </g>
  </g>
 </g>
</svg>