<svg width="175" height="240" viewBox="0 0 175 240" fill="none" xmlns="http://www.w3.org/2000/svg">
<g id="Group 184">
<path id="Vector" fill-rule="evenodd" clip-rule="evenodd" d="M59.4488 -1.20617C82.1007 -22.8734 112.981 -29.413 142.265 -30.8204C170.814 -32.1925 203.164 -30.9163 218.252 -8.83809C232.494 12.0029 229.097 51.3421 226.994 78.3518C224.931 104.862 223.211 123.026 206.232 145.577C188.13 169.622 154.746 184.168 127.835 179.126C103.18 174.508 95.569 124.595 77.9929 108.1C63 90 59.4488 114 35.9999 78.3514C25.5 48.5 36.3355 20.9025 59.4488 -1.20617Z" fill="#92CDC8"/>
<path id="Vector_2" fill-rule="evenodd" clip-rule="evenodd" d="M116.532 -48.8241C150.016 -53.6718 180.545 -31.3673 205.295 -8.38905C224.572 9.50777 229.828 35.5987 235.184 61.3324C240.103 84.9599 241.65 107.977 234.307 130.986C224.308 162.313 217.892 202.469 186.729 213.155C155.228 223.957 123.085 199.046 97.4081 177.928C76.1939 160.48 95.8816 138.604 86.0001 113C74.1043 82.1765 23.7248 47.3412 35.0155 16.263C47.3423 -17.667 80.7446 -43.6431 116.532 -48.8241Z" stroke="black"/>
</g>
</svg>
