<svg width="135" height="168" viewBox="0 0 135 168" fill="none" xmlns="http://www.w3.org/2000/svg">
<g id="Group 189">
<path id="Vector" fill-rule="evenodd" clip-rule="evenodd" d="M100.236 13.5C79.827 15.59 60.0989 39.6377 45 53.5004C28.7653 68.4059 7.37993 58.0302 2.5 79.5004C-3.44404 105.652 4.67368 152.177 23.8652 170.945C42.9846 189.644 73.469 182.861 100.236 182.547C126.497 182.239 155.289 186.683 174.832 169.174C194.992 151.11 201.364 121.587 198.252 94.7273C195.436 70.414 178.125 51.4824 159.373 35.7092C142.514 21.5289 122.169 11.254 100.236 13.5Z" fill="#F49E4D"/>
<path id="Vector_2" fill-rule="evenodd" clip-rule="evenodd" d="M111.364 1.00017C140.848 0.905624 151.078 40.3509 167.432 64.8122C179.151 82.3421 188.936 99.792 191.398 120.716C194.288 145.269 201.072 175.29 182.337 191.482C163.749 207.548 135.948 188.985 111.364 189.886C84.799 190.86 57.3037 211.264 34.9717 196.886C10.9678 181.431 -0.488057 148.863 3.9322 120.716C8.00726 94.767 38.0913 84.7441 55.6565 65.1706C75.3246 43.2537 81.8687 1.09475 111.364 1.00017Z" stroke="black"/>
</g>
</svg>
