<svg width="188" height="189" viewBox="0 0 188 189" fill="none" xmlns="http://www.w3.org/2000/svg">
<g id="spring 1">
<g id="Group">
<g id="Group_2">
<g id="container-id1">
<g id="id1">
<g id="Group_3">
<g id="Group_4">
<g id="id3">
<path id="Vector" fill-rule="evenodd" clip-rule="evenodd" d="M67.5655 139.915C67.3617 139.773 62.7742 136.281 59.0982 131.072C53.9602 123.77 53.1315 116.679 56.7243 110.559C57.8102 108.696 59.8832 106.638 63.785 105.836C62.8303 101.961 62.9393 98.1624 64.6163 94.8307C65.8368 92.3938 68.5905 89.5366 74.7468 88.8797C72.8492 83.9923 72.0455 78.462 74.1042 73.0413C75.9951 68.0859 79.9135 64.8662 85.5654 63.5767C83.7226 57.2581 84.6957 51.7573 88.4203 47.6002C93.5951 41.823 103.057 41.9262 116.536 47.9147C126.039 52.1397 134.053 57.7631 134.395 58.0028C135.406 58.7104 135.644 60.1042 134.937 61.1148C134.229 62.1253 132.829 62.3721 131.819 61.6645L131.811 61.6588C131.55 61.4762 123.666 55.9799 114.66 51.9816C106.771 48.4863 96.3976 45.4007 91.7551 50.5912C88.968 53.7043 88.3952 57.87 90.0532 62.9783C90.067 62.9758 90.0752 62.9815 90.0809 62.9734C97.4035 62.6109 106.585 64.8495 115.281 69.1168C123.925 73.3718 130.358 78.7382 132.904 83.8613C134.804 87.6695 134.513 91.3641 132.095 94.2622C130.497 96.1798 127.367 98.239 121.556 97.1705C115.493 96.0465 107.978 91.7924 100.924 85.4926C94.7619 79.9999 89.8879 73.7085 87.1688 67.8087C82.6581 68.6827 79.6828 70.9718 78.2853 74.6328C76.6464 78.9508 77.416 83.9228 79.6143 88.8143C91.6543 89.6417 108.559 97.1548 112.991 105.882C114.587 109.015 114.404 112.19 112.486 114.807C111.007 116.832 107.144 119.471 97.9456 114.464C91.1355 110.764 83.9508 104.13 79.1942 97.1678C78.3744 95.9623 77.549 94.6434 76.7781 93.2291C73.7012 93.3216 70.0162 94.0571 68.6196 96.8322C67.2777 99.5119 67.5291 102.639 68.3552 105.501C68.6143 105.513 68.8874 105.522 69.1547 105.539C79.4864 106.239 94.8297 113.97 98.3854 122.508C99.7013 125.677 99.2608 128.769 97.1347 131.216C94.0786 134.748 88.515 134.228 81.8655 129.779C75.5257 125.546 68.6004 117.952 65.2491 110.128C63.3435 110.421 61.5486 111.18 60.5947 112.82C54.058 123.96 70.0927 136.22 70.2581 136.348C71.2459 137.088 71.4429 138.489 70.7027 139.477C69.9657 140.442 68.6086 140.646 67.6307 139.961L67.5655 139.915ZM70.2145 110.131C70.5339 110.768 70.8493 111.341 71.1467 111.853C74.3043 117.282 79.3635 122.719 84.3463 126.063C88.6959 128.975 92.3855 129.846 93.7518 128.276C94.7667 127.104 94.9169 125.849 94.2447 124.224C91.7645 118.261 79.7701 111.332 70.2145 110.131ZM100.073 110.524C104.285 112.817 107.896 113.488 108.876 112.158C109.451 111.37 110.1 110.063 109.004 107.899C107.345 104.648 102.583 100.938 96.2607 97.9804C91.6266 95.8043 86.663 94.2722 82.2292 93.5967C86.7567 100.678 93.7531 107.095 100.073 110.524ZM122.372 92.7619C125.327 93.3125 127.446 92.8531 128.66 91.3959C129.461 90.4261 130.368 88.8018 128.898 85.8535C124.828 77.6844 106.267 67.5057 91.9419 67.41C98.1518 79.3736 113.016 91.0327 122.372 92.7619Z" fill="#D8D128"/>
</g>
</g>
</g>
</g>
</g>
</g>
</g>
</g>
</svg>
