<svg width="174" height="171" viewBox="0 0 174 171" fill="none" xmlns="http://www.w3.org/2000/svg">
<path fill-rule="evenodd" clip-rule="evenodd" d="M89.1792 16.1536C109.895 16.2662 132.729 13.6579 147.803 27.8366C163.125 42.2483 164.717 65.3425 163.789 86.3322C162.91 106.233 156.123 125.006 142.851 139.886C128.668 155.788 110.503 170.619 89.1792 169.98C68.2172 169.351 53.8241 151.194 38.6392 136.761C22.8535 121.758 2.89825 108.017 1.17114 86.3322C-0.637069 63.6292 12.0823 41.4139 29.9127 27.1958C46.2333 14.1815 68.2874 16.04 89.1792 16.1536Z" stroke="black"/>
<path fill-rule="evenodd" clip-rule="evenodd" d="M82.4914 0.0505876C106.078 -1.33847 118.498 26.2006 134.796 42.994C150.42 59.0924 174.188 72.1041 173.999 94.3379C173.81 116.516 153.063 133.037 133.928 144.83C118.729 154.196 100.429 150.233 82.4914 150.732C63.6086 151.256 42.7553 159.422 28.0607 147.769C12.715 135.6 9.80793 113.642 11.3776 94.3379C12.8269 76.5144 25.2693 63.1764 36.1078 48.8061C50.1203 30.2274 58.9847 1.43497 82.4914 0.0505876Z" fill="#ECEAEA"/>
<g clip-path="url(#clip0_1544_124)">
<mask id="mask0_1544_124" style="mask-type:luminance" maskUnits="userSpaceOnUse" x="3" y="11" width="159" height="159">
<path d="M162 11H3V170H162V11Z" fill="white"/>
</mask>
<g mask="url(#mask0_1544_124)">
<path fill-rule="evenodd" clip-rule="evenodd" d="M159.353 50.9472L152.312 49.7757C136.416 47.1049 123.354 42.4074 109.39 34.3478C99.0232 28.3618 90.9285 22.1297 82.4941 13.6367C74.0597 22.1297 65.9651 28.3618 55.5978 34.3478C41.6342 42.4074 28.5726 47.1049 12.6761 49.7757L5.63574 50.9472C10.6964 95.134 33.9027 131.636 69.5965 157.877L82.4941 167.354L98.5898 154.901C132.374 128.766 154.268 93.6111 159.353 51.0526V50.9472Z" fill="#B7C3D3"/>
<path fill-rule="evenodd" clip-rule="evenodd" d="M5.63574 50.9472C10.6964 95.134 33.9027 131.636 69.5965 157.877L82.4941 167.354V13.6367C74.0597 22.1297 65.9651 28.3618 55.5978 34.3478C41.6342 42.4074 28.5726 47.1049 12.6761 49.7757L5.63574 50.9472Z" fill="#92B1D8"/>
<path fill-rule="evenodd" clip-rule="evenodd" d="M151.738 137.785C151.738 141.885 150.801 145.387 148.751 148.937C146.689 152.498 144.135 155.052 140.574 157.102C137.025 159.164 133.534 160.101 129.422 160.101C125.31 160.101 121.819 159.164 118.258 157.102C114.709 155.052 112.155 152.498 110.093 148.937C108.043 145.387 107.106 141.885 107.106 137.785C107.106 133.673 108.043 130.182 110.093 126.621C112.155 123.071 114.709 120.506 118.258 118.456C121.819 116.406 125.31 115.469 129.422 115.469C133.534 115.469 137.025 116.406 140.574 118.456C144.135 120.506 146.689 123.071 148.751 126.621C150.801 130.182 151.738 133.673 151.738 137.785Z" fill="#5AD6FF"/>
<path fill-rule="evenodd" clip-rule="evenodd" d="M124.28 147.285C122.499 146.254 121.222 144.978 120.191 143.197C119.16 141.405 118.692 139.659 118.692 137.597C118.692 135.547 119.16 133.79 120.191 132.01C121.222 130.229 122.499 128.952 124.28 127.921C125.838 127.019 127.337 126.562 129.129 126.445C130.968 126.457 132.538 126.879 134.131 127.804C135.279 128.472 136.146 129.21 136.978 130.241L133.136 133.392C132.714 132.841 132.257 132.443 131.648 132.092C130.851 131.623 130.055 131.412 129.129 131.401C128.251 131.506 127.536 131.752 126.775 132.197C125.779 132.771 125.064 133.486 124.49 134.481C123.905 135.477 123.647 136.449 123.647 137.597C123.647 138.745 123.905 139.729 124.49 140.725C125.064 141.721 125.779 142.436 126.775 143.01C127.536 143.455 128.251 143.689 129.129 143.794C130.055 143.794 130.851 143.572 131.648 143.115C132.257 142.764 132.714 142.365 133.136 141.815L136.978 144.966C136.146 145.997 135.279 146.735 134.131 147.402C132.538 148.316 130.968 148.75 129.129 148.761C127.337 148.644 125.838 148.187 124.28 147.285Z" fill="#E6E6E6"/>
<path fill-rule="evenodd" clip-rule="evenodd" d="M80.0107 48.3457H84.9776V55.2924H80.0107V48.3457ZM47.7843 80.5721H54.731V85.539H47.7843V80.5721ZM110.257 80.5721H117.204V85.539H110.257V80.5721ZM56.1836 60.271L59.6862 56.7684L64.6062 61.6767L61.0919 65.1793L56.1836 60.271ZM100.359 104.458L103.861 100.955L108.77 105.864L105.267 109.366L100.359 104.458ZM56.1836 105.84L61.0919 100.932L64.5945 104.446L59.6862 109.354L56.1836 105.84ZM100.359 61.6767L105.267 56.7684L108.77 60.271L103.861 65.1793L100.359 61.6767Z" fill="#FFDB66"/>
<path fill-rule="evenodd" clip-rule="evenodd" d="M101.823 71.2713C99.7612 67.7101 97.2075 65.1563 93.6463 63.1063C90.0968 61.0446 86.6059 60.1191 82.4942 60.1191C82.2482 60.1191 82.049 60.1191 81.803 60.1309C77.9841 60.2831 74.7743 61.2203 71.4592 63.1297C67.8628 65.2032 65.2739 67.7921 63.2005 71.3884C61.1505 74.9379 60.2133 78.4054 60.1782 82.5054C60.2016 86.582 61.127 90.0378 63.1653 93.5638C65.2154 97.125 67.7691 99.6788 71.3303 101.729C71.7637 101.975 72.1269 102.174 72.572 102.397V114.79C72.572 116.618 72.9938 118.164 73.9075 119.746C74.8212 121.327 75.9575 122.463 77.539 123.377C79.1204 124.291 80.6667 124.713 82.4942 124.713C84.3216 124.713 85.8679 124.291 87.4494 123.377C89.0308 122.463 90.1671 121.327 91.0808 119.746C91.9946 118.164 92.4163 116.618 92.4163 114.79V102.397C92.8614 102.174 93.2246 101.975 93.658 101.729C97.2192 99.6788 99.7729 97.125 101.823 93.5638C103.873 90.0144 104.81 86.5235 104.81 82.4234C104.81 78.3234 103.873 74.8325 101.823 71.2713Z" fill="#FFD04D"/>
<path fill-rule="evenodd" clip-rule="evenodd" d="M92.4163 107.352V114.79C92.4046 115.856 92.264 116.758 91.9126 117.766C91.7837 118.269 91.6314 118.668 91.3971 119.136C91.28 119.359 91.1863 119.558 91.0574 119.781C90.6122 120.554 90.1437 121.151 89.5111 121.784C88.8551 122.44 88.2342 122.92 87.4376 123.389C85.8562 124.291 84.3099 124.712 82.4941 124.712C80.6667 124.712 79.1204 124.291 77.5507 123.389C75.9692 122.475 74.8446 121.339 73.9309 119.769C73.802 119.546 73.7083 119.359 73.5912 119.136C73.3569 118.668 73.2046 118.269 73.0757 117.766C72.7243 116.758 72.5837 115.856 72.572 114.79V107.352H92.4163Z" fill="#738CA6"/>
<path fill-rule="evenodd" clip-rule="evenodd" d="M92.4163 112.811V114.79C92.4046 115.856 92.264 116.758 91.9126 117.766H73.0757C72.7243 116.758 72.5837 115.856 72.572 114.79V112.811H92.4163Z" fill="#7C97B3"/>
</g>
</g>
<defs>
<clipPath id="clip0_1544_124">
<rect width="159" height="159" fill="white" transform="translate(3 11)"/>
</clipPath>
</defs>
</svg>
