<svg width="166" height="156" viewBox="0 0 166 156" fill="none" xmlns="http://www.w3.org/2000/svg">
<path fill-rule="evenodd" clip-rule="evenodd" d="M71.5325 10.4789C98.8252 7.47994 131.955 -9.34626 150.77 10.6216C169.616 30.6224 150.835 62.6683 146.216 89.7398C142.775 109.913 143.325 132.58 127.704 145.827C112.745 158.513 91.07 154.94 71.5325 153.075C54.4894 151.448 37.2966 148.1 25.1647 136.038C13.0096 123.953 10.478 106.662 7.83177 89.7398C4.4358 68.0226 -5.77155 43.4518 8.00602 26.3088C22.2061 8.64006 48.9802 12.957 71.5325 10.4789Z" stroke="black"/>
<path fill-rule="evenodd" clip-rule="evenodd" d="M80.9639 2.10884C99.7811 3.97187 116.437 12.9889 130.866 26.5853C147.016 41.8038 166.607 58.6592 165.986 82.226C165.37 105.576 144.658 120.498 128.014 134.687C114.151 146.506 98.3912 153.693 80.9639 154.711C62.351 155.798 42.5654 154.39 28.7113 140.488C14.302 126.028 10.0045 103.794 8.72939 82.226C7.34025 58.7292 6.36344 32.3478 21.3363 15.7411C36.29 -0.844484 59.9544 0.0287577 80.9639 2.10884Z" fill="#F7B4DA"/>
<g clip-path="url(#clip0_1547_249)">
<mask id="mask0_1547_249" style="mask-type:luminance" maskUnits="userSpaceOnUse" x="8" y="1" width="145" height="145">
<path d="M153 1H8V146H153V1Z" fill="white"/>
</mask>
<g mask="url(#mask0_1547_249)">
<mask id="mask1_1547_249" style="mask-type:luminance" maskUnits="userSpaceOnUse" x="11" y="1" width="139" height="145">
<path d="M11.2476 1.13867H149.742V145.85H11.2476V1.13867Z" fill="white"/>
</mask>
<g mask="url(#mask1_1547_249)">
<path fill-rule="evenodd" clip-rule="evenodd" d="M11.2476 76.6045C11.2476 100.449 23.3087 121.484 41.6514 133.94H56.5755L67.643 144.655C72.1085 145.488 75.9437 145.851 80.484 145.851C80.4947 145.851 80.4947 145.851 80.4947 145.851C84.8854 145.851 89.1799 145.435 93.3463 144.655L104.414 133.94H119.338C137.681 121.484 149.742 100.449 149.742 76.6045C149.742 38.3594 118.74 7.35742 80.4947 7.35742C42.2496 7.35742 11.2476 38.3594 11.2476 76.6045Z" fill="#92B1D8"/>
<path fill-rule="evenodd" clip-rule="evenodd" d="M80.4946 114.763C52.3984 114.763 29.6223 91.987 29.6223 63.8908C29.6223 35.7839 52.3984 13.0078 80.4946 13.0078C108.591 13.0078 131.367 35.7839 131.367 63.8908C131.367 91.987 108.591 114.763 80.4946 114.763Z" fill="#5AD6FF"/>
<path fill-rule="evenodd" clip-rule="evenodd" d="M80.4947 5.69018C80.4947 5.69018 74.181 -1.37126 66.3718 2.10071C58.5625 5.57267 58.5625 17.0889 65.5065 24.77C69.7797 29.5025 74.4802 32.5899 77.45 34.2565C78.4222 34.812 79.373 35.0577 80.4947 35.0577C81.6164 35.0577 82.5565 34.812 83.5393 34.2565C86.5092 32.5899 91.2097 29.5025 95.4829 24.77C102.416 17.0889 102.416 5.57267 94.6176 2.10071C86.8083 -1.37126 80.4947 5.69018 80.4947 5.69018Z" fill="#FF7186"/>
<path fill-rule="evenodd" clip-rule="evenodd" d="M83.5393 34.2565C78.9777 28.3808 75.2387 11.694 80.4947 5.69018C80.4947 5.69018 74.181 -1.37126 66.3718 2.10071C58.5625 5.57267 58.5625 17.0889 65.5065 24.77C69.7797 29.5025 74.4802 32.5899 77.45 34.2565C78.4222 34.812 79.373 35.0577 80.4947 35.0577C81.6164 35.0577 82.5565 34.812 83.5393 34.2565Z" fill="#FF4155"/>
<path fill-rule="evenodd" clip-rule="evenodd" d="M54.2359 38.8175C54.2359 38.8175 47.2919 35.4738 42.5167 40.5055C37.7307 45.5371 41.3095 54.1903 48.9158 57.8012C53.5949 60.0232 58.0817 60.8779 60.838 61.2091C61.0409 61.2411 61.2225 61.2518 61.4362 61.2518C62.3656 61.2518 63.1562 61.0381 63.9574 60.5681C64.5449 60.2369 64.9829 59.8523 65.3996 59.3182C67.1195 57.1388 69.6835 53.3571 71.4248 48.4749C74.2451 40.5482 70.6556 31.9057 63.7224 31.724C56.7784 31.5424 54.2359 38.8175 54.2359 38.8175Z" fill="#FF7186"/>
<path fill-rule="evenodd" clip-rule="evenodd" d="M54.2359 38.8174C54.2359 38.8174 47.2919 35.4736 42.5167 40.5053C37.7307 45.537 41.3095 54.1902 48.9158 57.801C53.5949 60.0231 58.0817 60.8777 60.838 61.2089C61.0516 61.2409 61.2225 61.2516 61.4362 61.2516C62.3656 61.2516 63.1562 61.038 63.9574 60.5679C64.5449 60.2367 64.9829 59.8521 65.3996 59.318C60.1542 56.3161 52.1527 44.9601 54.2359 38.8174Z" fill="#FF4155"/>
<path fill-rule="evenodd" clip-rule="evenodd" d="M106.753 38.8175C106.753 38.8175 104.211 31.5424 97.2669 31.724C90.323 31.9057 86.7442 40.5482 89.5645 48.4749C91.3058 53.3571 93.8697 57.1388 95.5897 59.3182C96.0063 59.8523 96.4443 60.2369 97.0319 60.5681C97.8331 61.0381 98.6237 61.2518 99.5531 61.2518C99.7667 61.2518 99.9377 61.2411 100.151 61.2091C102.908 60.8779 107.394 60.0232 112.074 57.8012C119.68 54.1903 123.259 45.5371 118.473 40.5055C113.697 35.4738 106.753 38.8175 106.753 38.8175Z" fill="#FF7186"/>
<path fill-rule="evenodd" clip-rule="evenodd" d="M100.151 61.2091C98.5596 55.3761 100.942 41.6913 106.753 38.8175C106.753 38.8175 104.211 31.5424 97.2669 31.724C90.323 31.9057 86.7442 40.5482 89.5645 48.4749C91.3058 53.3571 93.8697 57.1388 95.5897 59.3182C96.0063 59.8523 96.4443 60.2369 97.0319 60.5681C97.8331 61.0381 98.6237 61.2518 99.5531 61.2518C99.7667 61.2518 99.9377 61.2411 100.151 61.2091Z" fill="#FF4155"/>
<path fill-rule="evenodd" clip-rule="evenodd" d="M60.7418 87.5537C60.7418 87.5537 54.1291 79.1569 49.4713 72.8005C44.8028 66.4441 41.5445 53.1973 41.3202 47.6742C41.1706 43.7749 40.8181 31.6283 40.6258 24.8019C40.5403 22.1098 38.4037 19.9305 35.7116 19.813C32.8272 19.6955 30.4129 21.9602 30.3488 24.834C30.1244 35.346 29.8146 58.7524 31.2568 68.1855C33.1584 80.5884 35.968 92.7456 48.1359 107.21L60.7418 87.5537Z" fill="#FFCC7D"/>
<path fill-rule="evenodd" clip-rule="evenodd" d="M67.6537 144.654C58.1566 142.88 49.3538 139.163 41.6514 133.939L44.0337 125.061C45.9994 117.732 44.3008 109.881 39.4186 104.069C39.3973 104.037 39.3759 104.005 39.3439 103.973C27.176 89.5188 24.3663 77.3509 22.4648 64.9586C21.6529 59.6492 21.3965 49.917 21.3644 40.548C21.3431 33.2622 21.4606 26.2008 21.5567 21.6071C21.6208 18.7227 24.0565 16.4472 26.9409 16.5861C29.6437 16.7143 31.759 18.9898 31.8337 21.7033L31.994 27.1836C32.1863 33.7216 32.4213 41.4774 32.5388 44.4366C32.7632 49.9704 36.2138 62.2772 40.6792 69.563C42.8586 73.1097 45.8818 77.0197 48.2428 79.9361C48.8624 80.6946 50.0696 79.9575 49.685 79.0601L39.8353 56.2947C38.799 53.9017 39.7178 51.1028 41.9826 49.7995C42.7945 49.3294 43.6812 49.1051 44.5572 49.1051C46.3305 49.1051 48.0612 50.0345 49.012 51.6797L57.0028 65.5248C59.4813 69.798 62.5152 73.708 65.9872 77.2333C80.0887 91.5272 76.136 112.979 76.136 112.979L67.6537 144.654Z" fill="#F5B756"/>
<path fill-rule="evenodd" clip-rule="evenodd" d="M44.0337 125.062C45.9994 117.734 44.3008 109.882 39.4186 104.07C39.3973 104.038 39.3759 104.006 39.3439 103.974C27.176 89.5199 24.3663 77.352 22.4648 64.9597C21.6529 59.6503 21.3965 49.9181 21.3644 40.5491C21.3431 33.2633 21.4606 26.2019 21.5567 21.6082C21.6208 18.7238 24.0458 16.459 26.9196 16.5872C26.9196 16.5872 27.0691 23.5311 27.4003 32.163C27.7849 42.237 28.4152 54.6079 29.398 60.9536C31.2996 73.3565 34.0985 85.5138 46.2664 99.9785L46.3412 100.075C51.2233 105.886 52.9219 113.738 50.9563 121.067L50.593 122.413C48.8838 128.79 50.1337 135.275 53.4988 140.392C50.7533 139.228 48.5099 138.106 45.9353 136.621C44.3969 135.734 43.1256 134.933 41.6514 133.94L44.0337 125.062Z" fill="#FFCC7D"/>
<path fill-rule="evenodd" clip-rule="evenodd" d="M100.247 87.5537C100.247 87.5537 106.86 79.1569 111.529 72.8005C116.186 66.4441 119.445 53.1973 119.669 47.6742C119.829 43.7749 120.171 31.6283 120.374 24.8019C120.449 22.1098 122.586 19.9305 125.278 19.813C128.162 19.6955 130.587 21.9602 130.64 24.834C130.876 35.346 131.185 58.7524 129.732 68.1855C127.831 80.5884 125.021 92.7456 112.864 107.21L100.247 87.5537Z" fill="#FFCC7D"/>
<path fill-rule="evenodd" clip-rule="evenodd" d="M138.525 64.9586C136.623 77.3509 133.813 89.5188 121.645 103.973C121.613 104.005 121.592 104.037 121.571 104.069C116.689 109.881 115.001 117.732 116.956 125.061L119.338 133.939C111.636 139.163 102.833 142.88 93.3463 144.654L84.8533 112.979C84.8533 112.979 80.9006 91.5272 95.0021 77.2333C98.4741 73.708 101.519 69.798 103.987 65.5248L111.977 51.6797C112.928 50.0345 114.659 49.1051 116.443 49.1051C117.308 49.1051 118.195 49.3294 119.007 49.7995C121.272 51.1028 122.19 53.9017 121.154 56.2947L111.315 79.0601C110.92 79.9575 112.127 80.6946 112.747 79.9361C115.118 77.0197 118.131 73.1097 120.31 69.563C124.776 62.2772 128.237 49.9704 128.451 44.4366C128.579 41.4774 128.803 33.7216 128.995 27.1836L129.156 21.7033C129.23 18.9898 131.346 16.7143 134.059 16.5861C136.943 16.4472 139.369 18.7227 139.433 21.6071C139.529 26.2008 139.646 33.2622 139.614 40.548C139.593 49.917 139.336 59.6492 138.525 64.9586Z" fill="#F5B756"/>
<path fill-rule="evenodd" clip-rule="evenodd" d="M139.614 40.5491C139.593 49.9181 139.336 59.6503 138.525 64.9597C136.623 77.352 133.813 89.5199 121.645 103.974C121.613 104.006 121.592 104.038 121.571 104.07C116.689 109.882 115.001 117.734 116.956 125.062L119.338 133.94C117.874 134.933 116.603 135.724 115.065 136.61C112.49 138.106 110.236 139.228 107.491 140.382C110.866 135.275 112.106 128.79 110.396 122.413L110.044 121.067C108.078 113.738 109.766 105.886 114.648 100.075L114.723 99.9785C126.891 85.5138 129.7 73.3565 131.602 60.9536C132.574 54.6079 133.215 42.237 133.6 32.163C133.931 23.5311 134.07 16.5872 134.07 16.5872C136.943 16.459 139.369 18.7238 139.433 21.6082C139.529 26.2019 139.646 33.2633 139.614 40.5491Z" fill="#FFCC7D"/>
</g>
</g>
</g>
<defs>
<clipPath id="clip0_1547_249">
<rect width="145" height="145" fill="white" transform="translate(8 1)"/>
</clipPath>
</defs>
</svg>
