<svg width="168" height="167" viewBox="0 0 168 167" fill="none" xmlns="http://www.w3.org/2000/svg">
<path fill-rule="evenodd" clip-rule="evenodd" d="M95.2943 8.7345C116.386 10.1954 138.774 14.0923 152.389 30.3401C165.29 45.7357 161.479 67.5712 161.461 87.6955C161.444 107.791 165.285 129.674 152.289 144.95C138.658 160.971 116.11 168.094 95.2943 165.467C76.2794 163.067 65.7747 144.459 51.0223 132.17C33.389 117.481 6.28856 110.287 1.93124 87.6955C-2.76233 63.3605 10.8677 37.8094 29.7436 21.8452C47.4613 6.86066 72.1886 7.1341 95.2943 8.7345Z" stroke="black"/>
<path fill-rule="evenodd" clip-rule="evenodd" d="M87.8176 0.0408288C107.985 -0.913283 124.074 15.0295 138.412 29.5458C152.835 44.1486 168.309 60.4786 167.995 81.2179C167.685 101.776 151.562 117.26 136.874 131.319C122.826 144.766 107.053 158.818 87.8176 157.963C69.0702 157.129 56.5979 140.188 42.8555 127.138C28.262 113.279 7.25441 101.568 7.0023 81.2179C6.74929 60.795 27.4451 48.443 41.7032 34.1211C55.7659 19.9954 68.1142 0.972998 87.8176 0.0408288Z" fill="#92CDC8"/>
<g clip-path="url(#clip0_1547_248)">
<mask id="mask0_1547_248" style="mask-type:luminance" maskUnits="userSpaceOnUse" x="34" y="22" width="120" height="120">
<path d="M154 22H34V142H154V22Z" fill="white"/>
</mask>
<g mask="url(#mask0_1547_248)">
<path fill-rule="evenodd" clip-rule="evenodd" d="M137.444 77.8589C137.444 87.3813 135.274 95.4687 130.508 103.716C125.752 111.962 119.826 117.888 111.579 122.645C103.332 127.411 95.2446 129.581 85.7222 129.581C76.1998 129.581 68.1035 127.411 59.8566 122.645C51.6187 117.888 45.6926 111.962 40.927 103.716C36.1702 95.4687 34 87.3813 34 77.8589C34 68.3365 36.1702 60.2402 40.927 52.0022C45.6926 43.7554 51.6187 37.8293 59.8566 33.0637C68.1035 28.3069 76.1998 26.1367 85.7222 26.1367C95.2446 26.1367 103.332 28.3069 111.579 33.0637C119.826 37.8293 125.752 43.7554 130.508 51.9934C135.274 60.2402 137.444 68.3365 137.444 77.8589Z" fill="#FF6D7A"/>
<path fill-rule="evenodd" clip-rule="evenodd" d="M41.7597 83.0312C41.7597 87.4957 42.3354 91.8361 43.425 95.9817C44.3108 99.392 39.4388 101.084 38.057 97.8419C35.2401 91.2072 34 85.0952 34 77.8847C34 77.8758 34 77.867 34 77.8581C34 49.3441 57.5624 25.9411 86.0853 26.136C89.602 26.1625 89.9386 31.3002 86.4662 31.7963C62.328 35.2598 41.7597 55.8813 41.7597 83.0312Z" fill="#FF8C95"/>
<path fill-rule="evenodd" clip-rule="evenodd" d="M124.512 77.8578C124.512 84.9973 122.882 91.0651 119.312 97.248C115.742 103.44 111.304 107.878 105.112 111.447C98.9295 115.017 92.8617 116.647 85.7221 116.647C78.5826 116.647 72.5059 115.017 66.323 111.447C60.1401 107.878 55.6934 103.44 52.1236 97.248C48.5538 91.0651 46.9327 84.9973 46.9327 77.8578C46.9327 70.7182 48.5538 64.6504 52.1236 58.4586C55.6934 52.2757 60.1401 47.8378 66.323 44.2592C72.5059 40.6894 78.5826 39.0684 85.7221 39.0684C92.8617 39.0684 98.9295 40.6894 105.112 44.2592C111.304 47.8378 115.742 52.2757 119.312 58.4586C122.882 64.6504 124.512 70.7182 124.512 77.8578Z" fill="#E9E9E9"/>
<path fill-rule="evenodd" clip-rule="evenodd" d="M49.9976 92.8821C39.1022 67.2912 58.4128 38.8657 86.0056 39.0694C89.5488 39.096 89.9829 44.216 86.5017 44.8715C65.6852 48.8222 50.8037 69.1691 55.5516 91.1371C56.3046 94.6094 51.3883 96.1596 49.9976 92.8821Z" fill="#EEF7FF"/>
<path fill-rule="evenodd" clip-rule="evenodd" d="M153.991 113.804C153.991 118.233 152.981 121.997 150.767 125.824C148.552 129.659 145.797 132.414 141.962 134.629C138.135 136.843 134.371 137.853 129.942 137.853C125.513 137.853 121.748 136.843 117.912 134.629C114.086 132.414 111.331 129.659 109.116 125.824C106.902 121.997 105.892 118.233 105.892 113.804C105.892 109.374 106.902 105.61 109.116 101.774C111.331 97.9387 114.086 95.1839 117.912 92.9782C121.748 90.7637 125.513 89.7539 129.942 89.7539C134.371 89.7539 138.135 90.7637 141.962 92.9782C145.797 95.1839 148.552 97.9387 150.767 101.774C152.981 105.61 153.991 109.374 153.991 113.804Z" fill="#BEFA91"/>
<path fill-rule="evenodd" clip-rule="evenodd" d="M108.346 124.407C106.707 121.058 105.812 117.276 105.901 113.272C106.175 100.41 116.699 89.9136 129.64 89.7541C132.617 89.7187 133.21 93.944 130.331 94.7324C118.205 98.0984 110.534 110.145 113.094 122.75C113.687 125.665 109.657 127.073 108.346 124.407Z" fill="#DAFFBF"/>
<path fill-rule="evenodd" clip-rule="evenodd" d="M120.428 116.788C120.304 116.664 120.215 116.549 120.136 116.399C119.941 116.062 119.852 115.743 119.852 115.362C119.852 114.981 119.941 114.653 120.136 114.326C120.322 113.998 120.561 113.759 120.889 113.573C121.216 113.378 121.544 113.289 121.925 113.289C122.306 113.289 122.625 113.378 122.961 113.573C123.139 113.67 123.28 113.785 123.422 113.936L127.258 117.958L136.753 108.462C136.886 108.329 137.01 108.231 137.17 108.143C137.506 107.948 137.825 107.859 138.206 107.859C138.587 107.859 138.915 107.948 139.243 108.143C139.57 108.329 139.809 108.568 139.995 108.896C140.19 109.224 140.279 109.551 140.279 109.932C140.279 110.313 140.19 110.632 139.995 110.969C139.907 111.128 139.809 111.252 139.677 111.385L128.684 122.378C127.86 123.202 126.522 123.184 125.725 122.342L120.428 116.788Z" fill="#9CEB63"/>
</g>
<mask id="mask1_1547_248" style="mask-type:luminance" maskUnits="userSpaceOnUse" x="34" y="22" width="120" height="120">
<path d="M34 22H153.991V141.991H34V22Z" fill="white"/>
</mask>
<g mask="url(#mask1_1547_248)">
<path d="M99.58 79.3V77.3H110.56V79.3H99.58ZM103.92 83.48V73.18H106.18V83.48H103.92Z" fill="black"/>
<path d="M68.128 87.432V69.256L69.344 69.8L64.512 72.424L63.456 69.48L69.376 66.28H71.616V87.432H68.128ZM64.064 89V85.672H75.392V89H64.064ZM86.6378 89C85.4858 89 84.3978 88.808 83.3738 88.424C82.3711 88.0187 81.4964 87.4747 80.7498 86.792C80.0031 86.088 79.4164 85.256 78.9898 84.296C78.5631 83.3147 78.3498 82.248 78.3498 81.096C78.3498 80.3707 78.4458 79.6133 78.6378 78.824C78.8511 78.0347 79.1498 77.2133 79.5338 76.36C79.9391 75.5067 80.4084 74.632 80.9418 73.736C81.4751 72.8187 82.0724 71.9013 82.7338 70.984L86.1578 66.216H89.8058L89.9338 66.536L85.5178 72.456C84.8138 73.4373 84.1738 74.4187 83.5978 75.4C83.0218 76.36 82.5311 77.2987 82.1258 78.216C81.7418 79.112 81.4644 79.9333 81.2938 80.68L80.0138 77.768C80.4404 77.1067 80.9097 76.5093 81.4218 75.976C81.9551 75.4427 82.5311 74.984 83.1498 74.6C83.7898 74.1947 84.4724 73.8853 85.1978 73.672C85.9444 73.4587 86.7338 73.352 87.5658 73.352C88.9098 73.352 90.1364 73.6827 91.2458 74.344C92.3551 74.984 93.2404 75.8587 93.9018 76.968C94.5844 78.0773 94.9258 79.3147 94.9258 80.68C94.9258 82.2373 94.5738 83.6453 93.8698 84.904C93.1871 86.1627 92.2271 87.1653 90.9898 87.912C89.7524 88.6373 88.3018 89 86.6378 89ZM86.6378 85.8C87.5551 85.8 88.3871 85.608 89.1338 85.224C89.9018 84.84 90.4991 84.296 90.9258 83.592C91.3738 82.8667 91.5978 82.0347 91.5978 81.096C91.5978 80.328 91.3844 79.6027 90.9578 78.92C90.5311 78.216 89.9444 77.6507 89.1978 77.224C88.4724 76.776 87.6404 76.552 86.7018 76.552C85.6991 76.552 84.8138 76.7653 84.0458 77.192C83.2991 77.5973 82.7124 78.1413 82.2858 78.824C81.8804 79.5067 81.6778 80.2533 81.6778 81.064C81.6778 81.9173 81.8804 82.7067 82.2858 83.432C82.7124 84.1573 83.2884 84.7333 84.0138 85.16C84.7604 85.5867 85.6351 85.8 86.6378 85.8Z" fill="black"/>
</g>
</g>
<defs>
<clipPath id="clip0_1547_248">
<rect width="120" height="120" fill="white" transform="translate(34 22)"/>
</clipPath>
</defs>
</svg>
