<svg width="249" height="169" viewBox="0 0 249 169" fill="none" xmlns="http://www.w3.org/2000/svg">
<path fill-rule="evenodd" clip-rule="evenodd" d="M121.276 24.6573C136.278 28.6669 142.637 44.6544 154.388 54.7831C168.032 66.5442 191.281 70.1172 194.536 87.8079C197.929 106.246 182.012 121.896 169.273 135.679C155.793 150.265 140.989 164.434 121.276 167.073C98.9419 170.062 74.5918 166.151 58.3987 150.521C42.0252 134.716 38.112 110.51 39.1574 87.8079C40.1507 66.2391 46.7773 43.787 63.9212 30.6031C79.7454 18.434 101.975 19.4986 121.276 24.6573Z" stroke="black"/>
<path fill-rule="evenodd" clip-rule="evenodd" d="M96.8259 16.6775C118.025 12.5569 137.33 28.027 153.055 41.5667C169.305 55.5591 185.733 72.2625 184.975 92.5765C184.23 112.518 165.943 127.126 149.369 140.243C134.247 152.211 116.834 160.931 96.8259 162.337C74.9562 163.874 48.8592 164.002 35.4598 148.247C22.4629 132.965 32.2277 111.277 37.4958 92.5765C41.1865 79.4751 51.8187 70.599 60.4411 59.5686C72.3996 44.2705 76.6116 20.6067 96.8259 16.6775Z" fill="#F49E4D"/>
<mask id="mask0_1543_1127" style="mask-type:luminance" maskUnits="userSpaceOnUse" x="0" y="20" width="147" height="148">
<path d="M147 20.7646L0 20.7646L0 167.765H147V20.7646Z" fill="white"/>
</mask>
<g mask="url(#mask0_1543_1127)">
<path fill-rule="evenodd" clip-rule="evenodd" d="M100.83 130.509H86.8375C84.4657 130.509 82.5487 132.437 82.5487 134.808V155.159H105.13V134.808C105.13 132.437 103.213 130.509 100.83 130.509Z" fill="#C4C4C4"/>
<path fill-rule="evenodd" clip-rule="evenodd" d="M109.43 159.458H86.8375C84.4657 159.458 82.5487 157.53 82.5487 155.158C82.5487 152.786 84.4657 150.858 86.8375 150.858H109.43C111.801 150.858 113.729 152.786 113.729 155.158C113.729 157.53 111.801 159.458 109.43 159.458Z" fill="#92B1D8"/>
<path fill-rule="evenodd" clip-rule="evenodd" d="M142.549 52.8662H67.9928C65.621 52.8662 63.6932 54.794 63.6932 57.1658V83.9276C63.6932 91.6496 60.7365 99.0034 55.3755 104.646C55.1264 104.906 54.9423 105.144 54.769 105.458C54.3683 106.141 54.1841 106.812 54.1841 107.603C54.1841 108.393 54.3683 109.065 54.769 109.758C55.1589 110.44 55.6571 110.928 56.3394 111.328C56.621 111.491 56.8809 111.61 57.2058 111.707L74.4477 117.101C75.5307 117.502 76.6571 118.53 77.4044 119.798C77.7943 120.469 78.2816 120.946 78.9531 121.336C79.6462 121.736 80.3177 121.92 81.1083 121.92H142.549C144.921 121.92 146.848 119.993 146.848 117.621V57.1658C146.848 54.794 144.921 52.8662 142.549 52.8662Z" fill="#F0D3D1"/>
<path fill-rule="evenodd" clip-rule="evenodd" d="M77.4043 119.797C77.9458 120.718 78.2491 121.681 78.2491 122.505V134.808C78.2491 137.18 80.1661 139.107 82.5487 139.107H142.549C144.921 139.107 146.848 137.18 146.848 134.808V117.62H76.8087C76.8087 118.367 77.0036 119.126 77.4043 119.797Z" fill="#92B1D8"/>
<path fill-rule="evenodd" clip-rule="evenodd" d="M128.415 65.7646H120.412C115.43 65.7646 111.097 68.613 108.953 72.761C106.809 68.613 102.477 65.7646 97.4946 65.7646H89.491C87.1083 65.7646 85.1913 67.6816 85.1913 70.0643V96.122C85.1913 98.4939 87.1083 100.422 89.491 100.422H128.415C130.787 100.422 132.715 98.4939 132.715 96.122V70.0643C132.715 67.6816 130.787 65.7646 128.415 65.7646Z" fill="#E7BC8A"/>
<path fill-rule="evenodd" clip-rule="evenodd" d="M128.415 65.7646H120.412C115.43 65.7646 111.097 68.613 108.953 72.761V100.422H128.415C130.787 100.422 132.715 98.4939 132.715 96.122V70.0643C132.715 67.6816 130.787 65.7646 128.415 65.7646Z" fill="#EBAD64"/>
<path fill-rule="evenodd" clip-rule="evenodd" d="M86.8376 159.458V122.505C86.8376 116.798 82.6137 110.852 77.2311 108.967C77.1877 108.956 77.1444 108.935 77.0903 108.924L57.3574 102.751C56.9134 102.61 56.5343 102.556 56.0686 102.556H30.8989C30.4657 102.556 30.0325 102.621 29.621 102.751L9.8881 108.924C9.84478 108.935 9.80146 108.956 9.75814 108.967C4.36463 110.852 0.140808 116.798 0.140808 122.505L0.140808 155.159C0.140808 157.53 2.06861 159.458 4.44045 159.458H86.8376Z" fill="#F5B756"/>
<path fill-rule="evenodd" clip-rule="evenodd" d="M71.6643 132.35L65.3502 105.252L57.3574 102.751C56.9134 102.61 56.5343 102.556 56.0686 102.556H44.1877V159.458H65.3502C65.3502 159.458 71.7076 132.361 71.6643 132.35Z" fill="#D88DB6"/>
<path fill-rule="evenodd" clip-rule="evenodd" d="M77.0902 108.923L65.3502 105.252V159.458H86.8375V122.505C86.8375 116.797 82.6137 110.851 77.231 108.967C77.1877 108.956 77.1444 108.934 77.0902 108.923Z" fill="#E97272"/>
<path fill-rule="evenodd" clip-rule="evenodd" d="M21.639 105.252L9.8881 108.923C9.84478 108.934 9.80146 108.956 9.75814 108.967C4.36463 110.851 0.140808 116.797 0.140808 122.505L0.140808 155.158C0.140808 157.53 2.06861 159.458 4.44045 159.458H21.639V105.252Z" fill="#D88DB6"/>
<path fill-rule="evenodd" clip-rule="evenodd" d="M16.0939 57.1652L16.0939 118.313C16.0939 120.685 18.0217 122.613 20.3935 122.613H33.6065C54.9422 122.613 72.2924 105.252 72.2924 83.927V57.1652C72.2924 41.667 59.6859 29.0605 44.1877 29.0605C28.7004 29.0605 16.0939 41.667 16.0939 57.1652Z" fill="#5AD6FF"/>
<path fill-rule="evenodd" clip-rule="evenodd" d="M44.1877 121.14C60.3899 116.526 72.2924 101.591 72.2924 83.927V57.1652C72.2924 41.667 59.6859 29.0605 44.1877 29.0605V121.14Z" fill="#92B1D8"/>
<path fill-rule="evenodd" clip-rule="evenodd" d="M85.1913 96.1221V100.422C85.1913 102.783 87.1191 104.721 89.491 104.721H128.415C130.776 104.721 132.715 102.783 132.715 100.422V96.1221H85.1913Z" fill="#F1C1DC"/>
<path fill-rule="evenodd" clip-rule="evenodd" d="M108.953 96.1221V104.721H128.415C130.776 104.721 132.715 102.783 132.715 100.422V96.1221H108.953Z" fill="#F7B4DA"/>
</g>
<g clip-path="url(#clip0_1543_1127)">
<mask id="mask1_1543_1127" style="mask-type:luminance" maskUnits="userSpaceOnUse" x="120" y="0" width="129" height="129">
<path d="M248.688 27.1951L147.195 0L120 101.493L221.493 128.688L248.688 27.1951Z" fill="white"/>
</mask>
<g mask="url(#mask1_1543_1127)">
<path fill-rule="evenodd" clip-rule="evenodd" d="M181.117 114.359L139.968 103.333C138.801 103.021 137.884 102.494 137.031 101.641C136.178 100.787 135.647 99.8672 135.334 98.7015C135.022 97.5357 135.017 96.4765 135.329 95.31L157.381 13.0116C157.694 11.8451 158.227 10.9302 159.081 10.077C159.935 9.22379 160.855 8.69281 162.02 8.38005C163.186 8.06728 164.243 8.07005 165.41 8.38261L206.559 19.4085C207.726 19.7211 208.642 20.2473 209.496 21.101C210.349 21.9547 210.88 22.8744 211.193 24.0402C211.505 25.2059 211.503 26.2631 211.19 27.4296L189.138 109.728C188.826 110.895 188.299 111.811 187.446 112.665C186.592 113.518 185.672 114.049 184.507 114.362C183.341 114.674 182.284 114.672 181.117 114.359Z" fill="#F0D3D1"/>
<path fill-rule="evenodd" clip-rule="evenodd" d="M192.955 95.4835L224.608 103.965L234.786 65.9787L212.63 60.042L217.294 42.6341C215.552 42.1673 213.956 42.1723 212.206 42.633C210.461 43.1032 209.084 43.9044 207.804 45.1804C206.523 46.4639 205.722 47.8363 205.253 49.5861L192.955 95.4835ZM148.052 47.8276C147.818 48.7025 147.423 49.3982 146.78 50.0352C146.144 50.6742 145.451 51.0738 144.58 51.3051C143.707 51.544 142.907 51.538 142.032 51.3036C141.164 51.0712 140.469 50.6764 139.832 50.0328C139.193 49.3968 138.793 48.7047 138.562 47.8332C138.323 46.9598 138.329 46.1599 138.563 45.285C138.796 44.4176 139.19 43.722 139.834 43.0849C140.47 42.4459 141.162 42.0463 142.034 41.815C142.907 41.5762 143.709 41.5746 144.576 41.807C145.451 42.0415 146.145 42.4437 146.782 43.0873C147.421 43.7233 147.821 44.4155 148.052 45.2869C148.291 46.1604 148.285 46.9602 148.052 47.8276Z" fill="#F5B756"/>
<path fill-rule="evenodd" clip-rule="evenodd" d="M145.508 57.3241C145.273 58.1989 144.879 58.8946 144.235 59.5316C143.599 60.1707 142.907 60.5703 142.035 60.8016C141.162 61.0404 140.362 61.0345 139.487 60.8C138.62 60.5676 137.924 60.1728 137.287 59.5293C136.648 58.8932 136.249 58.2011 136.017 57.3297C135.778 56.4562 135.784 55.6564 136.019 54.7815C136.253 53.9066 136.646 53.2184 137.289 52.5814C137.926 51.9424 138.618 51.5428 139.491 51.3039C140.363 51.0726 141.164 51.0711 142.032 51.3035C142.907 51.5379 143.6 51.9402 144.239 52.5762C144.876 53.2198 145.276 53.9119 145.507 54.7834C145.746 55.6568 145.742 56.4492 145.508 57.3241Z" fill="#F5B756"/>
<path fill-rule="evenodd" clip-rule="evenodd" d="M142.963 66.8211C142.729 67.696 142.336 68.3842 141.69 69.0287C141.054 69.6677 140.362 70.0673 139.491 70.2987C138.617 70.5375 137.817 70.5315 136.943 70.2971C136.075 70.0647 135.38 69.6699 134.743 69.0264C134.103 68.3903 133.704 67.6982 133.473 66.8267C133.236 65.9458 133.24 65.1534 133.474 64.2785C133.709 63.4037 134.101 62.7155 134.745 62.0785C135.383 61.432 136.073 61.0398 136.946 60.801C137.818 60.5697 138.62 60.5681 139.487 60.8006C140.362 61.035 141.056 61.4372 141.695 62.0733C142.332 62.7169 142.733 63.4015 142.963 64.2804C143.202 65.1539 143.198 65.9463 142.963 66.8211Z" fill="#F5B756"/>
<path fill-rule="evenodd" clip-rule="evenodd" d="M140.419 76.3172C140.184 77.1921 139.791 77.8803 139.146 78.5248C138.51 79.1638 137.818 79.5634 136.946 79.7948C136.075 80.0261 135.273 80.0276 134.398 79.7932C133.531 79.5608 132.837 79.1585 132.198 78.5225C131.559 77.8864 131.159 77.1943 130.928 76.3228C130.691 75.4419 130.695 74.6495 130.93 73.7746C131.164 72.8998 131.557 72.2116 132.2 71.5746C132.838 70.928 133.528 70.5359 134.402 70.2971C135.273 70.0658 136.075 70.0642 136.943 70.2967C137.818 70.5311 138.511 70.9333 139.15 71.5694C139.787 72.2129 140.189 72.8976 140.418 73.7765C140.657 74.65 140.653 75.4424 140.419 76.3172Z" fill="#F5B756"/>
<path fill-rule="evenodd" clip-rule="evenodd" d="M210.342 30.5926L156.534 16.1746L157.381 13.0116C157.694 11.8451 158.227 10.9302 159.081 10.077C159.935 9.22379 160.855 8.69281 162.02 8.38005C163.186 8.06728 164.243 8.07005 165.41 8.38261L206.559 19.4085C207.726 19.7211 208.642 20.2473 209.496 21.101C210.349 21.9547 210.88 22.8744 211.193 24.0402C211.505 25.2059 211.503 26.2631 211.19 27.4296L210.342 30.5926ZM136.177 92.147L189.986 106.565L189.138 109.728C188.826 110.895 188.299 111.811 187.446 112.665C186.592 113.518 185.672 114.049 184.507 114.362C183.341 114.674 182.284 114.672 181.117 114.359L139.968 103.333C138.801 103.021 137.884 102.494 137.031 101.641C136.178 100.787 135.647 99.8672 135.334 98.7015C135.022 97.5357 135.017 96.4765 135.329 95.31L136.177 92.147Z" fill="#92B1D8"/>
<path fill-rule="evenodd" clip-rule="evenodd" d="M159.898 28.9541L175.728 33.1958L172.336 45.8553L156.506 41.6137L159.898 28.9541ZM179.705 56.3092L195.535 60.5509L192.141 73.2179L176.311 68.9763L179.705 56.3092Z" fill="#EBAD64"/>
<path fill-rule="evenodd" clip-rule="evenodd" d="M180.893 32.8809L203.057 38.8196L202.21 41.9826L180.046 36.0439L180.893 32.8809ZM179.196 39.2144L201.36 45.1531L200.512 48.3161L178.349 42.3774L179.196 39.2144ZM177.501 45.5404L193.331 49.7821L192.482 52.9526L176.652 48.7109L177.501 45.5404Z" fill="#3A4249"/>
<path fill-rule="evenodd" clip-rule="evenodd" d="M148.872 70.1025L164.702 74.3442L161.31 87.0038L145.48 82.7621L148.872 70.1025Z" fill="#EBAD64"/>
<path fill-rule="evenodd" clip-rule="evenodd" d="M169.868 74.0299L192.031 79.9686L191.184 83.1316L169.02 77.1929L169.868 74.0299ZM168.171 80.3634L190.334 86.3021L189.487 89.4651L167.323 83.5264L168.171 80.3634ZM166.475 86.6894L169.646 87.539L168.798 90.702L165.628 89.8525L166.475 86.6894ZM153.223 47.5223L175.38 53.459L174.532 56.622L152.376 50.6853L153.223 47.5223ZM151.528 53.8483L173.684 59.7851L172.837 62.9481L150.681 57.0114L151.528 53.8483ZM149.831 60.1819L171.987 66.1186L171.14 69.2816L148.984 63.3449L149.831 60.1819ZM196.494 50.6294L199.665 51.4789L198.815 54.6494L195.645 53.7999L196.494 50.6294ZM172.809 88.3865L175.972 89.234L175.124 92.3971L171.961 91.5495L172.809 88.3865ZM179.143 90.0836L182.306 90.9311L181.458 94.0941L178.295 93.2466L179.143 90.0836ZM185.469 91.7786L188.639 92.6282L187.792 95.7912L184.621 94.9416L185.469 91.7786Z" fill="#3A4249"/>
</g>
</g>
<defs>
<clipPath id="clip0_1543_1127">
<rect width="105.074" height="105.074" fill="white" transform="translate(147.195) rotate(15)"/>
</clipPath>
</defs>
</svg>
