<svg width="174" height="205" viewBox="0 0 174 205" fill="none" xmlns="http://www.w3.org/2000/svg">
<path fill-rule="evenodd" clip-rule="evenodd" d="M81.8543 14.2655C111.028 12.0045 142.574 24.2789 158.8 47.5534C173.589 68.7667 157.422 95.6035 156.314 121.07C155.293 144.522 168.899 171.106 152.658 188.718C136.137 206.633 106.559 205.411 81.8543 201.812C60.8388 198.751 44.4063 185.562 29.7845 170.819C15.6928 156.61 4.08815 140.52 1.77818 121.07C-0.840535 99.0206 2.92961 76.6253 16.455 58.5853C32.6348 37.0049 54.1611 16.4117 81.8543 14.2655Z" stroke="black"/>
<path fill-rule="evenodd" clip-rule="evenodd" d="M81.428 0.111983C105.784 2.29332 107.691 38.2242 124.386 56.0891C139.889 72.6792 171.718 76.4377 173.875 99.0397C176.045 121.762 149.353 134.676 133.453 151.056C117.129 167.873 104.647 191.072 81.428 194.279C56.1442 197.772 27.5374 188.515 12.7214 167.734C-1.09956 148.35 10.1303 122.603 13.5236 99.0397C16.19 80.5244 19.43 63.0607 30.0168 47.6373C43.7459 27.6358 57.2619 -2.05235 81.428 0.111983Z" fill="#F0D3D1"/>
<g clip-path="url(#clip0_1544_183)">
<mask id="mask0_1544_183" style="mask-type:luminance" maskUnits="userSpaceOnUse" x="7" y="24" width="158" height="158">
<path d="M165 24H7V182H165V24Z" fill="white"/>
</mask>
<g mask="url(#mask0_1544_183)">
<mask id="mask1_1544_183" style="mask-type:luminance" maskUnits="userSpaceOnUse" x="7" y="24" width="158" height="158">
<path d="M7 24H164.988V181.988H7V24Z" fill="white"/>
</mask>
<g mask="url(#mask1_1544_183)">
<path fill-rule="evenodd" clip-rule="evenodd" d="M13.9512 24H69.7358C73.573 24 76.687 27.114 76.687 30.9395L76.6754 76.7872C76.6754 80.6127 73.5613 83.7267 69.7358 83.7267H59.309C57.5479 83.7267 56.125 85.1496 56.125 86.8991V91.3894C56.125 92.4507 54.912 93.0455 54.0723 92.3924L43.8321 84.3915C43.7038 84.2982 43.5988 84.2282 43.4588 84.1466C42.9573 83.855 42.4558 83.7267 41.8727 83.7267H13.9395C10.114 83.7267 7 80.6127 7 76.7872L7.01166 30.9395C7.01166 27.114 10.114 24 13.9512 24Z" fill="#F4FBFF"/>
<path fill-rule="evenodd" clip-rule="evenodd" d="M70.2723 45.5185C70.2723 45.5185 70.2723 45.5302 70.2723 45.5419C70.2723 48.5976 70.7155 51.1868 71.7302 54.0676C72.1967 55.3972 71.7419 56.8667 70.6105 57.7065C67.4732 60.0508 65.4438 63.7946 65.4438 67.9933V78.2685C65.4438 78.2802 65.4438 78.2802 65.4438 78.2802C65.4438 80.2629 65.817 81.9424 66.6567 83.7268H69.7358C73.5613 83.7268 76.6754 80.6128 76.6754 76.7873L76.687 30.9397C76.687 27.2891 73.8529 24.3034 70.2723 24.0234V45.5185Z" fill="#DFEAEF"/>
<path fill-rule="evenodd" clip-rule="evenodd" d="M121.637 117.119L148.298 124.234C158.142 126.858 164.988 135.768 164.988 145.95V178.805C164.988 180.566 163.565 181.989 161.804 181.989H55.8101V145.95C55.8101 135.768 62.6563 126.858 72.5 124.234L99.1618 117.119H121.637Z" fill="#F4FBFF"/>
<path fill-rule="evenodd" clip-rule="evenodd" d="M115.863 152.119L120.027 181.988H100.76L104.935 152.119H115.863Z" fill="#E28086"/>
<path fill-rule="evenodd" clip-rule="evenodd" d="M110.393 132.001H112.773L120.68 140.889L130.279 119.428L121.637 117.119L112.738 126.788H110.393V132.001ZM110.393 132.001H108.026L100.118 140.889L90.5195 119.428L99.1618 117.119L108.061 126.788H110.393V132.001ZM149.686 124.654C153.045 128.619 155.028 133.727 155.028 139.209V181.989H161.804C163.565 181.989 164.988 180.566 164.988 178.805V145.95C164.988 136.258 158.772 127.709 149.686 124.654Z" fill="#DFEAEF"/>
<path fill-rule="evenodd" clip-rule="evenodd" d="M99.1618 117.118V103.32H121.637V117.118L111.805 127.801C111.665 127.953 111.525 128.058 111.35 128.163C111.047 128.338 110.755 128.419 110.393 128.419C110.043 128.419 109.752 128.338 109.449 128.163C109.274 128.058 109.134 127.953 108.994 127.801L99.1618 117.118Z" fill="#F5B756"/>
<path fill-rule="evenodd" clip-rule="evenodd" d="M99.1618 110.621C102.929 112.033 106.346 112.651 110.37 112.651C110.382 112.651 110.393 112.651 110.393 112.651C114.347 112.651 118.138 111.939 121.637 110.621V103.32H99.1618V110.621Z" fill="#FFAE2F"/>
<path fill-rule="evenodd" clip-rule="evenodd" d="M84.7112 53.8691V80.5426C84.7112 94.7366 96.2111 106.236 110.393 106.236C124.587 106.236 136.087 94.7366 136.087 80.5426V53.8691H84.7112Z" fill="#F5B756"/>
<path fill-rule="evenodd" clip-rule="evenodd" d="M136.087 80.5426V53.8691H129.987V87.2606C129.987 92.2757 128.541 96.941 126.057 100.895C132.157 96.2062 136.087 88.8351 136.087 80.5426Z" fill="#FFAE2F"/>
<path fill-rule="evenodd" clip-rule="evenodd" d="M144.438 73.125V46.4748C144.438 39.3836 138.688 33.6337 131.597 33.6337H128.786C128.529 33.6337 128.32 33.5754 128.098 33.4471C127.888 33.3188 127.725 33.1672 127.596 32.9456C127.48 32.7357 127.421 32.5141 127.421 32.2691C127.421 27.6972 123.713 24 119.152 24H79.8594C78.1099 24 76.687 25.4229 76.687 27.184V45.5184C76.687 56.1552 85.306 64.7859 95.9545 64.7859H113.752C116.108 64.7859 118.126 64.2377 120.167 63.0597C121.193 62.4649 121.998 61.8584 122.826 61.0187L125.579 58.2778C126.488 57.3681 128.028 57.6014 128.623 58.7444L136.087 73.125H144.438Z" fill="#0C0C0C"/>
<path fill-rule="evenodd" clip-rule="evenodd" d="M136.087 39.7209V39.7326V73.124H144.438V46.4738C144.438 40.4673 140.321 35.4289 134.746 34.0293C135.679 35.8837 136.087 37.6449 136.087 39.7209Z" fill="#3F3F3F"/>
<path fill-rule="evenodd" clip-rule="evenodd" d="M78.2849 84.6943H83.44C83.6732 84.6943 83.8715 84.636 84.0698 84.5194C84.2797 84.4028 84.4197 84.2628 84.5363 84.0529C84.6529 83.8546 84.7113 83.6563 84.7113 83.4231V62.8377C84.7113 62.6044 84.6529 62.4061 84.5363 62.2079C84.4197 61.9979 84.2797 61.858 84.0698 61.7414C83.8715 61.6247 83.6732 61.5664 83.44 61.5664H78.2849C74.7393 61.5664 71.8702 64.4472 71.8702 67.9928V78.268C71.8702 81.8135 74.7393 84.6943 78.2849 84.6943Z" fill="#B1E4F9"/>
<path fill-rule="evenodd" clip-rule="evenodd" d="M115.863 152.12L120.68 140.888L112.773 132.001C111.513 130.578 109.285 130.578 108.026 132.001L100.118 140.888L104.935 152.12H115.863Z" fill="#E28086"/>
<path fill-rule="evenodd" clip-rule="evenodd" d="M103.839 149.553L104.935 152.119H115.863L116.96 149.553H103.839Z" fill="#DD636E"/>
<path fill-rule="evenodd" clip-rule="evenodd" d="M80.8507 169.147H7V127.393C7 123.848 9.88079 120.979 13.4264 120.979H74.436C77.9816 120.979 80.8507 123.848 80.8507 127.393V169.147Z" fill="#92B1D8"/>
<path fill-rule="evenodd" clip-rule="evenodd" d="M50.3518 145.063C50.3518 146.241 50.0835 147.244 49.4887 148.27C48.8939 149.297 48.1591 150.032 47.1444 150.626C46.118 151.21 45.115 151.478 43.9254 151.478C42.7474 151.478 41.7444 151.21 40.718 150.626C39.6917 150.032 38.9569 149.297 38.3621 148.27C37.7789 147.244 37.5107 146.241 37.5107 145.063C37.5107 143.873 37.7789 142.87 38.3621 141.844C38.9569 140.829 39.6917 140.095 40.718 139.5C41.7444 138.905 42.7474 138.637 43.9254 138.637C45.115 138.637 46.118 138.905 47.1444 139.5C48.1591 140.095 48.8939 140.829 49.4887 141.844C50.0835 142.87 50.3518 143.873 50.3518 145.063Z" fill="#F4FBFF"/>
<path fill-rule="evenodd" clip-rule="evenodd" d="M7 169.146H84.1047C85.8542 169.146 87.2771 170.569 87.2771 172.319V175.561C87.2771 179.107 84.408 181.988 80.8507 181.988H13.4264C9.88079 181.988 7 179.107 7 175.561V169.146Z" fill="#7189A7"/>
<path fill-rule="evenodd" clip-rule="evenodd" d="M80.8507 169.146V175.561C80.8507 179.107 77.9816 181.988 74.436 181.988H80.8507C84.408 181.988 87.2771 179.107 87.2771 175.561V172.319C87.2771 170.569 85.8542 169.146 84.1047 169.146H80.8507Z" fill="#5E6B75"/>
<path fill-rule="evenodd" clip-rule="evenodd" d="M61.1051 53.8573C61.1051 57.4029 60.3004 60.4236 58.5276 63.491C56.7548 66.5701 54.5388 68.7744 51.4714 70.5472C48.404 72.32 45.3833 73.1247 41.8377 73.1247C38.2921 73.1247 35.2714 72.32 32.204 70.5472C29.1366 68.7744 26.9206 66.5701 25.1478 63.491C23.375 60.4236 22.5703 57.4029 22.5703 53.8573C22.5703 50.3117 23.375 47.3026 25.1478 44.2236C26.9206 41.1562 29.1366 38.9518 32.204 37.1791C35.2714 35.4063 38.2921 34.5898 41.8377 34.5898C45.3833 34.5898 48.404 35.4063 51.4714 37.1791C54.5388 38.9518 56.7548 41.1562 58.5276 44.2236C60.3004 47.3026 61.1051 50.3117 61.1051 53.8573Z" fill="#F6E266"/>
<path fill-rule="evenodd" clip-rule="evenodd" d="M32.4372 61.9864C32.2739 61.8348 32.169 61.6832 32.0523 61.4966C31.8307 61.1117 31.7374 60.7501 31.7374 60.307C31.7374 59.8638 31.8307 59.4905 32.0523 59.1173C32.169 58.919 32.2856 58.7791 32.4372 58.6158C32.5888 58.4642 32.7405 58.3476 32.9271 58.2426C33.3119 58.021 33.6852 57.916 34.1167 57.916C34.5599 57.916 34.9331 58.021 35.318 58.2426C35.5046 58.3476 35.6562 58.4642 35.8078 58.6158C37.4174 60.237 39.5634 61.1234 41.8377 61.1234C44.112 61.1234 46.258 60.237 47.8675 58.6158C48.0191 58.4758 48.1591 58.3592 48.3457 58.2542C48.7189 58.0443 49.0921 57.9393 49.5353 57.9393C49.9785 57.9393 50.3517 58.0443 50.725 58.2542C51.1098 58.4758 51.3781 58.7558 51.5997 59.129C51.8213 59.5139 51.9146 59.8871 51.9146 60.3186C51.9146 60.7618 51.8213 61.135 51.5997 61.5199C51.4947 61.6949 51.3897 61.8348 51.2381 61.9864C48.7306 64.5057 45.3949 65.8936 41.8377 65.8936C38.2804 65.8936 34.9448 64.5057 32.4372 61.9864Z" fill="#ECBE6B"/>
<path fill-rule="evenodd" clip-rule="evenodd" d="M37.6623 49.0413C37.6623 49.6362 37.5223 50.1377 37.2307 50.6508C36.9392 51.164 36.5659 51.5256 36.0528 51.8288C35.5396 52.1204 35.0381 52.2604 34.4433 52.2604C33.8601 52.2604 33.3586 52.1204 32.8454 51.8288C32.3322 51.5256 31.959 51.164 31.6674 50.6508C31.3759 50.1377 31.2359 49.6362 31.2359 49.0413C31.2359 48.4582 31.3759 47.9567 31.6674 47.4435C31.959 46.9303 32.3322 46.5571 32.8454 46.2655C33.3586 45.9739 33.8601 45.834 34.4433 45.834C35.0381 45.834 35.5396 45.9739 36.0528 46.2655C36.5659 46.5571 36.9392 46.9303 37.2307 47.4435C37.5223 47.9567 37.6623 48.4582 37.6623 49.0413Z" fill="#ECBE6B"/>
<path fill-rule="evenodd" clip-rule="evenodd" d="M52.4394 49.0413C52.4394 49.6362 52.2995 50.1377 52.0079 50.6508C51.7163 51.164 51.3431 51.5256 50.8299 51.8288C50.3167 52.1204 49.8152 52.2604 49.2204 52.2604C48.6373 52.2604 48.1357 52.1204 47.6226 51.8288C47.1094 51.5256 46.7362 51.164 46.4446 50.6508C46.153 50.1377 46.0131 49.6362 46.0131 49.0413C46.0131 48.4582 46.153 47.9567 46.4446 47.4435C46.7362 46.9303 47.1094 46.5571 47.6226 46.2655C48.1357 45.9739 48.6373 45.834 49.2204 45.834C49.8152 45.834 50.3167 45.9739 50.8299 46.2655C51.3431 46.5571 51.7163 46.9303 52.0079 47.4435C52.2995 47.9567 52.4394 48.4582 52.4394 49.0413Z" fill="#ECBE6B"/>
<path fill-rule="evenodd" clip-rule="evenodd" d="M122.651 61.1934C122.71 61.1351 122.768 61.0768 122.826 61.0184L125.579 58.2776C126.08 57.7644 126.792 57.6128 127.422 57.7761V32.1873C127.387 28.8983 125.439 26.0758 122.651 24.7695V61.1934Z" fill="#3F3F3F"/>
<path fill-rule="evenodd" clip-rule="evenodd" d="M135.259 96.6848H113.636V91.9146H135.259C135.411 91.9146 135.539 91.8796 135.679 91.798C135.807 91.728 135.901 91.6347 135.982 91.4948C136.052 91.3665 136.087 91.2382 136.087 91.0865V83.0273H140.857V91.0865C140.857 94.1656 138.35 96.6848 135.259 96.6848Z" fill="#F4FBFF"/>
<path fill-rule="evenodd" clip-rule="evenodd" d="M142.514 84.6943H137.358C137.125 84.6943 136.927 84.636 136.729 84.5194C136.519 84.4028 136.379 84.2628 136.262 84.0529C136.146 83.8546 136.087 83.6563 136.087 83.4231V62.8377C136.087 62.6044 136.146 62.4061 136.262 62.2079C136.379 61.9979 136.519 61.858 136.729 61.7414C136.927 61.6247 137.125 61.5664 137.358 61.5664H142.514C146.059 61.5664 148.928 64.4472 148.928 67.9928V78.268C148.928 81.8135 146.059 84.6943 142.514 84.6943Z" fill="#B1E4F9"/>
<path fill-rule="evenodd" clip-rule="evenodd" d="M115.164 94.2936C115.164 95.18 114.965 95.9265 114.534 96.6846C114.091 97.4427 113.542 97.9908 112.784 98.4224C112.026 98.8656 111.28 99.0639 110.393 99.0639C109.519 99.0639 108.772 98.8656 108.014 98.4224C107.256 97.9908 106.708 97.4427 106.265 96.6846C105.833 95.9265 105.635 95.18 105.635 94.2936C105.635 93.4189 105.833 92.6725 106.265 91.9144C106.708 91.1563 107.256 90.6081 108.014 90.1649C108.772 89.7334 109.519 89.5234 110.393 89.5234C111.28 89.5234 112.026 89.7334 112.784 90.1649C113.542 90.6081 114.091 91.1563 114.534 91.9144C114.965 92.6725 115.164 93.4189 115.164 94.2936Z" fill="#5E6B75"/>
</g>
</g>
</g>
<defs>
<clipPath id="clip0_1544_183">
<rect width="158" height="158" fill="white" transform="translate(7 24)"/>
</clipPath>
</defs>
</svg>
