<svg width="125" height="125" viewBox="0 0 125 125" fill="none" xmlns="http://www.w3.org/2000/svg">
<path d="M86.3402 74.9173C87.3711 74.9173 88.2732 74.5307 89.0464 73.7575C89.8196 72.9844 90.2062 72.0823 90.2062 71.0514V37.9972C90.2062 37.0093 89.8196 36.1179 89.0464 35.3233C88.2732 34.5286 87.3711 34.1313 86.3402 34.1313H76.8685L72.1649 28.5256H54.1237V36.2576H46.4562V43.9895H38.6598V71.0514C38.6598 72.0823 39.0571 72.9844 39.8518 73.7575C40.6465 74.5307 41.5378 74.9173 42.5258 74.9173H86.3402ZM64.433 65.5101C61.3402 65.5101 58.7414 64.4577 56.6366 62.3529C54.5318 60.2481 53.4794 57.6493 53.4794 54.5565C53.4794 51.4208 54.5318 48.8112 56.6366 46.7279C58.7414 44.6446 61.3402 43.6029 64.433 43.6029C67.5687 43.6029 70.1783 44.6446 72.2616 46.7279C74.3449 48.8112 75.3866 51.4208 75.3866 54.5565C75.3866 57.6493 74.3449 60.2481 72.2616 62.3529C70.1783 64.4577 67.5687 65.5101 64.433 65.5101ZM64.433 61.6442C66.4948 61.6442 68.1916 60.9676 69.5232 59.6145C70.8548 58.2614 71.5206 56.5754 71.5206 54.5565C71.5206 52.4947 70.8548 50.7979 69.5232 49.4663C68.1916 48.1347 66.4948 47.4689 64.433 47.4689C62.4141 47.4689 60.7281 48.1347 59.375 49.4663C58.0219 50.7979 57.3454 52.4947 57.3454 54.5565C57.3454 56.5754 58.0219 58.2614 59.375 59.6145C60.7281 60.9676 62.4141 61.6442 64.433 61.6442ZM42.5902 37.9328V32.3916H48.1314V28.5256H42.5902V22.9199H38.7242V28.5256H33.1185V32.3916H38.7242V37.9328H42.5902Z" fill="#C4C4C4"/>
<path d="M30.8943 93.09C30.4143 93.09 29.9703 93.012 29.5623 92.856C29.1543 92.694 28.7973 92.469 28.4913 92.181C28.1853 91.887 27.9483 91.545 27.7803 91.155C27.6183 90.759 27.5373 90.324 27.5373 89.85C27.5373 89.388 27.6213 88.965 27.7893 88.581C27.9573 88.191 28.1913 87.852 28.4913 87.564C28.7973 87.276 29.1513 87.054 29.5533 86.898C29.9613 86.736 30.3993 86.655 30.8673 86.655C31.1973 86.655 31.5213 86.703 31.8393 86.799C32.1573 86.895 32.4483 87.024 32.7123 87.186C32.9823 87.342 33.2013 87.519 33.3693 87.717L32.9103 88.275C32.7423 88.083 32.5473 87.921 32.3253 87.789C32.1093 87.651 31.8753 87.543 31.6233 87.465C31.3713 87.387 31.1103 87.348 30.8403 87.348C30.4863 87.348 30.1503 87.408 29.8323 87.528C29.5143 87.648 29.2383 87.822 29.0043 88.05C28.7763 88.272 28.5963 88.536 28.4643 88.842C28.3323 89.148 28.2663 89.484 28.2663 89.85C28.2663 90.228 28.3323 90.576 28.4643 90.894C28.6023 91.206 28.7913 91.473 29.0313 91.695C29.2773 91.917 29.5623 92.091 29.8863 92.217C30.2103 92.337 30.5643 92.397 30.9483 92.397C31.2243 92.397 31.4853 92.361 31.7313 92.289C31.9833 92.211 32.2083 92.112 32.4063 91.992C32.6103 91.866 32.7843 91.725 32.9283 91.569L33.2793 92.163C33.1293 92.325 32.9283 92.478 32.6763 92.622C32.4243 92.76 32.1423 92.874 31.8303 92.964C31.5243 93.048 31.2123 93.09 30.8943 93.09ZM34.5742 93V86.34H35.2492V93H34.5742ZM37.1493 93V88.302H37.8333V93H37.1493ZM37.4823 87.267C37.3203 87.267 37.1943 87.225 37.1043 87.141C37.0143 87.051 36.9693 86.928 36.9693 86.772C36.9693 86.628 37.0143 86.511 37.1043 86.421C37.2003 86.325 37.3263 86.277 37.4823 86.277C37.6503 86.277 37.7763 86.322 37.8603 86.412C37.9503 86.496 37.9953 86.616 37.9953 86.772C37.9953 86.916 37.9503 87.036 37.8603 87.132C37.7703 87.222 37.6443 87.267 37.4823 87.267ZM41.7958 93.09C41.3038 93.09 40.8658 92.985 40.4818 92.775C40.0978 92.559 39.7918 92.268 39.5638 91.902C39.3418 91.53 39.2308 91.11 39.2308 90.642C39.2308 90.174 39.3418 89.757 39.5638 89.391C39.7918 89.019 40.0978 88.728 40.4818 88.518C40.8658 88.302 41.3068 88.194 41.8048 88.194C42.2548 88.194 42.6688 88.275 43.0468 88.437C43.4308 88.593 43.7428 88.809 43.9828 89.085L43.5868 89.607C43.4488 89.457 43.2838 89.325 43.0918 89.211C42.9058 89.091 42.7018 88.998 42.4798 88.932C42.2578 88.866 42.0298 88.833 41.7958 88.833C41.4418 88.833 41.1208 88.911 40.8328 89.067C40.5508 89.223 40.3288 89.439 40.1668 89.715C40.0048 89.985 39.9238 90.294 39.9238 90.642C39.9238 90.99 40.0078 91.302 40.1758 91.578C40.3438 91.848 40.5688 92.061 40.8508 92.217C41.1328 92.373 41.4448 92.451 41.7868 92.451C42.0388 92.451 42.2728 92.421 42.4888 92.361C42.7048 92.301 42.9028 92.217 43.0828 92.109C43.2688 92.001 43.4338 91.881 43.5778 91.749L43.9648 92.262C43.7068 92.502 43.3888 92.7 43.0108 92.856C42.6388 93.012 42.2338 93.09 41.7958 93.09ZM45.7654 91.587L45.7834 90.813L48.6724 88.302H49.5994L45.7654 91.587ZM45.2074 93V86.34H45.8644V93H45.2074ZM48.8704 93L46.6654 90.534L47.1334 90.075L49.7524 93H48.8704ZM54.3126 93V86.961H54.9966V93H54.3126ZM53.0256 88.95V88.302H56.4546V88.95H53.0256ZM59.845 93.09C59.317 93.09 58.849 92.985 58.441 92.775C58.039 92.565 57.721 92.274 57.487 91.902C57.259 91.53 57.145 91.107 57.145 90.633C57.145 90.165 57.259 89.748 57.487 89.382C57.721 89.01 58.039 88.719 58.441 88.509C58.849 88.299 59.317 88.194 59.845 88.194C60.367 88.194 60.829 88.299 61.231 88.509C61.639 88.719 61.957 89.01 62.185 89.382C62.419 89.748 62.536 90.165 62.536 90.633C62.536 91.107 62.419 91.53 62.185 91.902C61.957 92.268 61.639 92.559 61.231 92.775C60.829 92.985 60.367 93.09 59.845 93.09ZM59.845 92.451C60.223 92.451 60.562 92.373 60.862 92.217C61.168 92.055 61.405 91.839 61.573 91.569C61.747 91.293 61.834 90.981 61.834 90.633C61.834 90.285 61.747 89.976 61.573 89.706C61.405 89.43 61.168 89.217 60.862 89.067C60.562 88.911 60.223 88.833 59.845 88.833C59.461 88.833 59.116 88.911 58.81 89.067C58.51 89.223 58.273 89.436 58.099 89.706C57.925 89.976 57.841 90.285 57.847 90.633C57.841 90.981 57.925 91.293 58.099 91.569C58.273 91.839 58.513 92.055 58.819 92.217C59.125 92.373 59.467 92.451 59.845 92.451ZM68.3363 93.09C67.9403 93.09 67.6043 93.009 67.3283 92.847C67.0523 92.685 66.8393 92.451 66.6893 92.145C66.5453 91.833 66.4733 91.458 66.4733 91.02V88.302H67.1573V90.858C67.1573 91.2 67.2083 91.491 67.3103 91.731C67.4123 91.965 67.5653 92.142 67.7693 92.262C67.9733 92.382 68.2223 92.442 68.5163 92.442C68.7503 92.442 68.9663 92.403 69.1643 92.325C69.3683 92.247 69.5423 92.142 69.6863 92.01C69.8363 91.872 69.9533 91.713 70.0373 91.533C70.1213 91.353 70.1633 91.158 70.1633 90.948V88.302H70.8473V93H70.1723L70.1453 91.956L70.2623 91.902C70.1963 92.106 70.0703 92.301 69.8843 92.487C69.6983 92.667 69.4703 92.814 69.2003 92.928C68.9363 93.036 68.6483 93.09 68.3363 93.09ZM72.5973 94.98V88.302H73.2723L73.2903 89.454L73.1553 89.472C73.2333 89.232 73.3713 89.019 73.5693 88.833C73.7733 88.641 74.0193 88.488 74.3073 88.374C74.6013 88.26 74.9133 88.203 75.2433 88.203C75.7173 88.203 76.1373 88.308 76.5033 88.518C76.8693 88.728 77.1573 89.019 77.3673 89.391C77.5833 89.757 77.6913 90.177 77.6913 90.651C77.6913 91.113 77.5863 91.527 77.3763 91.893C77.1723 92.259 76.8843 92.55 76.5123 92.766C76.1463 92.976 75.7263 93.081 75.2523 93.081C74.9103 93.081 74.5893 93.021 74.2893 92.901C73.9953 92.781 73.7463 92.625 73.5423 92.433C73.3383 92.235 73.1943 92.019 73.1103 91.785H73.2813V94.98H72.5973ZM75.1443 92.433C75.5103 92.433 75.8313 92.358 76.1073 92.208C76.3893 92.052 76.6113 91.839 76.7733 91.569C76.9413 91.299 77.0223 90.993 77.0163 90.651C77.0163 90.297 76.9353 89.985 76.7733 89.715C76.6113 89.445 76.3893 89.235 76.1073 89.085C75.8313 88.929 75.5133 88.851 75.1533 88.851C74.7813 88.851 74.4513 88.929 74.1633 89.085C73.8753 89.235 73.6473 89.445 73.4793 89.715C73.3173 89.985 73.2363 90.294 73.2363 90.642C73.2363 90.99 73.3173 91.299 73.4793 91.569C73.6473 91.833 73.8723 92.043 74.1543 92.199C74.4423 92.355 74.7723 92.433 75.1443 92.433ZM80.8641 93.09C80.3901 93.09 79.9671 92.985 79.5951 92.775C79.2291 92.559 78.9411 92.268 78.7311 91.902C78.5211 91.53 78.4161 91.11 78.4161 90.642C78.4161 90.168 78.5211 89.748 78.7311 89.382C78.9471 89.01 79.2411 88.719 79.6131 88.509C79.9851 88.299 80.4081 88.194 80.8821 88.194C81.1581 88.194 81.4161 88.23 81.6561 88.302C81.9021 88.374 82.1211 88.476 82.3131 88.608C82.5111 88.734 82.6731 88.881 82.7991 89.049C82.9251 89.217 83.0091 89.394 83.0511 89.58L82.8351 89.508V86.34H83.5101V93H82.8441L82.8261 91.767L83.0061 91.722C82.9701 91.902 82.8861 92.073 82.7541 92.235C82.6281 92.397 82.4691 92.544 82.2771 92.676C82.0851 92.802 81.8661 92.904 81.6201 92.982C81.3801 93.054 81.1281 93.09 80.8641 93.09ZM80.9811 92.46C81.3471 92.46 81.6711 92.382 81.9531 92.226C82.2411 92.064 82.4661 91.848 82.6281 91.578C82.7901 91.302 82.8711 90.987 82.8711 90.633C82.8711 90.291 82.7901 89.985 82.6281 89.715C82.4721 89.439 82.2501 89.223 81.9621 89.067C81.6801 88.911 81.3531 88.833 80.9811 88.833C80.6211 88.833 80.3001 88.911 80.0181 89.067C79.7421 89.223 79.5231 89.436 79.3611 89.706C79.1991 89.976 79.1181 90.285 79.1181 90.633C79.1181 90.981 79.1991 91.293 79.3611 91.569C79.5231 91.845 79.7421 92.064 80.0181 92.226C80.3001 92.382 80.6211 92.46 80.9811 92.46ZM87.1266 93.09C86.6466 93.09 86.2206 92.985 85.8486 92.775C85.4826 92.565 85.1946 92.277 84.9846 91.911C84.7806 91.539 84.6786 91.116 84.6786 90.642C84.6786 90.168 84.7866 89.748 85.0026 89.382C85.2186 89.01 85.5126 88.719 85.8846 88.509C86.2566 88.299 86.6796 88.194 87.1536 88.194C87.4476 88.194 87.7176 88.233 87.9636 88.311C88.2156 88.389 88.4346 88.497 88.6206 88.635C88.8126 88.773 88.9686 88.929 89.0886 89.103C89.2086 89.271 89.2836 89.445 89.3136 89.625L89.0976 89.562L89.1246 88.302H89.7906V93H89.1156V91.776L89.2956 91.677C89.2596 91.857 89.1786 92.031 89.0526 92.199C88.9266 92.367 88.7646 92.52 88.5666 92.658C88.3686 92.79 88.1466 92.895 87.9006 92.973C87.6546 93.051 87.3966 93.09 87.1266 93.09ZM87.2706 92.442C87.6306 92.442 87.9516 92.367 88.2336 92.217C88.5216 92.061 88.7466 91.848 88.9086 91.578C89.0706 91.302 89.1516 90.99 89.1516 90.642C89.1516 90.3 89.0706 89.994 88.9086 89.724C88.7466 89.454 88.5216 89.238 88.2336 89.076C87.9516 88.914 87.6306 88.833 87.2706 88.833C86.8986 88.833 86.5716 88.914 86.2896 89.076C86.0076 89.238 85.7856 89.454 85.6236 89.724C85.4616 89.994 85.3806 90.3 85.3806 90.642C85.3806 90.99 85.4586 91.299 85.6146 91.569C85.7706 91.839 85.9896 92.052 86.2716 92.208C86.5596 92.364 86.8926 92.442 87.2706 92.442ZM92.2455 93V86.961H92.9295V93H92.2455ZM90.9585 88.95V88.302H94.3875V88.95H90.9585ZM97.7419 93.09C97.2199 93.09 96.7519 92.988 96.3379 92.784C95.9299 92.58 95.6119 92.295 95.3839 91.929C95.1559 91.563 95.0419 91.143 95.0419 90.669C95.0419 90.291 95.1079 89.955 95.2399 89.661C95.3719 89.361 95.5549 89.1 95.7889 88.878C96.0289 88.656 96.3079 88.485 96.6259 88.365C96.9499 88.245 97.2949 88.185 97.6609 88.185C98.0149 88.185 98.3389 88.242 98.6329 88.356C98.9269 88.464 99.1819 88.62 99.3979 88.824C99.6139 89.028 99.7789 89.268 99.8929 89.544C100.007 89.82 100.058 90.126 100.046 90.462L100.037 90.813H95.5909L95.4919 90.246H99.5239L99.3619 90.363V90.147C99.3499 89.931 99.2719 89.724 99.1279 89.526C98.9839 89.322 98.7859 89.157 98.5339 89.031C98.2819 88.899 97.9909 88.833 97.6609 88.833C97.2889 88.833 96.9559 88.899 96.6619 89.031C96.3739 89.157 96.1459 89.352 95.9779 89.616C95.8159 89.88 95.7349 90.216 95.7349 90.624C95.7349 90.996 95.8219 91.317 95.9959 91.587C96.1699 91.857 96.4129 92.067 96.7249 92.217C97.0429 92.367 97.4209 92.442 97.8589 92.442C98.1829 92.442 98.4739 92.397 98.7319 92.307C98.9899 92.217 99.2509 92.076 99.5149 91.884L99.8389 92.388C99.6829 92.514 99.4969 92.631 99.2809 92.739C99.0649 92.847 98.8279 92.934 98.5699 93C98.3119 93.06 98.0359 93.09 97.7419 93.09ZM38.3827 106.07L39.4177 103.856L39.4807 104.486L36.8617 99.302H37.6267L39.2917 102.65C39.3997 102.848 39.4927 103.037 39.5707 103.217C39.6487 103.397 39.7117 103.568 39.7597 103.73L39.5347 103.676C39.5947 103.538 39.6577 103.391 39.7237 103.235C39.7897 103.079 39.8587 102.914 39.9307 102.74L41.4607 99.302H42.2347L40.0567 103.991L39.1027 106.07H38.3827ZM45.3899 104.09C44.8619 104.09 44.3939 103.985 43.9859 103.775C43.5839 103.565 43.2659 103.274 43.0319 102.902C42.8039 102.53 42.6899 102.107 42.6899 101.633C42.6899 101.165 42.8039 100.748 43.0319 100.382C43.2659 100.01 43.5839 99.719 43.9859 99.509C44.3939 99.299 44.8619 99.194 45.3899 99.194C45.9119 99.194 46.3739 99.299 46.7759 99.509C47.1839 99.719 47.5019 100.01 47.7299 100.382C47.9639 100.748 48.0809 101.165 48.0809 101.633C48.0809 102.107 47.9639 102.53 47.7299 102.902C47.5019 103.268 47.1839 103.559 46.7759 103.775C46.3739 103.985 45.9119 104.09 45.3899 104.09ZM45.3899 103.451C45.7679 103.451 46.1069 103.373 46.4069 103.217C46.7129 103.055 46.9499 102.839 47.1179 102.569C47.2919 102.293 47.3789 101.981 47.3789 101.633C47.3789 101.285 47.2919 100.976 47.1179 100.706C46.9499 100.43 46.7129 100.217 46.4069 100.067C46.1069 99.911 45.7679 99.833 45.3899 99.833C45.0059 99.833 44.6609 99.911 44.3549 100.067C44.0549 100.223 43.8179 100.436 43.6439 100.706C43.4699 100.976 43.3859 101.285 43.3919 101.633C43.3859 101.981 43.4699 102.293 43.6439 102.569C43.8179 102.839 44.0579 103.055 44.3639 103.217C44.6699 103.373 45.0119 103.451 45.3899 103.451ZM51.1603 104.09C50.7643 104.09 50.4283 104.009 50.1523 103.847C49.8763 103.685 49.6633 103.451 49.5133 103.145C49.3693 102.833 49.2973 102.458 49.2973 102.02V99.302H49.9813V101.858C49.9813 102.2 50.0323 102.491 50.1343 102.731C50.2363 102.965 50.3893 103.142 50.5933 103.262C50.7973 103.382 51.0463 103.442 51.3403 103.442C51.5743 103.442 51.7903 103.403 51.9883 103.325C52.1923 103.247 52.3663 103.142 52.5103 103.01C52.6603 102.872 52.7773 102.713 52.8613 102.533C52.9453 102.353 52.9873 102.158 52.9873 101.948V99.302H53.6713V104H52.9963L52.9693 102.956L53.0863 102.902C53.0203 103.106 52.8943 103.301 52.7083 103.487C52.5223 103.667 52.2943 103.814 52.0243 103.928C51.7603 104.036 51.4723 104.09 51.1603 104.09ZM55.4213 104V99.302H56.0963L56.1143 100.643L55.9883 100.562C56.0663 100.31 56.1923 100.082 56.3663 99.878C56.5403 99.668 56.7443 99.503 56.9783 99.383C57.2123 99.257 57.4643 99.194 57.7343 99.194C57.8843 99.194 58.0283 99.209 58.1663 99.239C58.3103 99.263 58.4243 99.299 58.5083 99.347L58.3193 100.085C58.2173 100.025 58.1033 99.983 57.9773 99.959C57.8513 99.935 57.7343 99.923 57.6263 99.923C57.3863 99.923 57.1703 99.965 56.9783 100.049C56.7923 100.133 56.6333 100.247 56.5013 100.391C56.3693 100.529 56.2703 100.688 56.2043 100.868C56.1383 101.042 56.1053 101.225 56.1053 101.417V104H55.4213ZM62.3218 105.98V99.302H62.9968L63.0148 100.454L62.8798 100.472C62.9578 100.232 63.0958 100.019 63.2938 99.833C63.4978 99.641 63.7438 99.488 64.0318 99.374C64.3258 99.26 64.6378 99.203 64.9678 99.203C65.4418 99.203 65.8618 99.308 66.2278 99.518C66.5938 99.728 66.8818 100.019 67.0918 100.391C67.3078 100.757 67.4158 101.177 67.4158 101.651C67.4158 102.113 67.3108 102.527 67.1008 102.893C66.8968 103.259 66.6088 103.55 66.2368 103.766C65.8708 103.976 65.4508 104.081 64.9768 104.081C64.6348 104.081 64.3138 104.021 64.0138 103.901C63.7198 103.781 63.4708 103.625 63.2668 103.433C63.0628 103.235 62.9188 103.019 62.8348 102.785H63.0058V105.98H62.3218ZM64.8688 103.433C65.2348 103.433 65.5558 103.358 65.8318 103.208C66.1138 103.052 66.3358 102.839 66.4978 102.569C66.6658 102.299 66.7468 101.993 66.7408 101.651C66.7408 101.297 66.6598 100.985 66.4978 100.715C66.3358 100.445 66.1138 100.235 65.8318 100.085C65.5558 99.929 65.2378 99.851 64.8778 99.851C64.5058 99.851 64.1758 99.929 63.8878 100.085C63.5998 100.235 63.3718 100.445 63.2038 100.715C63.0418 100.985 62.9608 101.294 62.9608 101.642C62.9608 101.99 63.0418 102.299 63.2038 102.569C63.3718 102.833 63.5968 103.043 63.8788 103.199C64.1668 103.355 64.4968 103.433 64.8688 103.433ZM68.7076 104V97.34H69.3826V100.472L69.1936 100.589C69.2596 100.337 69.3916 100.106 69.5896 99.896C69.7936 99.68 70.0366 99.509 70.3186 99.383C70.6066 99.257 70.9006 99.194 71.2006 99.194C71.6086 99.194 71.9476 99.275 72.2176 99.437C72.4936 99.593 72.6976 99.818 72.8296 100.112C72.9676 100.406 73.0366 100.763 73.0366 101.183V104H72.3526V101.255C72.3526 100.943 72.2986 100.682 72.1906 100.472C72.0826 100.256 71.9266 100.094 71.7226 99.986C71.5246 99.872 71.2876 99.818 71.0116 99.824C70.7776 99.824 70.5616 99.866 70.3636 99.95C70.1656 100.034 69.9916 100.145 69.8416 100.283C69.6976 100.421 69.5836 100.577 69.4996 100.751C69.4216 100.919 69.3826 101.093 69.3826 101.273V104H69.0496C68.9776 104 68.9146 104 68.8606 104C68.8066 104 68.7556 104 68.7076 104ZM77.0249 104.09C76.4969 104.09 76.0289 103.985 75.6209 103.775C75.2189 103.565 74.9009 103.274 74.6669 102.902C74.4389 102.53 74.3249 102.107 74.3249 101.633C74.3249 101.165 74.4389 100.748 74.6669 100.382C74.9009 100.01 75.2189 99.719 75.6209 99.509C76.0289 99.299 76.4969 99.194 77.0249 99.194C77.5469 99.194 78.0089 99.299 78.4109 99.509C78.8189 99.719 79.1369 100.01 79.3649 100.382C79.5989 100.748 79.7159 101.165 79.7159 101.633C79.7159 102.107 79.5989 102.53 79.3649 102.902C79.1369 103.268 78.8189 103.559 78.4109 103.775C78.0089 103.985 77.5469 104.09 77.0249 104.09ZM77.0249 103.451C77.4029 103.451 77.7419 103.373 78.0419 103.217C78.3479 103.055 78.5849 102.839 78.7529 102.569C78.9269 102.293 79.0139 101.981 79.0139 101.633C79.0139 101.285 78.9269 100.976 78.7529 100.706C78.5849 100.43 78.3479 100.217 78.0419 100.067C77.7419 99.911 77.4029 99.833 77.0249 99.833C76.6409 99.833 76.2959 99.911 75.9899 100.067C75.6899 100.223 75.4529 100.436 75.2789 100.706C75.1049 100.976 75.0209 101.285 75.0269 101.633C75.0209 101.981 75.1049 102.293 75.2789 102.569C75.4529 102.839 75.6929 103.055 75.9989 103.217C76.3049 103.373 76.6469 103.451 77.0249 103.451ZM81.7063 104V97.961H82.3903V104H81.7063ZM80.4193 99.95V99.302H83.8483V99.95H80.4193ZM87.2388 104.09C86.7108 104.09 86.2428 103.985 85.8348 103.775C85.4328 103.565 85.1148 103.274 84.8808 102.902C84.6528 102.53 84.5388 102.107 84.5388 101.633C84.5388 101.165 84.6528 100.748 84.8808 100.382C85.1148 100.01 85.4328 99.719 85.8348 99.509C86.2428 99.299 86.7108 99.194 87.2388 99.194C87.7608 99.194 88.2228 99.299 88.6248 99.509C89.0328 99.719 89.3508 100.01 89.5788 100.382C89.8128 100.748 89.9298 101.165 89.9298 101.633C89.9298 102.107 89.8128 102.53 89.5788 102.902C89.3508 103.268 89.0328 103.559 88.6248 103.775C88.2228 103.985 87.7608 104.09 87.2388 104.09ZM87.2388 103.451C87.6168 103.451 87.9558 103.373 88.2558 103.217C88.5618 103.055 88.7988 102.839 88.9668 102.569C89.1408 102.293 89.2278 101.981 89.2278 101.633C89.2278 101.285 89.1408 100.976 88.9668 100.706C88.7988 100.43 88.5618 100.217 88.2558 100.067C87.9558 99.911 87.6168 99.833 87.2388 99.833C86.8548 99.833 86.5098 99.911 86.2038 100.067C85.9038 100.223 85.6668 100.436 85.4928 100.706C85.3188 100.976 85.2348 101.285 85.2408 101.633C85.2348 101.981 85.3188 102.293 85.4928 102.569C85.6668 102.839 85.9068 103.055 86.2128 103.217C86.5188 103.373 86.8608 103.451 87.2388 103.451Z" fill="black"/>
</svg>
