<svg width="144" height="251" viewBox="0 0 144 251" fill="none" xmlns="http://www.w3.org/2000/svg">
<g id="one-wave 1" clip-path="url(#clip0_1407_276)">
<g id="Group">
<g id="Group_2">
<g id="container-id1">
<g id="Clip path group">
<mask id="mask0_1407_276" style="mask-type:luminance" maskUnits="userSpaceOnUse" x="-188" y="-81" width="332" height="332">
<g id="presentation_clip_path">
<path id="Vector" d="M73.923 250.128L143.88 -10.9551L-117.203 -80.912L-187.16 180.171L73.923 250.128Z" fill="white"/>
</g>
</mask>
<g mask="url(#mask0_1407_276)">
<g id="id1">
<g id="Group_3">
<g id="Group_4">
<g id="id3">
<path id="Vector_2" fill-rule="evenodd" clip-rule="evenodd" d="M54.4833 -34.6411L58.6475 -10.2493C61.2805 5.23824 57.0335 21.0883 47.0095 33.1844C36.9715 45.2561 32.7193 61.1253 35.3767 76.5988C38.0096 92.0863 33.7626 107.936 23.7387 120.032C13.7006 132.104 9.44845 147.973 12.1058 163.447C14.7388 178.934 10.4918 194.784 0.467785 206.881L-15.3344 225.922L-55.0172 215.289L-37.5164 80.3432L14.8006 -45.2741L54.4833 -34.6411Z" fill="#5AD6FF"/>
</g>
</g>
</g>
</g>
</g>
</g>
</g>
</g>
</g>
</g>
<defs>
<clipPath id="clip0_1407_276">
<rect width="270.293" height="270.293" fill="white" transform="translate(143.88 -10.9551) rotate(105)"/>
</clipPath>
</defs>
</svg>
